<svg id="Layer_1" data-name="Layer 1" xmlns="http://www.w3.org/2000/svg" viewBox="0 0 48 48"><defs><style>.cls-1{fill:none;}.cls-2{fill:#3254c7;}.cls-3{fill:#f2cd38;}.cls-4{fill:#eb5a76;}</style></defs><rect class="cls-1" /><g id="SD_Bouwen_en_wonen" data-name="SD Bouwen en wonen"><path class="cls-2" d="M37.00009,12a3.00007,3.00007,0,0,0-3-3H13.70273L13.5405,4.99885A1.0411,1.0411,0,0,0,12.50046,4h-.00073a1.04115,1.04115,0,0,0-1.04029.99884L11.29721,9H9.00009V8a1,1,0,0,0-1-1h-3a1,1,0,0,0-1,1v5a.99994.99994,0,0,0,1,1h3a1,1,0,0,0,1-1V12h2.17554L9.99985,41H8.50009a1.9999,1.9999,0,0,0-2,2v1h12V43a2.00005,2.00005,0,0,0-2-2H14.99985L13.82431,12h2.17578v1a.99994.99994,0,0,0,1,1h4a1,1,0,0,0,1-1V12ZM12.45871,5.0395A.04133.04133,0,0,1,12.50046,5a.04076.04076,0,0,1,.04077.03937L12.70175,9h-.40356Zm.45093,9.086-.84119.54034.04639-1.14484.79077.50788Zm.15466,3.81518-1.15881.74445.0625-1.54248,1.09241.7019ZM11.805,21.16212l1.427.91668.0039.09638-1.51135.97095Zm-.18091,4.46093,1.79858,1.15552.00391.09625L11.5239,28.09705ZM13.638,32.09083l-2.33691,1.50073.12231-3.01739,2.2107,1.41986Zm-2.43737,3.97766,2.66809,1.71387.0039.09643-2.81884,1.81079ZM11.00083,41l.00354-.0893L13.91965,39.038,13.99912,41Zm2.81836-4.43878-2.57154-1.65192.00391-.09674,2.43335-1.56268ZM13.58457,30.773l-2.11414-1.35785.00391-.09693L13.47348,28.034Zm-1.91333-6.30927.0039-.09637,1.60791-1.033.09009,2.22284Zm1.51135-3.60608L11.852,20.00294l.00391-.09662,1.25537-.8064Zm-.17175-4.23443-.99585-.63983.0039-.0965.93775-.6023Zm-.15467-3.81537-.69433-.44592L12.17649,12h.647Z" transform="translate(0.00071 0)"/><polygon class="cls-3" points="33.501 12 33.501 19 34.501 19.857 34.501 12 33.501 12"/><path class="cls-3" d="M30,18.63422,19.00009,28.06281V44h22V28.06275ZM30.50009,27h5.5v5.5h-5.5Zm-6.5,0h5.5v5.5h-5.5Zm13,13h-14V39h1V33.5h5.5V39h1V33.5h5.5V39h1Z" transform="translate(0.00071 0)"/><path class="cls-2" d="M25.00009,39h3.5V33.5h-3.5Zm0-6.5h3.5V27h-3.5Zm6.49976,6.50024h3.5v-5.5h-3.5Zm0-12v5.5h3.5v-5.5Z" transform="translate(0.00071 0)"/><path class="cls-4" d="M30.00009,16l-14,12,1.30164,1.51855L30,18.63422,42.69846,29.51856,44.00009,28Zm-7,24h14V39h-14Z" transform="translate(0.00071 0)"/><path class="cls-3" d="M12.899,4.07993a1.041,1.041,0,0,1,.64148.91888l.0105.2594L29.64145,9h4.35864c.03321,0,.06421.00873.09717.00983ZM8.00009,7a.98521.98521,0,0,1,.843.49451l2.58374-1.69311.03259-.80256a1.01468,1.01468,0,0,1,.20557-.54888L7.774,7Zm4.56141-2.988a1.03662,1.03662,0,0,1,.291.05719l-.23938-.05567A.46862.46862,0,0,0,12.5615,4.01194Z" transform="translate(0.00071 0)"/></g></svg>