<svg viewBox="0 0 48 48" fill="none" xmlns="http://www.w3.org/2000/svg">
<path d="M19.87 24.056C20.578 24.188 21.16 24.542 21.616 25.118C22.072 25.694 22.3 26.354 22.3 27.098C22.3 27.77 22.132 28.364 21.796 28.88C21.472 29.384 20.998 29.78 20.374 30.068C19.75 30.356 19.012 30.5 18.16 30.5H12.742V17.936H17.926C18.778 17.936 19.51 18.074 20.122 18.35C20.746 18.626 21.214 19.01 21.526 19.502C21.85 19.994 22.012 20.552 22.012 21.176C22.012 21.908 21.814 22.52 21.418 23.012C21.034 23.504 20.518 23.852 19.87 24.056ZM15.262 23.12H17.566C18.166 23.12 18.628 22.988 18.952 22.724C19.276 22.448 19.438 22.058 19.438 21.554C19.438 21.05 19.276 20.66 18.952 20.384C18.628 20.108 18.166 19.97 17.566 19.97H15.262V23.12ZM17.8 28.448C18.412 28.448 18.886 28.304 19.222 28.016C19.57 27.728 19.744 27.32 19.744 26.792C19.744 26.252 19.564 25.832 19.204 25.532C18.844 25.22 18.358 25.064 17.746 25.064H15.262V28.448H17.8ZM30.4464 30.626C29.5704 30.626 28.7784 30.476 28.0704 30.176C27.3744 29.876 26.8224 29.444 26.4144 28.88C26.0064 28.316 25.7964 27.65 25.7844 26.882H28.4844C28.5204 27.398 28.7004 27.806 29.0244 28.106C29.3604 28.406 29.8164 28.556 30.3924 28.556C30.9804 28.556 31.4424 28.418 31.7784 28.142C32.1144 27.854 32.2824 27.482 32.2824 27.026C32.2824 26.654 32.1684 26.348 31.9404 26.108C31.7124 25.868 31.4244 25.682 31.0764 25.55C30.7404 25.406 30.2724 25.25 29.6724 25.082C28.8564 24.842 28.1904 24.608 27.6744 24.38C27.1704 24.14 26.7324 23.786 26.3604 23.318C26.0004 22.838 25.8204 22.202 25.8204 21.41C25.8204 20.666 26.0064 20.018 26.3784 19.466C26.7504 18.914 27.2724 18.494 27.9444 18.206C28.6164 17.906 29.3844 17.756 30.2484 17.756C31.5444 17.756 32.5944 18.074 33.3984 18.71C34.2144 19.334 34.6644 20.21 34.7484 21.338H31.9764C31.9524 20.906 31.7664 20.552 31.4184 20.276C31.0824 19.988 30.6324 19.844 30.0684 19.844C29.5764 19.844 29.1804 19.97 28.8804 20.222C28.5924 20.474 28.4484 20.84 28.4484 21.32C28.4484 21.656 28.5564 21.938 28.7724 22.166C29.0004 22.382 29.2764 22.562 29.6004 22.706C29.9364 22.838 30.4044 22.994 31.0044 23.174C31.8204 23.414 32.4864 23.654 33.0024 23.894C33.5184 24.134 33.9624 24.494 34.3344 24.974C34.7064 25.454 34.8924 26.084 34.8924 26.864C34.8924 27.536 34.7184 28.16 34.3704 28.736C34.0224 29.312 33.5124 29.774 32.8404 30.122C32.1684 30.458 31.3704 30.626 30.4464 30.626Z" fill="#3254C7"/>
</svg>
