<svg viewBox="0 0 48 48" fill="none" xmlns="http://www.w3.org/2000/svg">
<path d="M21.37 24.056C22.078 24.188 22.66 24.542 23.116 25.118C23.572 25.694 23.8 26.354 23.8 27.098C23.8 27.77 23.632 28.364 23.296 28.88C22.972 29.384 22.498 29.78 21.874 30.068C21.25 30.356 20.512 30.5 19.66 30.5H14.242V17.936H19.426C20.278 17.936 21.01 18.074 21.622 18.35C22.246 18.626 22.714 19.01 23.026 19.502C23.35 19.994 23.512 20.552 23.512 21.176C23.512 21.908 23.314 22.52 22.918 23.012C22.534 23.504 22.018 23.852 21.37 24.056ZM16.762 23.12H19.066C19.666 23.12 20.128 22.988 20.452 22.724C20.776 22.448 20.938 22.058 20.938 21.554C20.938 21.05 20.776 20.66 20.452 20.384C20.128 20.108 19.666 19.97 19.066 19.97H16.762V23.12ZM19.3 28.448C19.912 28.448 20.386 28.304 20.722 28.016C21.07 27.728 21.244 27.32 21.244 26.792C21.244 26.252 21.064 25.832 20.704 25.532C20.344 25.22 19.858 25.064 19.246 25.064H16.762V28.448H19.3ZM30.1284 28.502H34.2684V30.5H27.6084V17.936H30.1284V28.502Z" fill="#3254C7"/>
</svg>
