<svg  viewBox="0 0 128 128" fill="none" xmlns="http://www.w3.org/2000/svg">
<path d="M77.245 82.6873V82.5884C73.5776 85.7384 70.1235 89.1284 66.9053 92.7361C70.7406 92.808 74.5747 92.5361 78.3615 91.9238C80.5362 89.3356 83.6162 85.6012 85.6717 82.8212C85.8389 82.5968 85.9412 82.3308 85.9673 82.0522C85.9935 81.7736 85.9425 81.4932 85.8199 81.2417C83.0343 82.0846 80.153 82.5703 77.245 82.6873V82.6873Z" fill="#EB5A76"/>
<path d="M95.0422 87.7566C97.2174 85.3643 99.6067 82.6715 101.327 80.5491C101.501 80.3349 101.615 80.0778 101.656 79.8046C101.697 79.5313 101.664 79.2521 101.56 78.9962C101.456 78.7402 101.285 78.5169 101.065 78.3496C100.845 78.1823 100.584 78.0773 100.31 78.0454C98.1883 77.8873 96.0566 78.1543 94.0395 78.8307C91.1627 79.743 82.7715 87.8507 78.7363 91.8675C84.2863 91.0008 89.7447 89.6247 95.0422 87.7566V87.7566Z" fill="#EB5A76"/>
<path d="M32.6786 89.0993C32.6786 89.0993 35.5084 84.907 47.7703 81.0294C56.0587 78.2354 64.1453 74.8754 71.9732 70.9732C72.211 70.8558 72.4725 70.7946 72.7376 70.7944C73.0027 70.7943 73.2644 70.8551 73.5022 70.9721C73.7401 71.0892 73.9479 71.2594 74.1094 71.4696C74.271 71.6798 74.3821 71.9244 74.434 72.1844C75.0871 75.5353 73.234 79.9628 66.594 83.1606C57.5247 87.5278 60.7674 91.614 64.2258 92.4529C67.6842 93.2918 83.2797 92.8721 99.7543 85.955C109.35 81.9265 113.058 84.4508 114.421 86.3358C114.548 86.5098 114.636 86.7087 114.681 86.9194C114.725 87.1301 114.725 87.3479 114.679 87.5583C114.633 87.7687 114.543 87.967 114.415 88.1401C114.287 88.3132 114.124 88.4573 113.936 88.5628C106.771 92.6374 90.5559 99.7798 80.7978 103.982C75.6492 106.198 70.1129 107.374 64.5079 107.44L19.9442 107.987C19.0742 107.997 18.2107 107.835 17.4038 107.51C16.5969 107.184 15.8627 106.702 15.2437 106.09C14.6247 105.479 14.1333 104.751 13.7979 103.948C13.4626 103.145 13.2899 102.283 13.29 101.413V95.8494C13.29 94.1218 13.9702 92.4635 15.1833 91.2335C16.3965 90.0034 18.0452 89.3005 19.7727 89.2766L32.6786 89.0993Z" fill="#F2CD38"/>
<path d="M95.3662 67.4669C98.1766 67.8741 100.873 68.3735 103.4 68.9589C107.599 63.3804 109.992 56.6515 110.259 49.6743H97.2705C97.2154 55.653 96.5777 61.612 95.3662 67.4669V67.4669Z" fill="#3254C7"/>
<path d="M59.1709 67.0872C64.2562 66.4862 69.3706 66.1641 74.4912 66.1224V49.6738H57.2197C57.2882 55.5288 57.9419 61.3622 59.1709 67.0872V67.0872Z" fill="#3254C7"/>
<path d="M91.9111 78.782C95.4932 76.8843 98.7131 74.3706 101.423 71.3562C99.3511 70.9052 97.1378 70.4975 94.7671 70.1543C94.0337 73.098 93.079 75.9821 91.9111 78.782Z" fill="#3254C7"/>
<path d="M56.9688 70.1543C54.5984 70.4975 52.3861 70.9055 50.3125 71.3562C52.4377 73.7079 54.8744 75.7581 57.5549 77.4498C58.0722 77.2402 58.5834 77.0338 59.0906 76.8228C58.2548 74.643 57.5463 72.4164 56.9688 70.1543V70.1543Z" fill="#3254C7"/>
<path d="M57.2197 46.9197H74.4912V30.4711C69.3707 30.4294 64.2562 30.1075 59.1709 29.5066C57.9418 35.2314 57.2882 41.0648 57.2197 46.9197V46.9197Z" fill="#3254C7"/>
<path d="M59.8135 69.7795C60.3335 71.7932 60.9552 73.7792 61.6761 75.7299C66.0935 73.8203 69.8447 72.0233 71.9748 70.9731C72.2126 70.8557 72.4741 70.7946 72.7392 70.7944C73.0044 70.7942 73.266 70.855 73.5039 70.9721C73.7418 71.0892 73.9496 71.2594 74.1112 71.4696C74.2728 71.6798 74.3839 71.9243 74.4359 72.1843C74.4738 72.3774 74.4716 72.5843 74.4924 72.7846V68.8779C69.5867 68.9125 64.6865 69.2135 59.8135 69.7795V69.7795Z" fill="#3254C7"/>
<path d="M97.2705 46.9195H110.259C109.992 39.9424 107.599 33.2134 103.4 27.635C100.873 28.2217 98.1766 28.7198 95.3662 29.1283C96.5776 34.9828 97.2154 40.9414 97.2705 46.9195Z" fill="#3254C7"/>
<path d="M68.75 81.9709C70.6402 82.3697 72.5605 82.6093 74.4908 82.6872V74.1445C74.2108 75.8065 73.5457 77.3798 72.5489 78.7388C71.5521 80.0978 70.2511 81.2047 68.75 81.9709V81.9709Z" fill="#3254C7"/>
<path d="M88.0051 16.0777C84.5583 14.7807 80.9251 14.0475 77.2451 13.9062V27.7156C82.1509 27.6808 87.0512 27.3797 91.9243 26.8137C90.9949 23.1085 89.6814 19.5103 88.0051 16.0777V16.0777Z" fill="#3254C7"/>
<path d="M56.3695 29.1273C53.5591 28.7198 50.8631 28.2206 48.3365 27.6353C44.1372 33.2135 41.7439 39.9424 41.4775 46.9195H54.4642C54.5196 40.9409 55.1577 34.982 56.3695 29.1273V29.1273Z" fill="#3254C7"/>
<path d="M59.8252 17.8118C56.2434 19.7095 53.0237 22.2229 50.3135 25.2371C52.3863 25.688 54.5985 26.0958 56.9689 26.439C57.7023 23.4954 58.6571 20.6114 59.8252 17.8118V17.8118Z" fill="#3254C7"/>
<path d="M56.3695 67.4669C55.158 61.612 54.5202 55.653 54.4652 49.6743H41.4785C41.745 56.6514 44.138 63.3802 48.3367 68.9589C50.8631 68.3735 53.5591 67.8735 56.3695 67.4669Z" fill="#3254C7"/>
<path d="M74.4912 27.7156V13.9065C70.8113 14.0474 67.1781 14.7807 63.7315 16.078C62.0552 19.5105 60.7414 23.1086 59.8115 26.8137C64.6848 27.3798 69.5853 27.6808 74.4912 27.7156V27.7156Z" fill="#3254C7"/>
<path d="M92.5657 29.5066C87.4802 30.1075 82.3657 30.4295 77.2451 30.4711V46.9197H94.5168C94.4484 41.0648 93.7947 35.2314 92.5657 29.5066V29.5066Z" fill="#3254C7"/>
<path d="M91.9243 69.7795C87.0512 69.2135 82.1509 68.9125 77.2451 68.8779V82.6873C80.9251 82.546 84.5583 81.8128 88.0051 80.5158C89.6812 77.083 90.9947 73.4848 91.9243 69.7795V69.7795Z" fill="#3254C7"/>
<path d="M101.423 25.2371C98.7126 22.2233 95.4928 19.7099 91.9111 17.8118C93.0789 20.6115 94.0336 23.4954 94.7671 26.439C97.1378 26.0958 99.35 25.688 101.423 25.2371Z" fill="#3254C7"/>
<path d="M94.5168 49.6738H77.2451V66.1224C82.3657 66.1641 87.4802 66.4862 92.5657 67.0872C93.7947 61.3622 94.4484 55.5288 94.5168 49.6738V49.6738Z" fill="#3254C7"/>
</svg>
