<svg  viewBox="0 0 128 128" fill="none" xmlns="http://www.w3.org/2000/svg">
<path d="M69.7257 37.7334C69.7121 37.8222 69.699 37.9097 69.6841 37.9963C67.2777 52.8273 54.6463 63.1163 45.5241 61.6366C43.6939 61.2853 41.967 60.5243 40.4727 59.4107C41.1927 68.0683 45.3689 75.4337 50.4609 77.6265C58.9479 81.2817 73.703 74.375 79.647 60.5758C80.2558 59.1625 80.742 57.7374 86.1196 44.7942L69.7257 37.7334ZM62.8156 73.0934C62.7759 73.0985 62.7359 73.1011 62.6958 73.1011C62.4455 73.1009 62.2039 73.009 62.0167 72.8427C61.8295 72.6764 61.7098 72.4473 61.6801 72.1987C61.4921 70.6061 60.8884 69.091 59.9296 67.8055C58.9708 66.52 57.6906 65.5094 56.2177 64.8752C54.7447 64.241 53.1308 64.0055 51.5381 64.1924C49.9453 64.3792 48.4297 64.9819 47.1436 65.9398C47.0357 66.0198 46.9131 66.0778 46.7827 66.1104C46.6524 66.1431 46.517 66.1497 46.3841 66.13C46.2512 66.1103 46.1235 66.0646 46.0083 65.9955C45.893 65.9264 45.7925 65.8353 45.7125 65.7274C45.6325 65.6195 45.5745 65.4969 45.5419 65.3666C45.5093 65.2362 45.5026 65.1008 45.5223 64.9679C45.5421 64.835 45.5878 64.7073 45.6568 64.5921C45.7259 64.4768 45.817 64.3764 45.9249 64.2963C47.4989 63.1248 49.3534 62.3878 51.3023 62.1596C53.2511 61.9313 55.2257 62.2197 57.0279 62.9959C58.83 63.772 60.3963 65.0086 61.5694 66.5814C62.7426 68.1542 63.4814 70.008 63.7116 71.9566C63.7276 72.0901 63.7171 72.2255 63.6808 72.3549C63.6444 72.4844 63.5828 72.6054 63.4996 72.711C63.4163 72.8166 63.3131 72.9047 63.1957 72.9704C63.0783 73.036 62.9491 73.0778 62.8156 73.0934V73.0934ZM75.5916 53.6857C74.7717 54.2959 73.8057 54.6798 72.7906 54.7987C71.7754 54.9176 70.7469 54.7674 69.8081 54.3632C68.8694 53.959 68.0534 53.315 67.4423 52.4958C66.8311 51.6766 66.4461 50.7111 66.326 49.6961C66.2939 49.4267 66.3701 49.1556 66.5378 48.9425C66.7056 48.7293 66.9512 48.5915 67.2205 48.5594C67.4899 48.5273 67.7609 48.6035 67.9741 48.7713C68.1873 48.939 68.3251 49.1846 68.3572 49.4539C68.4348 50.1125 68.6843 50.7391 69.0806 51.2708C69.4769 51.8024 70.0061 52.2205 70.615 52.483C71.224 52.7456 71.8913 52.8433 72.5499 52.7665C73.2086 52.6896 73.8354 52.4408 74.3676 52.0451C74.5853 51.886 74.8571 51.8193 75.1237 51.8594C75.3904 51.8995 75.6305 52.0433 75.7918 52.2594C75.953 52.4756 76.0225 52.7467 75.985 53.0137C75.9475 53.2808 75.8061 53.5223 75.5916 53.6857V53.6857Z" fill="#EB5A76"/>
<path d="M33.1064 14.783C30.6818 28.5872 30.3272 30.0491 30.0802 31.5696C27.6736 46.4003 37.0648 60.263 45.5245 61.6366C54.6461 63.1168 67.2776 52.8272 69.6845 37.9963C69.9312 36.4763 70.0579 34.9766 72.1227 21.1142L33.1064 14.783ZM37.128 30.7374C36.9183 30.5652 36.7854 30.3169 36.7586 30.047C36.7317 29.777 36.8131 29.5074 36.9848 29.2974C37.6317 28.5065 38.4752 27.8997 39.4307 27.5377C40.3861 27.1758 41.42 27.0714 42.4285 27.2351C43.4371 27.3988 44.3848 27.8248 45.1768 28.4704C45.9687 29.116 46.5769 29.9585 46.9405 30.9134C46.9898 31.0392 47.0136 31.1735 47.0107 31.3085C47.0078 31.4436 46.9781 31.5767 46.9234 31.7003C46.8688 31.8238 46.7902 31.9353 46.6922 32.0283C46.5942 32.1213 46.4788 32.194 46.3525 32.2421C46.2263 32.2903 46.0918 32.3129 45.9568 32.3088C45.8217 32.3047 45.6889 32.2739 45.5658 32.2181C45.4428 32.1623 45.332 32.0828 45.2398 31.984C45.1477 31.8851 45.0761 31.7691 45.029 31.6424C44.7933 31.0226 44.3986 30.4756 43.8846 30.0565C43.3706 29.6374 42.7554 29.3609 42.1008 29.2547C41.4462 29.1486 40.7751 29.2164 40.155 29.4516C39.5349 29.6867 38.9876 30.0809 38.568 30.5944C38.3959 30.8042 38.1476 30.9371 37.8776 30.9639C37.6075 30.9907 37.3379 30.9092 37.128 30.7374V30.7374ZM57.6461 48.9171C56.4044 50.4365 54.7849 51.6026 52.9501 52.2982C51.1154 52.9939 49.1299 53.1947 47.1929 52.8804C45.256 52.5662 43.4359 51.7479 41.9151 50.5079C40.3944 49.2678 39.2266 47.6495 38.529 45.8155C38.4323 45.562 38.4403 45.2805 38.5511 45.0329C38.662 44.7853 38.8666 44.5918 39.1201 44.4951C39.3736 44.3984 39.6551 44.4063 39.9027 44.5172C40.1503 44.628 40.3438 44.8327 40.4405 45.0862C41.0103 46.5852 41.9645 47.908 43.2073 48.9216C44.4501 49.9352 45.9377 50.6039 47.5207 50.8606C49.1038 51.1173 50.7265 50.953 52.2259 50.384C53.7253 49.8151 55.0486 48.8617 56.0629 47.6195C56.1473 47.5131 56.252 47.4246 56.3709 47.3591C56.4898 47.2936 56.6205 47.2525 56.7555 47.238C56.8905 47.2235 57.027 47.236 57.1571 47.2748C57.2872 47.3136 57.4083 47.3779 57.5133 47.4639C57.6183 47.5499 57.7052 47.656 57.7688 47.7759C57.8324 47.8959 57.8715 48.0272 57.8839 48.1624C57.8963 48.2976 57.8816 48.4339 57.8408 48.5634C57.8 48.6929 57.7338 48.8129 57.6461 48.9166V48.9171ZM63.2634 34.9768C63.1379 35.025 63.0042 35.0478 62.8698 35.0441C62.7354 35.0405 62.6031 35.0103 62.4804 34.9554C62.3578 34.9005 62.2471 34.8219 62.1549 34.7241C62.0626 34.6263 61.9906 34.5113 61.9429 34.3856C61.7072 33.7654 61.3124 33.2181 60.7983 32.7987C60.2841 32.3793 59.6686 32.1026 59.0136 31.9964C58.3586 31.8902 57.6872 31.9583 57.0669 32.1937C56.4465 32.4291 55.8991 32.8236 55.4794 33.3376C55.3951 33.444 55.2904 33.5325 55.1715 33.598C55.0526 33.6635 54.9218 33.7047 54.7868 33.7191C54.6518 33.7336 54.5153 33.7211 54.3852 33.6823C54.2551 33.6435 54.1341 33.5793 54.0291 33.4932C53.924 33.4072 53.8372 33.3011 53.7736 33.1812C53.7099 33.0613 53.6708 32.9299 53.6584 32.7947C53.6461 32.6595 53.6607 32.5232 53.7016 32.3937C53.7424 32.2643 53.8086 32.1442 53.8962 32.0406C54.5432 31.2493 55.3868 30.642 56.3425 30.2798C57.2983 29.9176 58.3325 29.8131 59.3413 29.9768C60.3502 30.1405 61.2983 30.5667 62.0904 31.2126C62.8826 31.8584 63.4909 32.7013 63.8544 33.6566C63.951 33.91 63.943 34.1914 63.8322 34.439C63.7214 34.6866 63.5168 34.88 63.2634 34.9768V34.9768Z" fill="#3254C7"/>
<path d="M37.1274 30.7375C36.9177 30.5653 36.7848 30.317 36.758 30.0471C36.7311 29.7771 36.8125 29.5075 36.9842 29.2975C37.6311 28.5066 38.4746 27.8998 39.4301 27.5378C40.3856 27.1759 41.4194 27.0715 42.4279 27.2352C43.4365 27.3989 44.3843 27.8249 45.1762 28.4705C45.9681 29.1161 46.5764 29.9586 46.9399 30.9135C46.9892 31.0393 47.013 31.1736 47.0101 31.3086C47.0072 31.4437 46.9775 31.5768 46.9229 31.7004C46.8682 31.8239 46.7896 31.9354 46.6916 32.0284C46.5936 32.1214 46.4782 32.1941 46.352 32.2422C46.2257 32.2904 46.0912 32.313 45.9562 32.3089C45.8212 32.3048 45.6883 32.2739 45.5652 32.2182C45.4422 32.1624 45.3314 32.0829 45.2393 31.9841C45.1471 31.8852 45.0755 31.7692 45.0284 31.6425C44.7927 31.0227 44.398 30.4757 43.884 30.0566C43.37 29.6375 42.7548 29.361 42.1002 29.2548C41.4456 29.1487 40.7745 29.2165 40.1544 29.4517C39.5343 29.6868 38.987 30.081 38.5674 30.5945C38.3953 30.8043 38.147 30.9372 37.877 30.964C37.6069 30.9908 37.3373 30.9093 37.1274 30.7375V30.7375Z" fill="white"/>
<path d="M57.6462 48.9172C56.4045 50.4366 54.785 51.6027 52.9502 52.2983C51.1154 52.994 49.1299 53.1948 47.193 52.8805C45.2561 52.5663 43.4359 51.748 41.9152 50.508C40.3945 49.2679 39.2267 47.6496 38.5291 45.8156C38.4324 45.5621 38.4403 45.2806 38.5512 45.033C38.662 44.7853 38.8667 44.5919 39.1202 44.4952C39.3737 44.3985 39.6552 44.4064 39.9028 44.5173C40.1504 44.6281 40.3439 44.8328 40.4406 45.0863C41.0104 46.5853 41.9646 47.9081 43.2074 48.9217C44.4502 49.9353 45.9378 50.604 47.5208 50.8607C49.1038 51.1174 50.7265 50.953 52.2259 50.3841C53.7254 49.8152 55.0487 48.8618 56.063 47.6196C56.1474 47.5132 56.252 47.4247 56.371 47.3592C56.4899 47.2937 56.6206 47.2525 56.7556 47.2381C56.8906 47.2236 57.0271 47.2361 57.1572 47.2749C57.2873 47.3137 57.4084 47.378 57.5134 47.464C57.6184 47.55 57.7052 47.6561 57.7689 47.776C57.8325 47.8959 57.8716 48.0273 57.884 48.1625C57.8963 48.2977 57.8817 48.434 57.8408 48.5635C57.8 48.6929 57.7339 48.813 57.6462 48.9167V48.9172Z" fill="white"/>
<path d="M63.2635 34.9769C63.138 35.025 63.0043 35.0479 62.8699 35.0442C62.7355 35.0406 62.6032 35.0104 62.4805 34.9555C62.3579 34.9005 62.2472 34.8219 62.155 34.7242C62.0627 34.6264 61.9907 34.5114 61.943 34.3857C61.7073 33.7655 61.3125 33.2182 60.7984 32.7988C60.2842 32.3794 59.6687 32.1027 59.0137 31.9965C58.3587 31.8903 57.6873 31.9583 57.067 32.1938C56.4466 32.4292 55.8992 32.8237 55.4795 33.3377C55.3952 33.4441 55.2905 33.5326 55.1716 33.5981C55.0527 33.6636 54.9219 33.7048 54.7869 33.7192C54.6519 33.7337 54.5154 33.7212 54.3853 33.6824C54.2552 33.6436 54.1342 33.5793 54.0292 33.4933C53.9241 33.4073 53.8373 33.3012 53.7737 33.1813C53.71 33.0614 53.6709 32.93 53.6585 32.7948C53.6462 32.6596 53.6608 32.5233 53.7017 32.3938C53.7425 32.2644 53.8087 32.1443 53.8963 32.0406C54.5433 31.2494 55.3869 30.6421 56.3426 30.2799C57.2984 29.9176 58.3326 29.8131 59.3414 29.9769C60.3503 30.1406 61.2984 30.5668 62.0905 31.2126C62.8827 31.8585 63.491 32.7014 63.8545 33.6566C63.9511 33.9101 63.9431 34.1915 63.8323 34.4391C63.7215 34.6867 63.5169 34.8801 63.2635 34.9769V34.9769Z" fill="white"/>
<path d="M100.137 31.7756C99.5418 32.4472 98.8675 33.0444 98.1289 33.5543C97.3859 34.0885 96.5662 34.5069 95.6977 34.7953C94.7398 35.1095 93.7186 35.1801 92.7265 35.0007C91.7795 34.7939 90.9005 34.3501 90.1719 33.7108L91.7551 31.5463C92.1457 31.7667 92.5913 31.8709 93.0392 31.8465C93.4871 31.8221 93.9187 31.6701 94.2831 31.4084C94.7129 31.122 95.0998 30.7758 95.4321 30.3804C95.7867 29.9828 96.0923 29.5442 96.3423 29.0737L100.137 31.7756Z" fill="#2D5CDA"/>
<path d="M52.3943 99.7127C48.938 93.6593 44.57 86.3433 40.4209 79.7214L34.8975 82.5068C38.1847 89.6268 41.9375 97.3353 45.1143 103.592C46.9308 107.169 50.1748 109.217 52.2479 108.092C54.3079 106.973 54.3708 103.175 52.3943 99.7127Z" fill="#3254C7"/>
<path d="M28.1468 61.9363C27.7414 62.2972 27.2554 62.5556 26.7295 62.6899C28.9333 69.4986 31.6326 76.1369 34.8058 82.5515L40.4724 79.6952C36.8055 73.481 32.6858 67.5453 28.1468 61.9363V61.9363Z" fill="#F2CD38"/>
<path d="M29.0152 55.159C29.7649 56.3146 30.0298 57.7188 29.7528 59.0682C29.4757 60.4176 28.6788 61.6037 27.5344 62.3704C26.2679 62.9122 24.8391 62.9339 23.5567 62.4308C22.2743 61.9277 21.2414 60.9403 20.6811 59.6819C19.1973 56.948 18.5088 45.7395 18.5088 45.7395C18.5088 45.7395 27.5315 52.4251 29.0152 55.159Z" fill="#3254C7"/>
<path d="M103.511 49.6334L105.614 51.0014L113.45 38.9563C114.825 36.8428 115.304 34.2696 114.782 31.8029C114.259 29.3361 112.779 27.1778 110.665 25.8027C109.743 25.0662 108.677 24.5314 107.535 24.2329C106.394 23.9343 105.202 23.8787 104.038 24.0696C102.873 24.2605 101.762 24.6936 100.776 25.3411C99.7891 25.9885 98.9494 26.8358 98.311 27.8281L97.0283 29.5614L99.6443 31.4243C100.222 30.6425 100.859 29.9062 101.55 29.2219C104.121 26.8841 109.157 31.3481 106.194 34.7507L65.2902 85.906C63.7966 87.7738 62.7104 89.9336 62.1017 92.2463C61.4929 94.5591 61.3749 96.9737 61.7553 99.3349C62.1357 101.696 63.0061 103.951 64.3105 105.956C65.6149 107.96 67.3244 109.67 69.3291 110.974C70.9313 112.016 72.7231 112.733 74.6022 113.083C76.4813 113.433 78.411 113.409 80.2809 113.013C82.1509 112.617 83.9246 111.857 85.5008 110.776C87.0769 109.694 88.4246 108.313 89.467 106.711L90.2294 105.539C92.1465 102.592 94.9848 100.363 98.3016 99.198L106.88 96.1846L102.443 75.23L98.5848 77.2876C93.1823 80.1684 88.5976 84.3709 85.2587 89.503L81.5296 95.2364C81.2425 95.6676 80.7968 95.9682 80.2893 96.0728C79.7819 96.1774 79.2536 96.0775 78.8193 95.795C78.3851 95.5124 78.0798 95.0699 77.9698 94.5636C77.8599 94.0573 77.9541 93.528 78.232 93.0908L100.583 58.7345L98.4806 57.3668C98.2955 57.2464 98.136 57.0907 98.0111 56.9087C97.8862 56.7267 97.7984 56.5218 97.7527 56.3059C97.707 56.0899 97.7042 55.867 97.7446 55.65C97.785 55.433 97.8678 55.2261 97.9882 55.041C98.1085 54.856 98.2642 54.6965 98.4462 54.5716C98.6282 54.4467 98.8331 54.3589 99.0491 54.3131C99.265 54.2674 99.4879 54.2647 99.7049 54.3051C99.9219 54.3455 100.129 54.4282 100.314 54.5486L102.416 55.9166L103.781 53.8193L101.678 52.4515C101.304 52.2084 101.042 51.8268 100.95 51.3907C100.858 50.9545 100.942 50.4995 101.185 50.1258C101.429 49.7521 101.81 49.4903 102.246 49.3979C102.683 49.3056 103.138 49.3903 103.511 49.6334H103.511ZM83.2707 72.5449C83.0894 72.8233 82.8297 73.0417 82.5243 73.1725C82.2189 73.3033 81.8816 73.3406 81.555 73.2797C81.2284 73.2188 80.9272 73.0625 80.6895 72.8304C80.4517 72.5984 80.2881 72.3011 80.2193 71.9761C80.1505 71.6511 80.1796 71.313 80.3029 71.0045C80.4262 70.696 80.6383 70.431 80.9122 70.243C81.1861 70.055 81.5095 69.9525 81.8417 69.9483C82.1739 69.9441 82.4999 70.0385 82.7784 70.2196C82.9634 70.3399 83.1229 70.4956 83.2478 70.6776C83.3726 70.8596 83.4604 71.0644 83.506 71.2804C83.5516 71.4963 83.5543 71.7192 83.5138 71.9361C83.4733 72.1531 83.3904 72.36 83.2699 72.5449H83.2707ZM86.2224 68.0078C86.0411 68.2862 85.7813 68.5045 85.4759 68.6352C85.1705 68.7659 84.8332 68.8032 84.5066 68.7423C84.1801 68.6813 83.8789 68.525 83.6412 68.2929C83.4035 68.0608 83.2399 67.7635 83.1712 67.4385C83.1024 67.1135 83.1316 66.7754 83.2549 66.4669C83.3783 66.1585 83.5903 65.8935 83.8642 65.7056C84.1381 65.5176 84.4616 65.4151 84.7938 65.4109C85.126 65.4067 85.4519 65.5012 85.7304 65.6822C85.9155 65.8026 86.0749 65.9583 86.1998 66.1403C86.3246 66.3224 86.4124 66.5272 86.458 66.7432C86.5036 66.9592 86.5062 67.1821 86.4656 67.399C86.4251 67.616 86.3422 67.8229 86.2216 68.0078H86.2224ZM89.1744 63.4705C88.9931 63.7488 88.7334 63.9672 88.428 64.098C88.1226 64.2287 87.7853 64.266 87.4587 64.2051C87.1322 64.1442 86.831 63.9878 86.5933 63.7558C86.3555 63.5238 86.1919 63.2265 86.1231 62.9015C86.0543 62.5765 86.0835 62.2384 86.2068 61.9299C86.3301 61.6214 86.5421 61.3565 86.816 61.1685C87.0898 60.9805 87.4133 60.8779 87.7455 60.8737C88.0777 60.8695 88.4036 60.9639 88.6822 61.1449C88.8672 61.2652 89.0267 61.4209 89.1516 61.6029C89.2765 61.785 89.3642 61.9899 89.4099 62.2058C89.4555 62.4218 89.4581 62.6447 89.4176 62.8617C89.3771 63.0787 89.2942 63.2855 89.1736 63.4705H89.1744Z" fill="#F2CD38"/>
<path d="M107.893 98.5617C107.705 98.44 107.544 98.2825 107.417 98.0982C107.291 97.9138 107.202 97.7063 107.156 97.4876L102.036 73.2993C101.945 72.8588 102.033 72.4006 102.28 72.0245C102.526 71.6484 102.911 71.3851 103.351 71.292C103.791 71.1989 104.25 71.2836 104.628 71.5276C105.005 71.7715 105.271 72.155 105.367 72.5943L110.487 96.7823C110.557 97.1117 110.527 97.4544 110.402 97.7671C110.277 98.0798 110.063 98.3484 109.785 98.5389C109.507 98.7294 109.179 98.8332 108.842 98.8373C108.506 98.8414 108.175 98.7455 107.893 98.5617H107.893Z" fill="#3254C7"/>
<path d="M83.2695 72.5447C83.0882 72.8231 82.8284 73.0415 82.5231 73.1723C82.2177 73.3031 81.8804 73.3404 81.5538 73.2796C81.2272 73.2187 80.926 73.0623 80.6882 72.8303C80.4505 72.5983 80.2869 72.301 80.2181 71.9759C80.1493 71.6509 80.1784 71.3128 80.3017 71.0043C80.425 70.6959 80.637 70.4309 80.9109 70.2429C81.1848 70.0549 81.5083 69.9523 81.8405 69.9481C82.1727 69.944 82.4987 70.0384 82.7772 70.2194C82.9623 70.3397 83.1218 70.4953 83.2467 70.6773C83.3717 70.8593 83.4595 71.0641 83.5052 71.2801C83.5509 71.496 83.5536 71.7189 83.5132 71.9359C83.4727 72.1529 83.3899 72.3598 83.2695 72.5447V72.5447Z" fill="white"/>
<path d="M86.2214 68.0077C86.0401 68.286 85.7803 68.5044 85.4749 68.6351C85.1695 68.7658 84.8322 68.8031 84.5056 68.7421C84.1791 68.6812 83.8779 68.5248 83.6402 68.2928C83.4025 68.0607 83.2389 67.7634 83.1702 67.4384C83.1014 67.1134 83.1306 66.7753 83.2539 66.4668C83.3773 66.1584 83.5893 65.8934 83.8632 65.7054C84.1371 65.5175 84.4606 65.4149 84.7928 65.4108C85.1249 65.4066 85.4509 65.501 85.7294 65.6821C85.9145 65.8024 86.0741 65.958 86.199 66.1401C86.3239 66.3221 86.4117 66.5269 86.4574 66.7429C86.5031 66.9589 86.5058 67.1818 86.4653 67.3988C86.4248 67.6158 86.3419 67.8227 86.2214 68.0077V68.0077Z" fill="white"/>
<path d="M89.1737 63.4705C88.9923 63.7488 88.7326 63.9672 88.4272 64.0979C88.1218 64.2287 87.7845 64.266 87.458 64.2051C87.1314 64.1442 86.8302 63.9878 86.5925 63.7558C86.3548 63.5237 86.1911 63.2264 86.1224 62.9014C86.0536 62.5764 86.0827 62.2383 86.206 61.9299C86.3293 61.6214 86.5413 61.3565 86.8152 61.1685C87.0891 60.9805 87.4125 60.8779 87.7447 60.8737C88.0769 60.8695 88.4028 60.9638 88.6814 61.1449C88.8665 61.2652 89.0261 61.4208 89.151 61.6028C89.276 61.7848 89.3638 61.9896 89.4095 62.2056C89.4553 62.4216 89.458 62.6445 89.4175 62.8615C89.377 63.0785 89.2941 63.2855 89.1737 63.4705V63.4705Z" fill="white"/>
<path d="M62.8151 73.0935C62.7754 73.0986 62.7354 73.1012 62.6953 73.1012C62.445 73.101 62.2034 73.0091 62.0162 72.8428C61.829 72.6765 61.7093 72.4474 61.6796 72.1988C61.4916 70.6062 60.8879 69.0911 59.9291 67.8056C58.9703 66.5201 57.6901 65.5095 56.2172 64.8753C54.7442 64.2411 53.1303 64.0056 51.5376 64.1925C49.9448 64.3793 48.4292 64.982 47.1431 65.9399C47.0352 66.0199 46.9126 66.0779 46.7822 66.1105C46.6519 66.1432 46.5164 66.1498 46.3836 66.1301C46.2507 66.1104 46.123 66.0647 46.0077 65.9956C45.8925 65.9265 45.792 65.8354 45.712 65.7275C45.632 65.6196 45.574 65.497 45.5414 65.3667C45.5088 65.2363 45.5021 65.1009 45.5218 64.968C45.5415 64.8351 45.5873 64.7074 45.6563 64.5922C45.7254 64.477 45.8165 64.3765 45.9244 64.2964C47.4984 63.1249 49.3529 62.388 51.3018 62.1597C53.2506 61.9314 55.2252 62.2198 57.0274 62.996C58.8295 63.7721 60.3958 65.0087 61.5689 66.5815C62.7421 68.1543 63.4809 70.0081 63.7111 71.9567C63.7271 72.0902 63.7166 72.2256 63.6802 72.355C63.6439 72.4845 63.5823 72.6055 63.499 72.7111C63.4158 72.8167 63.3125 72.9048 63.1952 72.9705C63.0778 73.0361 62.9486 73.0779 62.8151 73.0935V73.0935Z" fill="white"/>
<path d="M75.5912 53.6864C74.7713 54.2967 73.8053 54.6805 72.7901 54.7995C71.775 54.9184 70.7464 54.7682 69.8077 54.364C68.8689 53.9598 68.053 53.3158 67.4418 52.4966C66.8306 51.6774 66.4457 50.7118 66.3256 49.6968C66.2934 49.4275 66.3696 49.1564 66.5374 48.9432C66.7052 48.7301 66.9507 48.5923 67.2201 48.5602C67.4894 48.5281 67.7605 48.6043 67.9737 48.772C68.1868 48.9398 68.3246 49.1854 68.3568 49.4547C68.4344 50.1133 68.6839 50.7398 69.0802 51.2715C69.4765 51.8032 70.0057 52.2213 70.6146 52.4838C71.2236 52.7464 71.8908 52.8441 72.5495 52.7672C73.2082 52.6904 73.835 52.4416 74.3672 52.0459C74.5849 51.8868 74.8566 51.82 75.1233 51.8602C75.39 51.9003 75.6301 52.0441 75.7913 52.2602C75.9526 52.4764 76.0221 52.7474 75.9846 53.0145C75.9471 53.2816 75.8057 53.523 75.5912 53.6864Z" fill="white"/>
</svg>
