<svg  viewBox="0 0 128 128" fill="none" xmlns="http://www.w3.org/2000/svg">
<path d="M108.034 72.5806H71.634C70.898 75.2126 69.4985 77.6115 67.5695 79.5474C65.6404 81.4834 63.2465 82.8915 60.6172 83.6368V104.698H111.69V76.2363C111.69 75.2667 111.305 74.3369 110.619 73.6513C109.933 72.9657 109.004 72.5806 108.034 72.5806V72.5806Z" fill="#EB5A76"/>
<path d="M55.459 104.698H116.848V106.306C116.848 107.32 116.445 108.293 115.727 109.01C115.01 109.728 114.037 110.131 113.022 110.131H59.2841C58.2696 110.131 57.2967 109.728 56.5793 109.01C55.862 108.293 55.459 107.32 55.459 106.306V104.698Z" fill="#F2CD38"/>
<path opacity="0.15" d="M84.4522 104.699L92.7429 72.5813H73.7562L65.4629 104.699H84.4522Z" fill="white"/>
<path d="M17.5185 49.812C19.6031 49.812 21.2929 48.1221 21.2929 46.0376C21.2929 43.953 19.6031 42.2632 17.5185 42.2632C15.434 42.2632 13.7441 43.953 13.7441 46.0376C13.7441 48.1221 15.434 49.812 17.5185 49.812Z" fill="#F2CD38"/>
<path d="M69.1819 68.9753C67.4809 70.5094 65.2979 68.7139 65.2979 65.7827V59.2025H64.0907C63.227 59.2025 62.3717 59.0324 61.5736 58.7019C60.7756 58.3713 60.0505 57.8868 59.4398 57.2761C58.829 56.6653 58.3445 55.9402 58.014 55.1422C57.6835 54.3442 57.5134 53.4889 57.5134 52.6251V52.4086C57.1046 52.3771 56.6955 52.3462 56.279 52.3462H31.8987C27.6681 52.3462 23.6108 54.0268 20.6193 57.0183C17.6279 60.0097 15.9473 64.0671 15.9473 68.2977C15.9473 72.5283 17.6279 76.5856 20.6193 79.577C23.6108 82.5685 27.6681 84.2491 31.8987 84.2491H56.279C58.5625 84.2651 60.8225 83.7871 62.9041 82.848C64.9856 81.9089 66.8396 80.5309 68.3388 78.8084C69.8381 77.0859 70.9472 75.0596 71.5902 72.8684C72.2332 70.6772 72.3948 68.3729 72.0641 66.1134C70.9881 67.2414 69.9822 68.2539 69.1819 68.9753Z" fill="#EB5A76"/>
<path d="M65.2984 65.7826V59.2024H64.0912C62.8935 59.1993 61.7195 58.868 60.6969 58.2444C59.6744 57.6209 58.8423 56.7289 58.2912 55.6656C57.6932 55.56 57.0883 55.4991 56.4813 55.4832H31.6973C30.0709 55.4832 28.4604 55.8036 26.9578 56.426C25.4551 57.0485 24.0898 57.9608 22.9398 59.1108C21.7898 60.2609 20.8775 61.6263 20.2552 63.1289C19.6328 64.6315 19.3125 66.2421 19.3125 67.8685V68.7269C19.3125 70.3533 19.6328 71.9638 20.2552 73.4665C20.8775 74.9691 21.7898 76.3344 22.9398 77.4845C24.0898 78.6346 25.4551 79.5469 26.9578 80.1694C28.4604 80.7918 30.0709 81.1122 31.6973 81.1122H56.4813C59.6774 81.1083 62.7478 79.8665 65.0481 77.6474C67.3483 75.4284 68.6996 72.4046 68.8184 69.2106C67.185 70.2176 65.2984 68.5101 65.2984 65.7826Z" fill="#3254C7"/>
<path d="M54.442 52.3468C53.9263 49.9849 52.6185 47.8704 50.7355 46.3542C48.8525 44.8379 46.5077 44.0112 44.0901 44.0112C41.6726 44.0112 39.3278 44.8379 37.4448 46.3542C35.5618 47.8704 34.254 49.9849 33.7383 52.3468H54.442Z" fill="#3254C7"/>
<path d="M54.6986 84.249H33.4805V95.5978H54.6986V84.249Z" fill="#3254C7"/>
<path d="M15.8665 49.4172V59.826C14.5188 60.1758 13.3251 60.9624 12.4721 62.0628C11.6191 63.1632 11.155 64.5153 11.1523 65.9076V70.4375C11.1523 72.1112 11.8172 73.7163 13.0006 74.8997C14.184 76.0832 15.7891 76.7481 17.4627 76.7482H18.3873C16.6689 74.0196 15.8232 70.832 15.9627 67.6104C16.1022 64.3888 17.2203 61.2863 19.1681 58.7164V49.4172C18.6566 49.677 18.091 49.8124 17.5173 49.8124C16.9436 49.8124 16.378 49.677 15.8665 49.4172V49.4172Z" fill="#3254C7"/>
<path d="M32.886 74.7541C36.4517 74.7541 39.3422 71.8635 39.3422 68.2978C39.3422 64.7321 36.4517 61.8416 32.886 61.8416C29.3203 61.8416 26.4297 64.7321 26.4297 68.2978C26.4297 71.8635 29.3203 74.7541 32.886 74.7541Z" fill="#F2CD38"/>
<path d="M32.8862 71.8032C34.8221 71.8032 36.3915 70.2338 36.3915 68.2978C36.3915 66.3619 34.8221 64.7925 32.8862 64.7925C30.9503 64.7925 29.3809 66.3619 29.3809 68.2978C29.3809 70.2338 30.9503 71.8032 32.8862 71.8032Z" fill="white"/>
<path d="M55.2942 74.7541C58.8599 74.7541 61.7504 71.8635 61.7504 68.2978C61.7504 64.7321 58.8599 61.8416 55.2942 61.8416C51.7285 61.8416 48.8379 64.7321 48.8379 68.2978C48.8379 71.8635 51.7285 74.7541 55.2942 74.7541Z" fill="#F2CD38"/>
<path d="M55.2944 71.8032C57.2303 71.8032 58.7997 70.2338 58.7997 68.2978C58.7997 66.3619 57.2303 64.7925 55.2944 64.7925C53.3585 64.7925 51.7891 66.3619 51.7891 68.2978C51.7891 70.2338 53.3585 71.8032 55.2944 71.8032Z" fill="white"/>
<path d="M64.6641 30.6447C64.6641 26.6148 66.7814 23.7761 70.1121 23.7761C73.4611 23.7761 75.5809 26.6148 75.5809 30.6447C75.5809 34.6745 73.4611 37.5132 70.1121 37.5132C66.7814 37.5132 64.6641 34.6745 64.6641 30.6447ZM72.2137 30.6447C72.2137 28.3737 71.5131 26.8412 70.1121 26.8412C68.7318 26.8412 68.0321 28.3737 68.0321 30.6447C68.0321 32.9156 68.7326 34.4481 70.1121 34.4481C71.5131 34.4481 72.2134 32.9156 72.2134 30.6447H72.2137Z" fill="#3254C7"/>
<path d="M82.5289 23.6445V37.2669H79.1798V28.3555L77.0998 29.1875L76.6641 26.1797L82.5289 23.6445Z" fill="#3254C7"/>
<path d="M84.4062 30.6447C84.4062 26.6148 86.5233 23.7761 89.854 23.7761C93.2031 23.7761 95.3228 26.6148 95.3228 30.6447C95.3228 34.6745 93.2031 37.5132 89.854 37.5132C86.5233 37.5132 84.4062 34.6745 84.4062 30.6447ZM91.9556 30.6447C91.9556 28.3737 91.2551 26.8412 89.854 26.8412C88.474 26.8412 87.774 28.3737 87.774 30.6447C87.774 32.9156 88.4745 34.4481 89.854 34.4481C91.2551 34.4481 91.9556 32.9156 91.9556 30.6447Z" fill="#3254C7"/>
<path d="M72.4929 39.509V53.1314H69.1438V44.22L67.0638 45.052L66.6289 42.0442L72.4929 39.509Z" fill="#3254C7"/>
<path d="M81.2192 39.509V53.1314H77.8704V44.22L75.7904 45.052L75.3555 42.0442L81.2192 39.509Z" fill="#3254C7"/>
<path d="M84.1738 46.5092C84.1738 42.4793 86.2912 39.6406 89.6218 39.6406C92.9709 39.6406 95.0906 42.4793 95.0906 46.5092C95.0906 50.539 92.9709 53.3777 89.6218 53.3777C86.2912 53.3777 84.1738 50.539 84.1738 46.5092ZM91.7234 46.5092C91.7234 44.2385 91.0229 42.7057 89.6218 42.7057C88.2416 42.7057 87.5418 44.2385 87.5418 46.5092C87.5418 48.7798 88.2424 50.3126 89.6218 50.3126C91.0229 50.3126 91.7234 48.7801 91.7234 46.5092Z" fill="#3254C7"/>
<path d="M95.8971 17.8694H64.091C63.2273 17.8693 62.372 18.0394 61.574 18.37C60.776 18.7005 60.0509 19.1849 59.4401 19.7957C58.8294 20.4064 58.3449 21.1315 58.0143 21.9295C57.6838 22.7274 57.5137 23.5827 57.5137 24.4465V52.6251C57.5136 53.4889 57.6837 54.3442 58.0143 55.1422C58.3448 55.9402 58.8293 56.6653 59.4401 57.2761C60.0508 57.8868 60.7759 58.3713 61.5739 58.7018C62.3719 59.0324 63.2273 59.2025 64.091 59.2024H65.2982V65.7827C65.2982 68.7139 67.4811 70.5094 69.1822 68.9752C71.5443 66.8451 75.6419 62.2768 78.3385 59.2024H95.8971C96.7609 59.2025 97.6162 59.0324 98.4142 58.7018C99.2122 58.3713 99.9373 57.8868 100.548 57.2761C101.159 56.6653 101.643 55.9402 101.974 55.1422C102.304 54.3442 102.475 53.4889 102.474 52.6251V24.4465C102.474 23.5827 102.304 22.7274 101.974 21.9295C101.643 21.1315 101.159 20.4064 100.548 19.7957C99.9372 19.1849 99.2122 18.7005 98.4142 18.37C97.6162 18.0394 96.7609 17.8693 95.8971 17.8694V17.8694Z" fill="#F2CD38"/>
<path d="M64.6641 30.6447C64.6641 26.6148 66.7814 23.7761 70.1121 23.7761C73.4611 23.7761 75.5809 26.6148 75.5809 30.6447C75.5809 34.6745 73.4611 37.5132 70.1121 37.5132C66.7814 37.5132 64.6641 34.6745 64.6641 30.6447ZM72.2137 30.6447C72.2137 28.3737 71.5131 26.8412 70.1121 26.8412C68.7318 26.8412 68.0321 28.3737 68.0321 30.6447C68.0321 32.9156 68.7326 34.4481 70.1121 34.4481C71.5131 34.4481 72.2134 32.9156 72.2134 30.6447H72.2137Z" fill="#3254C7"/>
<path d="M82.5289 23.6445V37.2669H79.1798V28.3555L77.0998 29.1875L76.6641 26.1797L82.5289 23.6445Z" fill="#3254C7"/>
<path d="M84.4062 30.6447C84.4062 26.6148 86.5233 23.7761 89.854 23.7761C93.2031 23.7761 95.3228 26.6148 95.3228 30.6447C95.3228 34.6745 93.2031 37.5132 89.854 37.5132C86.5233 37.5132 84.4062 34.6745 84.4062 30.6447ZM91.9556 30.6447C91.9556 28.3737 91.2551 26.8412 89.854 26.8412C88.474 26.8412 87.774 28.3737 87.774 30.6447C87.774 32.9156 88.4745 34.4481 89.854 34.4481C91.2551 34.4481 91.9556 32.9156 91.9556 30.6447Z" fill="#3254C7"/>
<path d="M72.4929 39.509V53.1314H69.1438V44.22L67.0638 45.052L66.6289 42.0442L72.4929 39.509Z" fill="#3254C7"/>
<path d="M81.2192 39.509V53.1314H77.8704V44.22L75.7904 45.052L75.3555 42.0442L81.2192 39.509Z" fill="#3254C7"/>
<path d="M84.1738 46.5092C84.1738 42.4793 86.2912 39.6406 89.6218 39.6406C92.9709 39.6406 95.0906 42.4793 95.0906 46.5092C95.0906 50.539 92.9709 53.3777 89.6218 53.3777C86.2912 53.3777 84.1738 50.539 84.1738 46.5092ZM91.7234 46.5092C91.7234 44.2385 91.0229 42.7057 89.6218 42.7057C88.2416 42.7057 87.5418 44.2385 87.5418 46.5092C87.5418 48.7798 88.2424 50.3126 89.6218 50.3126C91.0229 50.3126 91.7234 48.7801 91.7234 46.5092Z" fill="#3254C7"/>
</svg>
