<svg  viewBox="0 0 128 128" fill="none" xmlns="http://www.w3.org/2000/svg">
<path d="M32.6796 89.0993C32.6796 89.0993 35.5094 84.907 47.7713 81.0294C56.0596 78.2354 64.1463 74.8754 71.9742 70.9732C72.2119 70.8558 72.4735 70.7946 72.7386 70.7944C73.0037 70.7943 73.2653 70.8551 73.5032 70.9721C73.7411 71.0892 73.9488 71.2594 74.1104 71.4696C74.272 71.6798 74.3831 71.9244 74.435 72.1844C75.0881 75.5353 73.235 79.9628 66.595 83.1606C57.5257 87.5278 60.7684 91.614 64.2268 92.4529C67.6852 93.2918 83.2806 92.8721 99.7553 85.955C109.351 81.9265 113.059 84.4508 114.422 86.3358C114.549 86.5098 114.637 86.7087 114.682 86.9194C114.726 87.1301 114.725 87.3479 114.68 87.5583C114.634 87.7687 114.544 87.967 114.416 88.1401C114.288 88.3132 114.125 88.4573 113.937 88.5628C106.772 92.6374 90.5569 99.7798 80.7988 103.982C75.6502 106.198 70.1139 107.373 64.5089 107.44L19.9452 107.987C19.0751 107.997 18.2117 107.835 17.4048 107.51C16.5979 107.184 15.8637 106.702 15.2447 106.09C14.6257 105.479 14.1343 104.751 13.7989 103.948C13.4636 103.145 13.2909 102.283 13.291 101.413V95.8494C13.291 94.1218 13.9711 92.4635 15.1843 91.2335C16.3975 90.0034 18.0462 89.3005 19.7737 89.2766L32.6796 89.0993Z" fill="#F2CD38"/>
<path d="M95.0435 87.7568C97.2187 85.3642 99.6081 82.6714 101.328 80.549C101.503 80.3349 101.616 80.0777 101.657 79.8044C101.698 79.5312 101.665 79.2519 101.561 78.9959C101.457 78.7399 101.286 78.5165 101.067 78.3492C100.847 78.182 100.586 78.0769 100.311 78.045C98.1898 77.8872 96.0581 78.1543 94.0411 78.8307C91.5651 79.6157 85.0169 85.7202 80.6641 89.9704C81.593 90.2565 82.501 90.6069 83.3814 91.0189C87.3366 90.1905 91.2326 89.1008 95.0435 87.7568Z" fill="#EB5A76"/>
<path d="M83.3796 91.0193C81.7658 91.3569 80.2391 91.6182 78.758 91.8478L78.7383 91.8676C80.2162 91.6388 81.7671 91.3566 83.3796 91.0193Z" fill="#EB5A76"/>
<path d="M68.4034 82.1624C67.8182 82.5269 67.214 82.8601 66.5935 83.1606L66.5746 83.1704C66.1279 83.3859 65.7309 83.6003 65.3421 83.8144C65.0109 84.0006 64.6969 84.1862 64.4002 84.3712L64.3975 84.3726V88.2182C63.1391 88.2752 61.9175 88.3731 60.7442 88.5054C60.4186 90.4928 62.2863 91.9832 64.2239 92.452C70.6443 93.054 77.1202 92.5692 83.3794 91.0182C79.0445 89.2401 74.4147 88.2903 69.7298 88.2182V81.28C69.3141 81.5792 68.8826 81.875 68.4034 82.1624Z" fill="#3254C7"/>
<path d="M84.4704 80.3618C82.6588 80.3694 80.8638 80.7077 79.1738 81.3602C76.1688 83.2802 73.4527 85.6187 71.1074 88.305C74.1567 88.4888 77.1779 88.9947 80.1208 89.8143C82.0047 87.537 84.1285 84.9077 85.6722 82.8205C85.8402 82.5935 85.9426 82.3249 85.9683 82.0437C85.994 81.7626 85.9421 81.4797 85.8181 81.2261C85.6941 80.9724 85.5029 80.7577 85.2652 80.6053C85.0275 80.4529 84.7526 80.3687 84.4704 80.3618V80.3618Z" fill="#EB5A76"/>
<path d="M69.7318 72.0598V68.0563C67.9389 68.053 66.1514 67.8616 64.3984 67.4854V74.5288C66.4355 73.6152 68.2462 72.7707 69.7318 72.0598Z" fill="#3254C7"/>
<path d="M64.3418 35.9659C67.8512 40.4448 69.7573 45.9711 69.7551 51.6611V51.9294C75.4613 50.6916 80.5719 47.5383 84.2376 42.9935C87.9033 38.4488 89.9031 32.7864 89.9048 26.9475V10.5513C83.1509 10.5519 76.6716 13.2249 71.882 17.9868C67.0924 22.7486 64.3817 29.2122 64.3418 35.9659V35.9659Z" fill="#3254C7"/>
<path d="M44.1855 26.0911C47.5435 26.0911 50.8686 26.7525 53.9709 28.0375C57.0733 29.3225 59.8921 31.206 62.2665 33.5805C64.641 35.9549 66.5245 38.7738 67.8095 41.8761C69.0945 44.9784 69.7559 48.3035 69.7559 51.6615V68.0577C62.9743 68.0577 56.4703 65.3637 51.6749 60.5683C46.8796 55.773 44.1855 49.269 44.1855 42.4873V26.0911Z" fill="#EB5A76"/>
</svg>
