<svg id="Layer_1" data-name="Layer 1" xmlns="http://www.w3.org/2000/svg" viewBox="0 0 48 48"><defs><style>.cls-1{fill:none;}.cls-2{fill:#3254c7;}.cls-3{fill:#f2cd38;}.cls-4{fill:#eb5a76;}</style></defs><rect class="cls-1" /><g id="SD_Economie_en_organisatie" data-name="SD Economie en organisatie"><path class="cls-2" d="M24.99993,29.229h-2a1.99986,1.99986,0,0,0-2,2v2c.55225,0,1-.89551,1-2,0-.02027-.00268-.03907-.00293-.05909a6.07361,6.07361,0,0,0,2.00293.47608A6.07355,6.07355,0,0,0,26.00286,31.17c-.00024.02-.00293.03882-.00293.05909,0,1.10449.44776,2,1,2v-2A2,2,0,0,0,24.99993,29.229Z" transform="translate(0.00071 0)"/><path class="cls-3" d="M27,33.229c-.55225,0-1-.8955-1-2,0-.02026.00269-.03906.00293-.05908A6.07361,6.07361,0,0,1,24,31.646,6.07361,6.07361,0,0,1,21.99707,31.17c.00024.02.00293.03882.00293.05908,0,1.10444-.44775,1.99988-1,2v1a1.99453,1.99453,0,0,0,1.70361,1.9701v.29358a.7408.7408,0,0,1-.52783.70947l-.20947.06287a2.76849,2.76849,0,0,0,4.06714,0l-.20935-.06287a.74076.74076,0,0,1-.528-.70947v-.29358A1.99475,1.99475,0,0,0,27,34.229v-1Z" transform="translate(0.00071 0)"/><path class="cls-4" d="M27.68018,37.759l-1.64673-.494v.00007a2.76849,2.76849,0,0,1-4.06714,0V37.265l-1.64673.494A1.8519,1.8519,0,0,0,19,39.53281V42.229H29V39.53281A1.852,1.852,0,0,0,27.68018,37.759Z" transform="translate(0.00071 0)"/><path class="cls-2" d="M13.68018,15.759l-1.64673-.494v.00007a2.76849,2.76849,0,0,1-4.06714,0V15.265l-1.64673.494A1.8519,1.8519,0,0,0,5,17.53281V20.229H15V17.53281A1.852,1.852,0,0,0,13.68018,15.759Z" transform="translate(0.00071 0)"/><path class="cls-4" d="M10.99991,7.229h-2a1.99986,1.99986,0,0,0-2,2v1.99268c.04882.0011.09668.00732.146.00732A5.984,5.984,0,0,0,11.88614,8.8981a5.97024,5.97024,0,0,0,1.11377,2.09228V9.229A2,2,0,0,0,10.99991,7.229Z" transform="translate(0.00071 0)"/><path class="cls-3" d="M13,10.99039A5.97036,5.97036,0,0,1,11.88623,8.8981,5.984,5.984,0,0,1,7.146,11.229c-.04932,0-.09717-.00622-.146-.00732V12.229a1.99453,1.99453,0,0,0,1.70361,1.9701v.29358a.7408.7408,0,0,1-.52783.70947l-.20947.06287a2.76849,2.76849,0,0,0,4.06714,0l-.20935-.06287a.74076.74076,0,0,1-.528-.70947v-.29358A1.99475,1.99475,0,0,0,13,12.229V10.99039Z" transform="translate(0.00071 0)"/><path class="cls-2" d="M39.99976,22.22922h-2a13.96513,13.96513,0,0,1-5.55933,11.137l-.68909-1.27991-2.61975,4.242,4.98352.14844L33.408,35.16336A15.97652,15.97652,0,0,0,39.99976,22.22922Z" transform="translate(0.00071 0)"/><path class="cls-3" d="M32.606,9.93839,29.869,5.771l-.67029,1.3327A15.97932,15.97932,0,0,0,14.82251,9.12228L15.97,10.761A13.96034,13.96034,0,0,1,28.28162,8.92691l-.6532,1.29865Z" transform="translate(0.00071 0)"/><path class="cls-4" d="M10.64758,26.35141l1.43836-.20978L8.99585,22.229l-1.844,4.63221L8.62793,26.646a15.97666,15.97666,0,0,0,9.90015,10.61792l.68359-1.87891A13.966,13.966,0,0,1,10.64758,26.35141Z" transform="translate(0.00071 0)"/><path class="cls-2" d="M31.91347,22.43783c-.82274,1.34023-1.64547,2.62309-2.468,3.86611-3.11978-.03674-6.23955-.60666-9.35912-.45968-.33055.53846-.66109,1.084-.99154,1.64329,3.81512-.64721,7.63034.19658,11.44555.24148,1.15309-1.74238,2.30647-3.55777,3.45956-5.50939A17.32534,17.32534,0,0,1,31.91347,22.43783Z" transform="translate(0.00071 0)"/><path class="cls-4" d="M26.81812,20.9053,19.6,23.5325c-.01966.00714-.03968.00281-.05945.009-.51343.81934-1.027,1.65186-1.54053,2.521,3.81506-.64728,7.63025.19653,11.44556.24145,1.15283-1.74243,2.30627-3.5578,3.45947-5.50939A24.86662,24.86662,0,0,1,26.81812,20.9053Zm3.30322,1.52344a2.18323,2.18323,0,0,0-.46387-.0993,3.40679,3.40679,0,0,0-2.06323.48993l2.39282.25995-.10864.10345a.7261.7261,0,0,1-.57886.1958l-2.12988-.23138a1.67872,1.67872,0,0,0-.16211.18151c-.04529.05823-.08106.11261-.116.16724l2.37354.25775-.09815.095a.7259.7259,0,0,1-.58325.20008l-1.81323-.197c-.0426.43731.33838.7749,1.04248.85156a3.531,3.531,0,0,0,1.20019-.09815l-.07141.13807a.7417.7417,0,0,1-.579.391,4.12409,4.12409,0,0,1-.90405.00628c-1.08911-.11816-1.62683-.68151-1.425-1.36865l-.52832-.05755.34912-.33106.33887.03674c.03564-.05444.07068-.109.116-.16723.04882-.06275.104-.12451.15576-.18207l-.42346-.0459.35864-.3352.44372.04828a4.77633,4.77633,0,0,1,3.16138-.84656,2.36985,2.36985,0,0,1,.95.28753l-.09631.09174A.72575.72575,0,0,1,30.12134,22.42874Z" transform="translate(0.00071 0)"/><path class="cls-3" d="M27.35571,13.593a1.31258,1.31258,0,0,0-1.68237-.78443l-8.80957,3.20636a1.31246,1.31246,0,0,0-.7843,1.68225l.23511.64606L27.59082,14.239ZM29.194,18.64377l-.91907-2.52539L16.99854,20.22256l.91918,2.5254A1.31251,1.31251,0,0,0,19.6,23.5325l8.80957-3.20642A1.31257,1.31257,0,0,0,29.194,18.64377Z" transform="translate(0.00071 0)"/><rect class="cls-2" x="16.29466" y="16.23082"  transform="translate(-4.54804 8.66437) rotate(-20)"/><path class="cls-4" d="M38.99985,7.22909h-2a2,2,0,0,0-2,2v.5a3.97421,3.97421,0,0,0,2.168-.646,6.96243,6.96243,0,0,0,3.832,1.146h0v-1A2,2,0,0,0,38.99985,7.22909Z" transform="translate(0.00071 0)"/><path class="cls-3" d="M40.99988,10.2291a6.96248,6.96248,0,0,1-3.832-1.146A3.97351,3.97351,0,0,1,35,9.7291V12.229a1.99453,1.99453,0,0,0,1.70361,1.9701v.29358a.7408.7408,0,0,1-.52783.70947l-.20947.06287a2.76849,2.76849,0,0,0,4.06714,0l-.20935-.06287a.74076.74076,0,0,1-.528-.70947v-.29358A1.99475,1.99475,0,0,0,41,12.229v-2Z" transform="translate(0.00071 0)"/><path class="cls-2" d="M41.68018,15.759l-1.64673-.494v.00007a2.76849,2.76849,0,0,1-4.06714,0h0l-1.64673.49395A1.8519,1.8519,0,0,0,33,17.53281V20.229H43V17.53281A1.852,1.852,0,0,0,41.68018,15.759Z" transform="translate(0.00071 0)"/></g></svg>