<svg  viewBox="0 0 128 128" fill="none" xmlns="http://www.w3.org/2000/svg">
<path d="M102.972 74.877C97.5768 83.6648 92.1824 92.077 86.7891 100.226C66.3334 99.9864 45.8776 96.2488 25.4232 97.213C23.2557 100.743 21.0885 104.32 18.9219 107.986C43.9368 103.743 68.9526 109.275 93.968 109.57C101.529 98.1453 109.091 86.2421 116.652 73.4456C112.125 74.1987 107.556 74.6767 102.972 74.877Z" fill="#3254C7"/>
<path d="M105.578 25.7397H66.1315C65.4063 25.7397 64.6882 25.8826 64.0182 26.1601C63.3481 26.4377 62.7394 26.8445 62.2266 27.3573C61.7138 27.8702 61.3071 28.479 61.0296 29.149C60.7521 29.8191 60.6093 30.5372 60.6094 31.2624V33.0707H111.101V31.2624C111.101 29.7977 110.519 28.393 109.483 27.3573C108.448 26.3216 107.043 25.7397 105.578 25.7397Z" fill="#F2CD38"/>
<path d="M60.6094 52.9166C60.6093 53.6419 60.7521 54.36 61.0296 55.03C61.3071 55.7 61.7139 56.3088 62.2267 56.8217C62.7394 57.3345 63.3482 57.7413 64.0182 58.0188C64.6882 58.2964 65.4063 58.4393 66.1315 58.4393H105.578C107.043 58.4393 108.448 57.8575 109.483 56.8218C110.519 55.7861 111.101 54.3813 111.101 52.9166V41.2676H60.6094V52.9166Z" fill="#F2CD38"/>
<path d="M40.302 76.0814C32.2769 75.11 26.0265 72.2078 26.3425 69.6001L25.8337 73.8052C25.5177 76.4142 31.7681 79.3164 39.7932 80.2879C47.8183 81.2593 54.5809 79.931 54.8964 77.3222L55.4052 73.1177C55.0879 75.7254 48.3265 77.0524 40.302 76.0814Z" fill="#3254C7"/>
<path d="M41.4462 66.6334C41.4078 66.6286 41.3715 66.6278 41.3323 66.6233C41.0707 66.6956 40.8134 66.7708 40.5472 66.839C36.4893 68.0453 32.2181 68.358 28.0278 67.7556C27.0563 68.2609 26.4312 68.874 26.3435 69.599C26.0278 72.2078 32.2776 75.1099 40.303 76.0811C48.3283 77.0523 55.0902 75.7249 55.4064 73.1158C55.7227 70.5068 49.4718 67.6046 41.4462 66.6334Z" fill="#F2CD38"/>
<path d="M39.4928 62.7365C31.6635 64.7477 24.7859 64.3155 24.1328 61.7701L25.1872 65.8725C25.8408 68.4179 32.7187 68.8501 40.5472 66.8389C48.3757 64.8277 54.1941 61.1323 53.54 58.5877L52.4861 54.4856C53.1373 57.0317 47.3205 60.7251 39.4928 62.7365Z" fill="#3254C7"/>
<path d="M52.4843 54.4852C52.2859 53.7118 51.4598 53.1593 50.2606 52.7852L49.1206 54.4369C48.0104 56.0465 44.0659 55.3617 39.3803 53.0174C38.6369 53.1678 37.8899 53.3222 37.1238 53.519C29.2936 55.5308 23.4766 59.2257 24.1302 61.7702C24.7838 64.3147 31.6614 64.7481 39.4915 62.7364C47.3217 60.7246 53.1387 57.0305 52.4843 54.4852Z" fill="#F2CD38"/>
<path d="M49.6575 63.2249C47.0402 64.7118 44.2416 65.8541 41.3313 66.6233C41.3705 66.6278 41.4068 66.6286 41.4452 66.6334C49.4719 67.6046 55.7207 70.507 55.4055 73.1158V73.1177L54.8969 77.3209C54.5812 79.9297 47.8188 81.2574 39.7935 80.2865C33.1268 79.4793 27.6991 77.3401 26.2289 75.143C21.4023 82.6939 16.5727 90.4718 11.7441 98.6433C36.7591 94.3993 61.7745 99.9318 86.7903 100.226C94.3503 88.8019 101.913 76.8987 109.474 64.1025C89.5345 67.4849 69.5956 64.6611 49.6575 63.2249ZM91.2215 74.8177C90.2341 74.491 89.2142 74.2727 88.1796 74.1667C83.4432 73.7711 78.7041 74.8964 74.6511 77.379L90.3412 79.0833L89.6281 79.7617C89.127 80.2387 88.5278 80.6007 87.8724 80.8224C87.217 81.0442 86.5211 81.1204 85.8332 81.0457L71.8665 79.5286C71.4843 79.8993 71.1293 80.2971 70.8041 80.7187C70.5073 81.1003 70.2729 81.4569 70.0439 81.815L85.6063 83.5051L84.9636 84.1278C84.4614 84.6138 83.8584 84.9833 83.1974 85.21C82.5364 85.4368 81.8335 85.5152 81.1388 85.4398L69.2495 84.1483C68.9708 87.0155 71.4681 89.2291 76.0855 89.7318C78.7261 89.9693 81.388 89.7518 83.9551 89.0886L83.4865 89.9937C83.113 90.6999 82.5712 91.3033 81.9091 91.7505C81.247 92.1977 80.4849 92.4749 79.6903 92.5577C77.7218 92.7885 75.734 92.8024 73.7625 92.599C66.6217 91.8241 63.0959 88.1302 64.4188 83.6249L60.9551 83.2473L63.2441 81.0769L65.4657 81.3169C65.6999 80.9601 65.9292 80.6019 66.226 80.2206C66.546 79.8091 66.9084 79.4041 67.2468 79.0265L64.4708 78.7257L66.8223 76.5278L69.7313 76.8443C75.7719 72.6109 83.1126 70.6452 90.4604 71.2934C92.6465 71.4753 94.7694 72.1178 96.6895 73.1787L96.0575 73.7806C95.4239 74.3802 94.6377 74.794 93.7848 74.9769C92.9319 75.1598 92.0452 75.1047 91.2215 74.8177Z" fill="#EB5A76"/>
<path d="M91.2215 74.8176C90.2341 74.491 89.2142 74.2727 88.1796 74.1667C83.4432 73.7711 78.7041 74.8964 74.6511 77.3789L90.3412 79.0832L89.6281 79.7616C89.127 80.2387 88.5278 80.6007 87.8724 80.8224C87.217 81.0442 86.5211 81.1203 85.8332 81.0456L71.8665 79.5286C71.4843 79.8993 71.1293 80.297 70.8041 80.7187C70.5073 81.1003 70.2729 81.4568 70.0439 81.815L85.6063 83.5051L84.9636 84.1278C84.4614 84.6137 83.8584 84.9832 83.1974 85.21C82.5364 85.4367 81.8336 85.5152 81.1388 85.4398L69.2495 84.1483C68.9708 87.0155 71.4681 89.2291 76.0855 89.7318C78.7262 89.9693 81.388 89.7518 83.9551 89.0886L83.4865 89.9936C83.113 90.6999 82.5712 91.3033 81.9091 91.7505C81.247 92.1977 80.4849 92.4749 79.6903 92.5576C77.7218 92.7885 75.734 92.8023 73.7625 92.599C66.6217 91.824 63.0959 88.1302 64.4188 83.6248L60.9551 83.2472L63.2441 81.0768L65.4657 81.3168C65.6999 80.96 65.9292 80.6019 66.226 80.2206C66.546 79.8091 66.9084 79.404 67.2468 79.0264L64.4708 78.7256L66.8223 76.5278L69.7313 76.8443C75.7719 72.6109 83.1127 70.6451 90.4604 71.2933C92.6465 71.4753 94.7694 72.1178 96.6895 73.1787L96.0575 73.7805C95.4239 74.3801 94.6377 74.794 93.7848 74.9769C92.9319 75.1598 92.0452 75.1047 91.2215 74.8176Z" fill="white"/>
<path d="M36.7768 46.5534C30.1237 41.9619 25.9395 36.4862 27.4325 34.3232L25.0269 37.8096C23.5336 39.9726 27.7181 45.4483 34.3712 50.0398C41.0243 54.6312 47.6291 56.5998 49.1213 54.4368L51.5269 50.951C50.0328 53.1131 43.4299 51.1443 36.7768 46.5534Z" fill="#3254C7"/>
<path d="M51.5277 50.9506C53.0203 48.7876 48.8365 43.3121 42.183 38.7207C35.5294 34.1293 28.9257 32.1606 27.4331 34.3236C25.9405 36.4866 30.1242 41.9621 36.7778 46.5535C43.4313 51.1449 50.0351 53.1136 51.5277 50.9506Z" fill="#F2CD38"/>
<path d="M111.101 33.0703H60.6094V41.2674H111.101V33.0703Z" fill="#3254C7"/>
</svg>
