<svg viewBox="0 0 128 128" fill="none" xmlns="http://www.w3.org/2000/svg">
<path d="M25.7067 61.84C25.239 63.8383 25.4352 65.9346 26.2656 67.8114C27.0961 69.6882 28.5156 71.2432 30.3091 72.2409C32.1026 73.2387 34.1724 73.6247 36.2049 73.3406C38.2375 73.0566 40.1221 72.1178 41.5733 70.6666C43.0246 69.2154 43.9633 67.3308 44.2474 65.2982C44.5315 63.2656 44.1454 61.1958 43.1477 59.4024C42.15 57.6089 40.5949 56.1894 38.7181 55.3589C36.8413 54.5284 34.745 54.3322 32.7467 54.8C31.0352 55.2038 29.47 56.0763 28.2265 57.3198C26.983 58.5632 26.1105 60.1284 25.7067 61.84Z" fill="#EB5A76"/>
<path d="M54.8 61.84C54.3322 63.8383 54.5284 65.9346 55.3589 67.8114C56.1894 69.6882 57.6089 71.2432 59.4024 72.2409C61.1958 73.2387 63.2656 73.6247 65.2982 73.3406C67.3308 73.0566 69.2154 72.1178 70.6666 70.6666C72.1178 69.2154 73.0566 67.3308 73.3406 65.2982C73.6247 63.2656 73.2387 61.1958 72.2409 59.4024C71.2432 57.6089 69.6882 56.1894 67.8114 55.3589C65.9346 54.5284 63.8383 54.3322 61.84 54.8C60.1284 55.2038 58.5632 56.0763 57.3198 57.3198C56.0763 58.5632 55.2038 60.1284 54.8 61.84Z" fill="#3254C7"/>
<path d="M83.8934 61.84C83.4256 63.8383 83.6218 65.9346 84.4523 67.8114C85.2828 69.6882 86.7022 71.2432 88.4957 72.2409C90.2892 73.2387 92.359 73.6247 94.3916 73.3406C96.4241 73.0566 98.3088 72.1178 99.76 70.6666C101.211 69.2154 102.15 67.3308 102.434 65.2982C102.718 63.2656 102.332 61.1958 101.334 59.4024C100.337 57.6089 98.7816 56.1894 96.9048 55.3589C95.028 54.5284 92.9317 54.3322 90.9334 54.8C89.2218 55.2038 87.6566 56.0763 86.4131 57.3198C85.1697 58.5632 84.2971 60.1284 83.8934 61.84Z" fill="#F2CD38"/>
</svg>
