<svg  viewBox="0 0 128 128" fill="none" xmlns="http://www.w3.org/2000/svg">
<path d="M84.7854 77.1177C84.4557 77.4479 84.0354 77.6728 83.5778 77.764C83.1201 77.8552 82.6458 77.8086 82.2146 77.6301C81.7835 77.4516 81.4151 77.1491 81.1559 76.7611C80.8967 76.3731 80.7585 75.9169 80.7587 75.4503V71.1201L70.7273 61.2801C68.398 58.9951 65.2609 57.7221 61.9981 57.7377C58.7352 57.7533 55.6105 59.0564 53.3033 61.3636L52.6971 61.9697L52.091 61.3636C49.7838 59.0564 46.659 57.7533 43.3962 57.7377C40.1333 57.7221 36.9962 58.9951 34.667 61.2801L10.667 84.8247L17.0833 98.8153C19.6225 104.352 23.6977 109.044 28.8248 112.334C33.9519 115.623 39.9154 117.371 46.007 117.371H59.3889C65.4803 117.371 71.4437 115.623 76.5707 112.334C81.6977 109.044 85.7729 104.353 88.3121 98.8156L94.7283 84.8249L85.8195 76.0852L84.7854 77.1177ZM34.3273 80.0756C34.3273 80.7725 34.0504 81.4409 33.5576 81.9337C33.0648 82.4265 32.3964 82.7033 31.6995 82.7033H28.6209L34.3275 79.7049L34.3273 80.0756ZM51.7705 80.0756C51.7705 80.7725 51.4936 81.4409 51.0008 81.9337C50.508 82.4265 49.8396 82.7033 49.1427 82.7033H38.8313C38.4862 82.7033 38.1445 82.6354 37.8257 82.5033C37.5069 82.3713 37.2172 82.1777 36.9733 81.9337C36.7293 81.6897 36.5357 81.4 36.4037 81.0812C36.2717 80.7624 36.2038 80.4207 36.2038 80.0756V78.7196L41.8961 75.7287C43.244 75.0204 44.7617 74.6993 46.281 74.8008C47.8002 74.9022 49.2618 75.4224 50.5035 76.3036C50.8878 76.5667 51.3178 76.7558 51.7715 76.8612L51.7705 80.0756ZM69.2134 80.0756C69.2134 80.4207 69.1455 80.7624 69.0135 81.0812C68.8814 81.4 68.6879 81.6897 68.4439 81.9337C68.1999 82.1777 67.9103 82.3713 67.5915 82.5033C67.2727 82.6354 66.931 82.7033 66.5859 82.7033H56.2734C55.5765 82.7033 54.9081 82.4265 54.4153 81.9337C53.9225 81.4409 53.6457 80.7725 53.6457 80.0756V76.858C54.0921 76.7514 54.5151 76.5635 54.8934 76.3036C56.1352 75.4224 57.5967 74.9022 59.1159 74.8008C60.6352 74.6993 62.1529 75.0204 63.5009 75.7287L69.2134 78.7313V80.0756ZM73.7163 82.7033C73.0195 82.7033 72.3511 82.4264 71.8584 81.9336C71.3657 81.4408 71.0889 80.7725 71.0889 80.0756V79.7156L76.7753 82.7023L73.7163 82.7033Z" fill="#EB5A76"/>
<path d="M76.7757 82.7049H73.7167C73.0199 82.7048 72.3516 82.428 71.8588 81.9352C71.3661 81.4424 71.0893 80.774 71.0893 80.0772V79.7172L69.2138 78.7305V80.0761C69.2138 80.4212 69.1459 80.7629 69.0139 81.0817C68.8818 81.4005 68.6883 81.6902 68.4443 81.9342C68.2003 82.1782 67.9107 82.3718 67.5919 82.5038C67.2731 82.6359 66.9314 82.7038 66.5863 82.7038H56.2738C55.5769 82.7038 54.9085 82.427 54.4157 81.9342C53.9229 81.4414 53.6461 80.773 53.6461 80.0761V76.8601C53.0313 77.0193 52.3862 77.0203 51.7709 76.863V80.0758C51.7709 80.7728 51.494 81.4411 51.0012 81.9339C50.5084 82.4267 49.84 82.7036 49.1431 82.7036H38.8317C38.4866 82.7036 38.1449 82.6356 37.8261 82.5035C37.5073 82.3715 37.2177 82.1779 36.9737 81.9339C36.7297 81.6899 36.5362 81.4002 36.4041 81.0814C36.2721 80.7626 36.2042 80.4209 36.2042 80.0758V78.7198L34.3287 79.7065V80.0772C34.3287 80.7741 34.0519 81.4425 33.5591 81.9353C33.0663 82.4281 32.3979 82.7049 31.701 82.7049H28.6213L21.9141 86.2276L25.5157 90.9374C27.7478 93.8563 30.6225 96.2215 33.9168 97.8494C37.211 99.4773 40.8361 100.324 44.5106 100.324H60.885C64.5595 100.324 68.1846 99.4773 71.4789 97.8494C74.7731 96.2215 77.6478 93.8563 79.8799 90.9374L83.4815 86.2278L76.7757 82.7049Z" fill="#3254C7"/>
<path d="M34.3275 80.0757C34.3275 80.7727 34.0506 81.441 33.5578 81.9338C33.0651 82.4266 32.3967 82.7035 31.6998 82.7035H28.6211L34.3278 79.7051L34.3275 80.0757Z" fill="white"/>
<path d="M51.7708 80.0757C51.7708 80.7726 51.4939 81.441 51.0011 81.9337C50.5083 82.4265 49.84 82.7034 49.143 82.7034H38.8316C38.4865 82.7034 38.1448 82.6354 37.826 82.5034C37.5072 82.3713 37.2176 82.1777 36.9736 81.9337C36.7296 81.6897 36.5361 81.4 36.404 81.0812C36.272 80.7624 36.2041 80.4207 36.2041 80.0757V78.7197L41.8964 75.7287C43.2443 75.0205 44.762 74.6993 46.2813 74.8008C47.8006 74.9023 49.2621 75.4225 50.5038 76.3037C50.8881 76.5668 51.3182 76.7559 51.7718 76.8613L51.7708 80.0757Z" fill="white"/>
<path d="M69.2132 80.0757C69.2133 80.4207 69.1453 80.7624 69.0133 81.0812C68.8813 81.4 68.6878 81.6897 68.4438 81.9337C68.1998 82.1777 67.9101 82.3713 67.5913 82.5034C67.2725 82.6354 66.9308 82.7034 66.5858 82.7034H56.2732C55.5763 82.7034 54.9079 82.4265 54.4152 81.9337C53.9224 81.441 53.6455 80.7726 53.6455 80.0757V76.8581C54.0919 76.7515 54.5149 76.5635 54.8932 76.3037C56.135 75.4225 57.5965 74.9023 59.1158 74.8008C60.6351 74.6993 62.1528 75.0205 63.5007 75.7287L69.2132 78.7314V80.0757Z" fill="white"/>
<path d="M73.7163 82.7045C73.0195 82.7045 72.3512 82.4276 71.8584 81.9348C71.3657 81.442 71.0889 80.7737 71.0889 80.0768V79.7168L76.7753 82.7035L73.7163 82.7045Z" fill="white"/>
<path d="M52.7756 88.946C49.0331 88.7992 45.3023 89.4536 41.8332 90.8655C38.364 92.2774 35.2365 94.4141 32.6602 97.1327C36.2878 99.2229 40.4009 100.324 44.5876 100.324H60.9644C65.1509 100.323 69.2636 99.2218 72.8908 97.1314C70.3143 94.4131 67.1869 92.2766 63.7178 90.8649C60.2487 89.4533 56.518 88.7991 52.7756 88.946V88.946Z" fill="#F2CD38"/>
<path d="M108.478 10.6667H50.9014V60.3892C51.3182 60.6884 51.7158 61.0136 52.0918 61.3628L52.6979 61.9689L53.304 61.3628C55.6113 59.0556 58.736 57.7525 61.9989 57.7368C65.2617 57.7212 68.3988 58.9943 70.728 61.2793L74.1051 64.5924H80.7595V75.4516C80.7593 75.9182 80.8975 76.3744 81.1567 76.7624C81.4158 77.1504 81.7843 77.4528 82.2154 77.6314C82.6465 77.8099 83.1209 77.8565 83.5785 77.7653C84.0362 77.6741 84.4564 77.4492 84.7862 77.119L97.3112 64.5924H108.478C110.857 64.5924 113.139 63.6473 114.821 61.9651C116.503 60.2829 117.448 58.0013 117.449 55.6222V19.6382C117.449 18.4601 117.217 17.2935 116.766 16.205C116.315 15.1165 115.655 14.1275 114.821 13.2944C113.988 12.4613 112.999 11.8005 111.911 11.3496C110.823 10.8987 109.656 10.6667 108.478 10.6667V10.6667Z" fill="#F2CD38"/>
<path d="M71.8928 35.2674H78.9968V41.0682H71.8928V50.4224H65.4736V25.0437H79.9032L80.7392 30.8442H71.8928V35.2674Z" fill="#3254C7"/>
<path d="M95.6091 50.4224L90.208 40.416V50.4224H83.8613V25.0437H92.3456C98.4733 25.0437 101.809 28.4525 101.809 33.0565C101.845 34.624 101.384 36.1627 100.492 37.4522C99.5997 38.7416 98.3224 39.7157 96.8429 40.2349L103.15 50.4216L95.6091 50.4224ZM90.208 36.9717H91.4035C93.9424 36.9717 95.3565 35.5584 95.3565 33.5642C95.3565 31.6058 93.9432 30.1917 91.4035 30.1917H90.208V36.9717Z" fill="#3254C7"/>
</svg>
