<svg  viewBox="0 0 128 128" fill="none" xmlns="http://www.w3.org/2000/svg">
<path d="M32.2801 69.4382H24.9004V106.466H32.2801V69.4382Z" fill="#F2CD38"/>
<path d="M40.5706 69.4382H32.2812V106.466H40.5706V69.4382Z" fill="#EB5A76"/>
<path d="M24.8506 106.466H40.6197C40.923 106.466 41.2233 106.526 41.5035 106.642C41.7838 106.758 42.0384 106.928 42.2528 107.142C42.4673 107.357 42.6374 107.611 42.7535 107.892C42.8696 108.172 42.9293 108.472 42.9293 108.775V110.183H22.541V108.775C22.541 108.472 22.6008 108.172 22.7168 107.892C22.8329 107.611 23.003 107.357 23.2175 107.142C23.432 106.928 23.6866 106.758 23.9668 106.642C24.247 106.526 24.5473 106.466 24.8506 106.466V106.466Z" fill="#EB5A76"/>
<path d="M22.541 65.7214H42.9296V67.1286C42.9296 67.7412 42.6862 68.3286 42.2531 68.7618C41.82 69.1949 41.2325 69.4382 40.6199 69.4382H24.8506C24.2381 69.4382 23.6506 69.1949 23.2175 68.7618C22.7843 68.3286 22.541 67.7412 22.541 67.1286V65.7214Z" fill="#EB5A76"/>
<path d="M46.106 110.183H19.3652V113.899H46.106V110.183Z" fill="#F2CD38"/>
<path d="M76.8231 69.4382H69.4434V106.466H76.8231V69.4382Z" fill="#F2CD38"/>
<path d="M85.1116 69.4382H76.8223V106.466H85.1116V69.4382Z" fill="#EB5A76"/>
<path d="M69.3936 106.466H85.1627C85.466 106.466 85.7663 106.526 86.0465 106.642C86.3267 106.758 86.5813 106.928 86.7958 107.142C87.0103 107.357 87.1804 107.611 87.2965 107.892C87.4125 108.172 87.4723 108.472 87.4723 108.775V110.183H67.084V108.775C67.084 108.472 67.1437 108.172 67.2598 107.892C67.3759 107.611 67.546 107.357 67.7605 107.142C67.9749 106.928 68.2295 106.758 68.5097 106.642C68.79 106.526 69.0903 106.466 69.3936 106.466V106.466Z" fill="#EB5A76"/>
<path d="M67.084 65.7214H87.4725V67.1286C87.4725 67.7412 87.2292 68.3286 86.796 68.7618C86.3629 69.1949 85.7754 69.4382 85.1629 69.4382H69.3936C68.781 69.4382 68.1936 69.1949 67.7605 68.7618C67.3273 68.3286 67.084 67.7412 67.084 67.1286V65.7214Z" fill="#EB5A76"/>
<path d="M90.6471 110.183H63.9062V113.899H90.6471V110.183Z" fill="#F2CD38"/>
<path d="M68.7045 41.1798L55.0061 33.5603L12.8237 57.0243C12.5852 57.1559 12.3972 57.3631 12.2895 57.6133C12.1817 57.8635 12.1603 58.1425 12.2287 58.4062C12.297 58.6699 12.4512 58.9033 12.6669 59.0697C12.8826 59.2361 13.1476 59.326 13.42 59.3251H88.4104C83.6502 58.716 79.1969 56.6426 75.6666 53.3919C72.1363 50.1412 69.7034 45.8737 68.7045 41.1798V41.1798Z" fill="#EB5A76"/>
<path d="M72.3113 49.5368L55.0046 39.9102L28.3086 54.7608H77.3131C75.3837 53.2908 73.6961 51.5282 72.3113 49.5368V49.5368Z" fill="white"/>
<path d="M88.4109 59.3252H18.6621C18.6621 60.1651 18.8275 60.9969 19.1489 61.7729C19.4703 62.5489 19.9414 63.254 20.5354 63.8479C21.1293 64.4419 21.8344 64.913 22.6104 65.2344C23.3864 65.5558 24.2182 65.7212 25.0581 65.7212H84.9557C86.6141 65.7194 88.2068 65.0724 89.3967 63.9171C90.5865 62.7619 91.2802 61.189 91.3309 59.5313C90.3542 59.5242 89.3789 59.4554 88.4109 59.3252V59.3252Z" fill="#F2CD38"/>
<path d="M91.3521 13.2305C86.7733 13.2305 82.2973 14.5882 78.4901 17.1321C74.683 19.676 71.7157 23.2916 69.9634 27.5219C68.2112 31.7522 67.7527 36.4071 68.646 40.8979C69.5393 45.3888 71.7442 49.5139 74.9819 52.7516C78.2197 55.9893 82.3447 58.1942 86.8356 59.0875C91.3264 59.9808 95.9813 59.5223 100.212 57.7701C104.442 56.0178 108.058 53.0505 110.601 49.2434C113.145 45.4362 114.503 40.9602 114.503 36.3814C114.503 30.2414 112.064 24.3529 107.722 20.0113C103.381 15.6697 97.4921 13.2305 91.3521 13.2305V13.2305ZM101.119 45.2467L90.0148 36.0801V15.4291H92.6815V34.8222L102.817 43.1894L101.119 45.2467Z" fill="#3254C7"/>
<path d="M101.118 45.2481L90.0137 36.0801V15.4294H92.6803V34.8214L102.816 43.1894L101.118 45.2481Z" fill="white"/>
</svg>
