<svg  viewBox="0 0 128 128" fill="none" xmlns="http://www.w3.org/2000/svg">
<path d="M108.034 72.5801H71.634C70.898 75.2121 69.4985 77.611 67.5695 79.5469C65.6404 81.4829 63.2465 82.891 60.6172 83.6363V104.697H111.69V76.2358C111.69 75.2663 111.305 74.3364 110.619 73.6508C109.933 72.9652 109.004 72.5801 108.034 72.5801V72.5801Z" fill="#EB5A76"/>
<path d="M55.459 104.697H116.848V106.305C116.848 107.32 116.445 108.293 115.727 109.01C115.01 109.727 114.037 110.13 113.022 110.13H59.2841C58.2696 110.13 57.2967 109.727 56.5793 109.01C55.862 108.293 55.459 107.32 55.459 106.305V104.697Z" fill="#F2CD38"/>
<path opacity="0.15" d="M84.4542 104.699L92.7448 72.5813H73.7582L65.4648 104.699H84.4542Z" fill="white"/>
<path d="M17.5166 49.8117C19.6011 49.8117 21.291 48.1219 21.291 46.0373C21.291 43.9528 19.6011 42.2629 17.5166 42.2629C15.432 42.2629 13.7422 43.9528 13.7422 46.0373C13.7422 48.1219 15.432 49.8117 17.5166 49.8117Z" fill="#F2CD38"/>
<path d="M69.1819 68.9748C67.4809 70.5089 65.2979 68.7134 65.2979 65.7822V59.202H64.0907C63.227 59.202 62.3717 59.0319 61.5737 58.7014C60.7756 58.3708 60.0505 57.8864 59.4398 57.2756C58.829 56.6648 58.3445 55.9397 58.014 55.1417C57.6835 54.3437 57.5134 53.4884 57.5134 52.6246V52.4081C57.1046 52.3766 56.6955 52.3457 56.279 52.3457H31.8987C27.6681 52.3457 23.6108 54.0263 20.6193 57.0178C17.6279 60.0093 15.9473 64.0666 15.9473 68.2972C15.9473 72.5278 17.6279 76.5851 20.6193 79.5766C23.6108 82.568 27.6681 84.2486 31.8987 84.2486H56.279C58.5625 84.2646 60.8225 83.7866 62.9041 82.8475C64.9856 81.9084 66.8396 80.5304 68.3388 78.8079C69.8381 77.0854 70.9472 75.0591 71.5902 72.8679C72.2332 70.6767 72.3948 68.3724 72.0641 66.1129C70.9881 67.2409 69.9822 68.2534 69.1819 68.9748Z" fill="#EB5A76"/>
<path d="M65.2984 65.7826V59.2024H64.0912C62.8935 59.1993 61.7195 58.868 60.6969 58.2444C59.6744 57.6209 58.8423 56.7289 58.2912 55.6656C57.6932 55.56 57.0883 55.4991 56.4813 55.4832H31.6973C30.0709 55.4832 28.4604 55.8036 26.9578 56.426C25.4551 57.0485 24.0898 57.9608 22.9398 59.1108C21.7898 60.2609 20.8775 61.6263 20.2552 63.1289C19.6328 64.6315 19.3125 66.2421 19.3125 67.8685V68.7269C19.3125 70.3533 19.6328 71.9638 20.2552 73.4665C20.8775 74.9691 21.7898 76.3344 22.9398 77.4845C24.0898 78.6346 25.4551 79.5469 26.9578 80.1694C28.4604 80.7918 30.0709 81.1122 31.6973 81.1122H56.4813C59.6775 81.1083 62.7478 79.8665 65.0481 77.6474C67.3484 75.4284 68.6996 72.4046 68.8184 69.2106C67.185 70.2176 65.2984 68.5101 65.2984 65.7826Z" fill="#3254C7"/>
<path d="M54.442 52.3465C53.9263 49.9846 52.6185 47.8701 50.7355 46.3539C48.8525 44.8377 46.5077 44.011 44.0901 44.011C41.6726 44.011 39.3278 44.8377 37.4448 46.3539C35.5618 47.8701 34.254 49.9846 33.7383 52.3465H54.442Z" fill="#3254C7"/>
<path d="M54.6986 84.2488H33.4805V95.5976H54.6986V84.2488Z" fill="#3254C7"/>
<path d="M15.8665 49.4167V59.8255C14.5188 60.1753 13.3251 60.9619 12.4721 62.0623C11.6191 63.1627 11.155 64.5148 11.1523 65.9071V70.437C11.1523 72.1107 11.8172 73.7158 13.0006 74.8992C14.184 76.0827 15.7891 76.7476 17.4627 76.7477H18.3873C16.669 74.0191 15.8232 70.8315 15.9627 67.6099C16.1022 64.3883 17.2203 61.2858 19.1681 58.7159V49.4167C18.6566 49.6765 18.091 49.812 17.5173 49.812C16.9436 49.812 16.378 49.6765 15.8665 49.4167V49.4167Z" fill="#3254C7"/>
<path d="M32.886 74.7536C36.4517 74.7536 39.3422 71.863 39.3422 68.2973C39.3422 64.7316 36.4517 61.8411 32.886 61.8411C29.3203 61.8411 26.4297 64.7316 26.4297 68.2973C26.4297 71.863 29.3203 74.7536 32.886 74.7536Z" fill="#F2CD38"/>
<path d="M32.8862 71.8029C34.8221 71.8029 36.3915 70.2335 36.3915 68.2976C36.3915 66.3616 34.8221 64.7922 32.8862 64.7922C30.9503 64.7922 29.3809 66.3616 29.3809 68.2976C29.3809 70.2335 30.9503 71.8029 32.8862 71.8029Z" fill="white"/>
<path d="M55.2942 74.7536C58.8599 74.7536 61.7504 71.863 61.7504 68.2973C61.7504 64.7316 58.8599 61.8411 55.2942 61.8411C51.7285 61.8411 48.8379 64.7316 48.8379 68.2973C48.8379 71.863 51.7285 74.7536 55.2942 74.7536Z" fill="#F2CD38"/>
<path d="M55.2944 71.8029C57.2303 71.8029 58.7997 70.2335 58.7997 68.2976C58.7997 66.3616 57.2303 64.7922 55.2944 64.7922C53.3585 64.7922 51.7891 66.3616 51.7891 68.2976C51.7891 70.2335 53.3585 71.8029 55.2944 71.8029Z" fill="white"/>
<path d="M64.6641 30.6447C64.6641 26.6148 66.7814 23.7761 70.1121 23.7761C73.4611 23.7761 75.5809 26.6148 75.5809 30.6447C75.5809 34.6745 73.4611 37.5132 70.1121 37.5132C66.7814 37.5132 64.6641 34.6745 64.6641 30.6447ZM72.2137 30.6447C72.2137 28.3737 71.5131 26.8412 70.1121 26.8412C68.7318 26.8412 68.0321 28.3737 68.0321 30.6447C68.0321 32.9156 68.7326 34.4481 70.1121 34.4481C71.5131 34.4481 72.2134 32.9156 72.2134 30.6447H72.2137Z" fill="#3254C7"/>
<path d="M82.5289 23.6445V37.2669H79.1798V28.3555L77.0998 29.1875L76.6641 26.1797L82.5289 23.6445Z" fill="#3254C7"/>
<path d="M84.4062 30.6447C84.4062 26.6148 86.5233 23.7761 89.854 23.7761C93.2031 23.7761 95.3228 26.6148 95.3228 30.6447C95.3228 34.6745 93.2031 37.5132 89.854 37.5132C86.5233 37.5132 84.4062 34.6745 84.4062 30.6447ZM91.9556 30.6447C91.9556 28.3737 91.2551 26.8412 89.854 26.8412C88.474 26.8412 87.774 28.3737 87.774 30.6447C87.774 32.9156 88.4745 34.4481 89.854 34.4481C91.2551 34.4481 91.9556 32.9156 91.9556 30.6447Z" fill="#3254C7"/>
<path d="M72.4929 39.509V53.1314H69.1438V44.22L67.0638 45.052L66.6289 42.0442L72.4929 39.509Z" fill="#3254C7"/>
<path d="M81.2192 39.509V53.1314H77.8704V44.22L75.7904 45.052L75.3555 42.0442L81.2192 39.509Z" fill="#3254C7"/>
<path d="M84.1738 46.5092C84.1738 42.4793 86.2912 39.6406 89.6218 39.6406C92.9709 39.6406 95.0906 42.4793 95.0906 46.5092C95.0906 50.539 92.9709 53.3777 89.6218 53.3777C86.2912 53.3777 84.1738 50.539 84.1738 46.5092ZM91.7234 46.5092C91.7234 44.2385 91.0229 42.7057 89.6218 42.7057C88.2416 42.7057 87.5418 44.2385 87.5418 46.5092C87.5418 48.7798 88.2424 50.3126 89.6218 50.3126C91.0229 50.3126 91.7234 48.7801 91.7234 46.5092Z" fill="#3254C7"/>
<path d="M95.8971 17.8691H64.091C63.2273 17.8691 62.372 18.0392 61.574 18.3697C60.776 18.7002 60.0509 19.1847 59.4401 19.7954C58.8294 20.4062 58.3449 21.1312 58.0143 21.9292C57.6838 22.7272 57.5137 23.5825 57.5137 24.4462V52.6249C57.5136 53.4886 57.6837 54.3439 58.0143 55.142C58.3448 55.94 58.8293 56.6651 59.4401 57.2758C60.0508 57.8866 60.7759 58.3711 61.5739 58.7016C62.3719 59.0321 63.2273 59.2022 64.091 59.2022H65.2982V65.7825C65.2982 68.7137 67.4811 70.5091 69.1822 68.975C71.5443 66.8449 75.6419 62.2766 78.3385 59.2022H95.8971C96.7609 59.2022 97.6162 59.0321 98.4142 58.7016C99.2122 58.3711 99.9373 57.8866 100.548 57.2758C101.159 56.6651 101.643 55.94 101.974 55.142C102.304 54.3439 102.475 53.4886 102.474 52.6249V24.4462C102.474 23.5825 102.304 22.7272 101.974 21.9292C101.643 21.1312 101.159 20.4062 100.548 19.7954C99.9372 19.1847 99.2122 18.7002 98.4142 18.3697C97.6162 18.0392 96.7609 17.8691 95.8971 17.8691V17.8691Z" fill="#F2CD38"/>
<path d="M64.6641 30.6447C64.6641 26.6148 66.7814 23.7761 70.1121 23.7761C73.4611 23.7761 75.5809 26.6148 75.5809 30.6447C75.5809 34.6745 73.4611 37.5132 70.1121 37.5132C66.7814 37.5132 64.6641 34.6745 64.6641 30.6447ZM72.2137 30.6447C72.2137 28.3737 71.5131 26.8412 70.1121 26.8412C68.7318 26.8412 68.0321 28.3737 68.0321 30.6447C68.0321 32.9156 68.7326 34.4481 70.1121 34.4481C71.5131 34.4481 72.2134 32.9156 72.2134 30.6447H72.2137Z" fill="#3254C7"/>
<path d="M82.5289 23.6445V37.2669H79.1798V28.3555L77.0998 29.1875L76.6641 26.1797L82.5289 23.6445Z" fill="#3254C7"/>
<path d="M84.4062 30.6447C84.4062 26.6148 86.5233 23.7761 89.854 23.7761C93.2031 23.7761 95.3228 26.6148 95.3228 30.6447C95.3228 34.6745 93.2031 37.5132 89.854 37.5132C86.5233 37.5132 84.4062 34.6745 84.4062 30.6447ZM91.9556 30.6447C91.9556 28.3737 91.2551 26.8412 89.854 26.8412C88.474 26.8412 87.774 28.3737 87.774 30.6447C87.774 32.9156 88.4745 34.4481 89.854 34.4481C91.2551 34.4481 91.9556 32.9156 91.9556 30.6447Z" fill="#3254C7"/>
<path d="M72.4929 39.509V53.1314H69.1438V44.22L67.0638 45.052L66.6289 42.0442L72.4929 39.509Z" fill="#3254C7"/>
<path d="M81.2192 39.509V53.1314H77.8704V44.22L75.7904 45.052L75.3555 42.0442L81.2192 39.509Z" fill="#3254C7"/>
<path d="M84.1738 46.5092C84.1738 42.4793 86.2912 39.6406 89.6218 39.6406C92.9709 39.6406 95.0906 42.4793 95.0906 46.5092C95.0906 50.539 92.9709 53.3777 89.6218 53.3777C86.2912 53.3777 84.1738 50.539 84.1738 46.5092ZM91.7234 46.5092C91.7234 44.2385 91.0229 42.7057 89.6218 42.7057C88.2416 42.7057 87.5418 44.2385 87.5418 46.5092C87.5418 48.7798 88.2424 50.3126 89.6218 50.3126C91.0229 50.3126 91.7234 48.7801 91.7234 46.5092Z" fill="#3254C7"/>
</svg>
