<svg  viewBox="0 0 128 128" fill="none" xmlns="http://www.w3.org/2000/svg">
<path d="M74.9006 24.1903C74.9078 22.2851 74.4154 20.4112 73.4727 18.7556C72.5299 17.0999 71.1697 15.7202 69.5275 14.7541C67.8854 13.788 66.0187 13.2692 64.1135 13.2494C62.2083 13.2296 60.3312 13.7094 58.6693 14.6412C57.0075 15.5729 55.6188 16.924 54.6418 18.5597C53.6648 20.1954 53.1336 22.0587 53.1012 23.9637C53.0687 25.8686 53.5362 27.7489 54.4569 29.4169C55.3776 31.085 56.7194 32.4825 58.3486 33.4703V103.837H69.6513V33.4698C71.2504 32.5051 72.5736 31.1442 73.4932 29.5187C74.4127 27.8931 74.8975 26.0579 74.9006 24.1903ZM66.5134 90.3333C66.5066 90.9954 66.2388 91.6281 65.7681 92.0939C65.2975 92.5597 64.6621 92.821 63.9999 92.821C63.3378 92.821 62.7024 92.5597 62.2317 92.0939C61.7611 91.6281 61.4933 90.9954 61.4865 90.3333V34.7709C61.7379 34.8303 61.9918 34.8722 62.2497 34.9141C63.4049 35.1493 64.5957 35.1493 65.751 34.9141C66.0081 34.8722 66.2627 34.8303 66.5134 34.7709V90.3333Z" fill="#EB5A76"/>
<path d="M64.0002 35.0905C63.1526 35.0824 62.3089 34.975 61.4863 34.7705V90.3332C61.4931 90.9953 61.761 91.628 62.2316 92.0938C62.7022 92.5596 63.3376 92.8209 63.9998 92.8209C64.662 92.8209 65.2974 92.5596 65.768 92.0938C66.2386 91.628 66.5064 90.9953 66.5133 90.3332V34.7708C65.6909 34.9752 64.8475 35.0825 64.0002 35.0905V35.0905Z" fill="#F2CD38"/>
<path d="M18.9114 53.9334L27.5407 21.9894L36.17 53.9334H38.9994L29.7567 19.72L25.5914 18.7307L16.082 53.9334H18.9114Z" fill="#3254C7"/>
<path d="M12.9727 53.9333H42.1089C42.1089 55.7098 41.759 57.4689 41.0792 59.1101C40.3994 60.7513 39.403 62.2426 38.1468 63.4987C36.8907 64.7549 35.3994 65.7513 33.7582 66.4311C32.117 67.1109 30.3579 67.4608 28.5815 67.4608H26.5015C24.7249 67.461 22.9657 67.1112 21.3243 66.4315C19.6829 65.7517 18.1915 64.7553 16.9352 63.4992C15.6789 62.243 14.6824 60.7517 14.0025 59.1104C13.3226 57.4691 12.9727 55.7099 12.9727 53.9333V53.9333Z" fill="#F2CD38"/>
<path d="M91.8293 72.2988L100.459 40.3521L109.088 72.2988H111.917L102.376 36.9761L98.7733 36.1201L89 72.2988H91.8293Z" fill="#3254C7"/>
<path d="M85.8906 72.2974H115.027C115.027 75.8851 113.602 79.3258 111.065 81.8627C108.528 84.3996 105.087 85.8248 101.499 85.8248H99.4194C95.8317 85.8248 92.391 84.3996 89.8541 81.8627C87.3172 79.3258 85.892 75.8851 85.892 72.2974H85.8906Z" fill="#F2CD38"/>
<path d="M53.0997 24.1902C53.1112 22.3314 53.6033 20.5072 54.5282 18.8948L28.4749 12.7052C27.6407 12.5069 26.7756 12.475 25.929 12.6111C25.0824 12.7473 24.2709 13.0488 23.5409 13.4986C22.8109 13.9484 22.1766 14.5375 21.6743 15.2324C21.172 15.9273 20.8114 16.7144 20.6133 17.5486L53.2112 25.2937C53.1548 24.9281 53.1176 24.5597 53.0997 24.1902V24.1902Z" fill="#F2CD38"/>
<path d="M101.034 29.9441L74.8536 23.7239C74.8608 23.882 74.901 24.0305 74.901 24.1903C74.8975 26.2643 74.2979 28.2937 73.1738 30.0367L105.877 37.8068C106.075 36.9725 106.107 36.1073 105.971 35.2607C105.835 34.414 105.534 33.6024 105.084 32.8723C104.634 32.1422 104.045 31.5078 103.35 31.0054C102.655 30.5029 101.868 30.1423 101.034 29.9441V29.9441Z" fill="#F2CD38"/>
<path d="M46.3285 103.837H81.6719C82.4288 103.837 83.1783 103.986 83.8776 104.275C84.5769 104.565 85.2123 104.989 85.7476 105.525C86.2828 106.06 86.7074 106.695 86.9971 107.394C87.2868 108.094 87.4359 108.843 87.4359 109.6V113.905H40.5645V109.6C40.5645 108.843 40.7136 108.094 41.0033 107.394C41.293 106.695 41.7176 106.06 42.2528 105.525C42.788 104.989 43.4234 104.565 44.1227 104.275C44.822 103.986 45.5715 103.837 46.3285 103.837V103.837Z" fill="#3254C7"/>
<path d="M63.9991 29.842C67.1203 29.842 69.6506 27.3117 69.6506 24.1905C69.6506 21.0693 67.1203 18.5391 63.9991 18.5391C60.8779 18.5391 58.3477 21.0693 58.3477 24.1905C58.3477 27.3117 60.8779 29.842 63.9991 29.842Z" fill="#3254C7"/>
<path d="M63.9999 13.2903C61.844 13.2903 59.7365 13.9296 57.944 15.1273C56.1514 16.3251 54.7543 18.0275 53.9293 20.0193C53.1043 22.011 52.8885 24.2027 53.3091 26.3172C53.7297 28.4316 54.7679 30.3739 56.2923 31.8983C57.8168 33.4227 59.759 34.4608 61.8735 34.8814C63.988 35.302 66.1796 35.0861 68.1714 34.261C70.1632 33.4359 71.8655 32.0388 73.0632 30.2462C74.2609 28.4536 74.9002 26.3462 74.9001 24.1903C74.9001 21.2994 73.7516 18.5269 71.7074 16.4828C69.6632 14.4387 66.8908 13.2903 63.9999 13.2903V13.2903ZM63.9999 29.8417C62.8821 29.8419 61.7894 29.5105 60.8599 28.8896C59.9305 28.2686 59.2061 27.386 58.7782 26.3534C58.3504 25.3207 58.2384 24.1844 58.4564 23.0881C58.6744 21.9917 59.2126 20.9847 60.003 20.1943C60.7933 19.4039 61.8003 18.8656 62.8966 18.6474C63.9929 18.4293 65.1292 18.5412 66.1619 18.969C67.1946 19.3967 68.0773 20.1211 68.6983 21.0504C69.3193 21.9798 69.6508 23.0725 69.6508 24.1903C69.6508 24.9324 69.5047 25.6673 69.2207 26.3529C68.9368 27.0386 68.5205 27.6616 67.9958 28.1864C67.4711 28.7111 66.8481 29.1274 66.1625 29.4115C65.4769 29.6955 64.742 29.8417 63.9999 29.8417V29.8417Z" fill="#EB5A76"/>
</svg>
