<svg id="Layer_1" data-name="Layer 1" xmlns="http://www.w3.org/2000/svg" viewBox="0 0 48 48"><defs><style>.cls-1{fill:none;}.cls-2{fill:#3254c7;}.cls-3{fill:#fff;}.cls-4{fill:#f2cd38;}.cls-5{fill:#eb5a76;}</style></defs><rect class="cls-1" /><g id="SD_Kunst_en_cultuur" data-name="SD Kunst en cultuur"><path class="cls-2" d="M34.57705,12.99136c-.00536.03488-.01072.06906-.01633.103-.9427,5.81036-5.8914,9.84161-9.46507,9.26166a4.83913,4.83913,0,0,1-1.979-.872c.28235,3.39187,1.91832,6.27738,3.91315,7.13649,3.325,1.432,9.10569-1.27384,11.4344-6.68006.23848-.55418.429-1.112,2.53582-6.18281C41,15.75763,37.889,14.41779,34.57705,12.99136ZM31.86982,26.84482a.36244.36244,0,0,1-.04693.00306.401.401,0,0,1-.39789-.35351,3.58086,3.58086,0,0,0-5.695-2.45216.40076.40076,0,0,1-.47748-.64378,4.38216,4.38216,0,0,1,6.96828,3.00106A.40025.40025,0,0,1,31.86982,26.84482Zm5.00533-7.60338a2.28289,2.28289,0,0,1-3.63-1.563.40071.40071,0,0,1,.79579-.09488,1.4812,1.4812,0,0,0,2.35472,1.01514.401.401,0,0,1,.47952.64275Z" transform="translate(0.00071 0)"/><path class="cls-3" d="M21.80612,10.25053A.40128.40128,0,0,1,21.75,9.68634a2.28283,2.28283,0,0,1,3.9004.63306.40075.40075,0,1,1-.74886.28567,1.48108,1.48108,0,0,0-2.53123-.41065A.401.401,0,0,1,21.80612,10.25053Z" transform="translate(0.00071 0)"/><path class="cls-3" d="M29.84464,17.37287A4.3824,4.3824,0,0,1,22.355,16.15775a.40075.40075,0,0,1,.74886-.28567,3.58064,3.58064,0,0,0,6.12045.9927.40092.40092,0,0,1,.62031.50809Z" transform="translate(0.00071 0)"/><path class="cls-3" d="M32.04531,11.91149a.4.4,0,0,1-.51727-.23159,1.48136,1.48136,0,0,0-2.53225-.41065.40091.40091,0,0,1-.62031-.50808,2.28312,2.28312,0,0,1,3.90142.63306A.40089.40089,0,0,1,32.04531,11.91149Z" transform="translate(0.00071 0)"/><path class="cls-4" d="M30.52587,36.51a1.49509,1.49509,0,0,1,.23218.15934,1.51105,1.51105,0,0,1,.21667.24179,55.00119,55.00119,0,0,0,5.94337-5.415l-1.73923-1.62418A55.10145,55.10145,0,0,0,30.52587,36.51Z" transform="translate(0.00071 0)"/><path class="cls-4" d="M10.12065,17.607a.67383.67383,0,0,1-.31453.89923l-.90575.43617.43516.90332.90549-.4362a.67363.67363,0,1,1,.58463,1.21381l-.9055.4362L17.0475,35.85778a.78826.78826,0,0,1-1.42034.68412L14.438,34.07266a14.52409,14.52409,0,0,0-4.67224-5.53653L8.33724,27.521,5.50269,35.623,8.7582,37.25911a6.382,6.382,0,0,1,2.8843,2.933l.2431.50482a5.83278,5.83278,0,0,0,7.786,2.72394,6.86791,6.86791,0,0,0,2.887-9.75728L8.91574,11.23967c-1.00344-1.5039,1.2261-3.0208,2.12873-1.96015a7.621,7.621,0,0,1,.64481.97284l1.135-.60667-.42116-.75447C11.49,6.99555,9.49189,6.54158,7.59622,7.45464A3.80994,3.80994,0,0,0,5.817,12.5404l2.49874,5.18816.90576-.43616A.67362.67362,0,0,1,10.12065,17.607Zm6.28916,8.92768a.6736.6736,0,1,1-.31452.89916A.67348.67348,0,0,1,16.40981,26.53466Zm-.94129-1.95434a.67363.67363,0,1,1-.31453.89922A.67352.67352,0,0,1,15.46852,24.58032ZM14.52723,22.626a.67363.67363,0,1,1-.31453.89922A.67352.67352,0,0,1,14.52723,22.626Z" transform="translate(0.00071 0)"/><path class="cls-5" d="M20.23061,4c-.94985,5.40819-1.08886,5.98093-1.18552,6.57657-.943,5.81036,2.73629,11.2417,6.05056,11.77949,3.57367.58,8.52237-3.4513,9.46507-9.26166.09667-.59563.1459-1.183.95521-6.614Zm1.57551,6.25053A.40128.40128,0,0,1,21.75,9.68634a2.28283,2.28283,0,0,1,3.9004.63306.40075.40075,0,1,1-.74886.28567,1.48108,1.48108,0,0,0-2.53123-.41065A.401.401,0,0,1,21.80612,10.25053Zm8.03852,7.12234A4.3824,4.3824,0,0,1,22.355,16.15775a.40075.40075,0,0,1,.74886-.28567,3.58064,3.58064,0,0,0,6.12045.9927.40092.40092,0,0,1,.62031.50809Zm2.20067-5.46138a.4.4,0,0,1-.51727-.23159,1.48136,1.48136,0,0,0-2.53225-.41065.40091.40091,0,0,1-.62031-.50808,2.28312,2.28312,0,0,1,3.90142.63306A.40089.40089,0,0,1,32.04531,11.91149Z" transform="translate(0.00071 0)"/><path class="cls-5" d="M40.679,23.08359c-1.68288,2.00063-3.69131,4.48532-5.48419,6.80325L36.89008,31.47c2.08015-2.07923,4.30649-4.39828,6.09669-6.32682,1.02338-1.10254,1.324-2.50954.65954-3.0933C42.986,21.46978,41.64139,21.93951,40.679,23.08359Z" transform="translate(0.00071 0)"/><path class="cls-5" d="M28.02844,37.08242a1.80435,1.80435,0,1,1,2.67128,2.347C29.92985,40.30567,26.07452,42,26.07452,42S27.25856,37.95867,28.02844,37.08242Z" transform="translate(0.00071 0)"/><path class="cls-5" d="M11.47517,10.3668a4.4668,4.4668,0,0,0,.70737.80967,3.629,3.629,0,0,0,.90279.61763,2.43346,2.43346,0,0,0,1.17053.23349,2.29472,2.29472,0,0,0,1.08136-.38211l-.51867-.94126a.94256.94256,0,0,1-.99776-.184,2.18424,2.18424,0,0,1-.40416-.4674,2.66726,2.66726,0,0,1-.29493-.56611Z" transform="translate(0.00071 0)"/><path class="cls-5" d="M4.9784,36.51585a.68047.68047,0,0,0,.348-.38927l3.272-9.35227a.68229.68229,0,1,0-1.288-.45062L4.03838,35.676a.68216.68216,0,0,0,.94.83989Z" transform="translate(0.00071 0)"/><path class="cls-3" d="M16.09529,27.43382a.67356.67356,0,1,0,.31452-.89916A.67356.67356,0,0,0,16.09529,27.43382Z" transform="translate(0.00071 0)"/><path class="cls-3" d="M15.154,25.47954a.67358.67358,0,1,0,.31453-.89922A.67362.67362,0,0,0,15.154,25.47954Z" transform="translate(0.00071 0)"/><path class="cls-3" d="M14.2127,23.5252a.67358.67358,0,1,0,.31453-.89922A.67362.67362,0,0,0,14.2127,23.5252Z" transform="translate(0.00071 0)"/></g></svg>