<svg id="Layer_1" data-name="Layer 1" xmlns="http://www.w3.org/2000/svg" viewBox="0 0 48 48"><defs><style>.cls-1{fill:none;}.cls-2{fill:#f2cd38;}.cls-3{fill:#eb5a76;}.cls-4{fill:#3254c7;}</style></defs><rect class="cls-1" /><g id="SD_Land-_en_tuinboom" data-name="SD Land- en tuinboom"><path class="cls-2" d="M44,44l-5.45312-5.08948a2.99993,2.99993,0,0,0-4.09376,0l-2.15618,2.01241a3,3,0,0,1-4.09388,0l-2.15618-2.01241a2.99991,2.99991,0,0,0-4.09376,0l-2.15618,2.01241a3,3,0,0,1-4.09388,0l-2.15618-2.01241a2.99991,2.99991,0,0,0-4.09376,0L4,44,16.5,44V44L29,44V44Z" transform="translate(0.00071 0)"/><path class="cls-3" d="M29.25,22h0a0,0,0,0,1,0,0v4a6,6,0,0,1-6,6h0a0,0,0,0,1,0,0V28A6,6,0,0,1,29.25,22Z" transform="translate(52.50082 54.00002) rotate(180)"/><path class="cls-4" d="M24.75009,38.211V31.80327a5.991,5.991,0,0,1-1.5.19671v6.211A2.9924,2.9924,0,0,1,24.75009,38.211Z" transform="translate(0.00071 0)"/><path class="cls-4" d="M24.75009,24.04045v-.317a6,6,0,0,0-6-6v4a5.997,5.997,0,0,0,4.52369,5.80939A5.96588,5.96588,0,0,1,24.75009,24.04045Z" transform="translate(0.00071 0)"/><path class="cls-3" d="M11.00009,36.81627v1.33325a3.01151,3.01151,0,0,1,1,0V35a3.00007,3.00007,0,0,0-3-3v2A2.991,2.991,0,0,0,11.00009,36.81627Z" transform="translate(0.00071 0)"/><path class="cls-4" d="M14.00009,31a2.99205,2.99205,0,0,0-2.8059,1.9668A2.98079,2.98079,0,0,1,12.00009,35v.81629a2.9913,2.9913,0,0,0,2-2.81629V31Z" transform="translate(0.00071 0)"/><path class="cls-3" d="M31.25077,11h0a6,6,0,0,1,6,6v4a0,0,0,0,1,0,0h0a6,6,0,0,1-6-6V11A0,0,0,0,1,31.25077,11Z"/><path class="cls-4" d="M41.75009,7a6,6,0,0,0-6,6v.04053a5.96847,5.96847,0,0,1,1.49024,3.76532A5.997,5.997,0,0,0,41.75009,11V7Z" transform="translate(0.00071 0)"/><path class="cls-3" d="M41.75,26h0a0,0,0,0,1,0,0v4a6,6,0,0,1-6,6h0a0,0,0,0,1,0,0V32A6,6,0,0,1,41.75,26Z" transform="translate(77.50082 62.00002) rotate(-180)"/><path class="cls-4" d="M37.25009,28.04045V21a5.99106,5.99106,0,0,1-1.5-.19665v3.23718A5.9798,5.9798,0,0,0,31.25009,22v4a5.99677,5.99677,0,0,0,4.50977,5.80585A5.96866,5.96866,0,0,1,37.25009,28.04045Z" transform="translate(0.00071 0)"/><path class="cls-4" d="M37.25009,38.211V35.80327a5.991,5.991,0,0,1-1.5.19671v2.211A2.99308,2.99308,0,0,1,37.25009,38.211Z" transform="translate(0.00071 0)"/><circle class="cls-2" cx="11.50077" cy="11.50001" r="4.41825"/><path class="cls-3" d="M9.34629,4.29082a.44167.44167,0,0,0-.56617-.264H8.78a.44179.44179,0,0,0-.264.56628l.6045,1.66071a.44181.44181,0,1,0,.83032-.30225ZM13.87973,16.7462a.44181.44181,0,1,0-.83032.30225l.60437,1.6607a.44186.44186,0,0,0,.83045-.30218Zm.98133-12.45392a.44167.44167,0,0,0-.587.21369L13.527,6.10771a.44189.44189,0,0,0,.801.37341l.74682-1.60168A.44187.44187,0,0,0,14.86106,4.29228ZM9.25937,16.30516a.44181.44181,0,0,0-.58716.21368l-.74682,1.60175a.44178.44178,0,1,0,.80078.37341l.747-1.60168A.44177.44177,0,0,0,9.25937,16.30516ZM18.97324,8.78a.44162.44162,0,0,0-.56616-.264l-1.66077.60444a.44182.44182,0,0,0,.30212.83038l1.66089-.60449A.44175.44175,0,0,0,18.97324,8.78ZM5.95163,13.0493l-1.66076.60443a.44184.44184,0,0,0,.30224.83038l1.66065-.60449a.44179.44179,0,1,0-.30213-.83032Zm12.54248,1.22455L16.89243,13.527a.44184.44184,0,0,0-.37354.80084l1.60181.74689a.44181.44181,0,1,0,.37341-.80084ZM6.4813,8.67216,4.87949,7.92528a.44184.44184,0,0,0-.37354.80084L6.10776,9.473a.44184.44184,0,0,0,.37354-.80085Z" transform="translate(0.00071 0)"/></g></svg>