<svg  viewBox="0 0 48 48" fill="none" xmlns="http://www.w3.org/2000/svg">
<path d="M16.762 28.502H20.902V30.5H14.242V17.936H16.762V28.502ZM30.8197 20.654C30.6997 20.15 30.4897 19.772 30.1897 19.52C29.9017 19.268 29.4817 19.142 28.9297 19.142C28.1017 19.142 27.4897 19.478 27.0937 20.15C26.7097 20.81 26.5117 21.89 26.4997 23.39C26.7877 22.91 27.2077 22.538 27.7597 22.274C28.3117 21.998 28.9117 21.86 29.5597 21.86C30.3397 21.86 31.0297 22.028 31.6297 22.364C32.2297 22.7 32.6977 23.192 33.0337 23.84C33.3697 24.476 33.5377 25.244 33.5377 26.144C33.5377 26.996 33.3637 27.758 33.0157 28.43C32.6797 29.09 32.1817 29.606 31.5217 29.978C30.8617 30.35 30.0757 30.536 29.1637 30.536C27.9157 30.536 26.9317 30.26 26.2117 29.708C25.5037 29.156 25.0057 28.388 24.7177 27.404C24.4417 26.408 24.3037 25.184 24.3037 23.732C24.3037 21.536 24.6817 19.88 25.4377 18.764C26.1937 17.636 27.3877 17.072 29.0197 17.072C30.2797 17.072 31.2577 17.414 31.9537 18.098C32.6497 18.782 33.0517 19.634 33.1597 20.654H30.8197ZM28.9837 23.93C28.3477 23.93 27.8137 24.116 27.3817 24.488C26.9497 24.86 26.7337 25.4 26.7337 26.108C26.7337 26.816 26.9317 27.374 27.3277 27.782C27.7357 28.19 28.3057 28.394 29.0377 28.394C29.6857 28.394 30.1957 28.196 30.5677 27.8C30.9517 27.404 31.1437 26.87 31.1437 26.198C31.1437 25.502 30.9577 24.95 30.5857 24.542C30.2257 24.134 29.6917 23.93 28.9837 23.93Z" fill="#3254C7"/>
</svg>
