<svg  viewBox="0 0 48 48" fill="none" xmlns="http://www.w3.org/2000/svg">
<path d="M17.262 28.502H21.402V30.5H14.742V17.936H17.262V28.502ZM25.3077 27.656C26.4597 26.696 27.3777 25.898 28.0617 25.262C28.7457 24.614 29.3157 23.942 29.7717 23.246C30.2277 22.55 30.4557 21.866 30.4557 21.194C30.4557 20.582 30.3117 20.102 30.0237 19.754C29.7357 19.406 29.2917 19.232 28.6917 19.232C28.0917 19.232 27.6297 19.436 27.3057 19.844C26.9817 20.24 26.8137 20.786 26.8017 21.482H24.3537C24.4017 20.042 24.8277 18.95 25.6317 18.206C26.4477 17.462 27.4797 17.09 28.7277 17.09C30.0957 17.09 31.1457 17.456 31.8777 18.188C32.6097 18.908 32.9757 19.862 32.9757 21.05C32.9757 21.986 32.7237 22.88 32.2197 23.732C31.7157 24.584 31.1397 25.328 30.4917 25.964C29.8437 26.588 28.9977 27.344 27.9537 28.232H33.2637V30.32H24.3717V28.448L25.3077 27.656Z" fill="#3254C7"/>
</svg>
