<svg  viewBox="0 0 48 48" fill="none" xmlns="http://www.w3.org/2000/svg">
<path d="M16.762 28.502H20.902V30.5H14.242V17.936H16.762V28.502ZM32.8357 19.556H27.0037V22.634C27.2557 22.322 27.6157 22.07 28.0837 21.878C28.5517 21.674 29.0497 21.572 29.5777 21.572C30.5377 21.572 31.3237 21.782 31.9357 22.202C32.5477 22.622 32.9917 23.162 33.2677 23.822C33.5437 24.47 33.6817 25.166 33.6817 25.91C33.6817 27.29 33.2857 28.4 32.4937 29.24C31.7137 30.08 30.5977 30.5 29.1457 30.5C27.7777 30.5 26.6857 30.158 25.8697 29.474C25.0537 28.79 24.5917 27.896 24.4837 26.792H26.9317C27.0397 27.272 27.2797 27.656 27.6517 27.944C28.0357 28.232 28.5217 28.376 29.1097 28.376C29.8177 28.376 30.3517 28.154 30.7117 27.71C31.0717 27.266 31.2517 26.678 31.2517 25.946C31.2517 25.202 31.0657 24.638 30.6937 24.254C30.3337 23.858 29.7997 23.66 29.0917 23.66C28.5877 23.66 28.1677 23.786 27.8317 24.038C27.4957 24.29 27.2557 24.626 27.1117 25.046H24.6997V17.342H32.8357V19.556Z" fill="#3254C7"/>
</svg>
