<svg  viewBox="0 0 128 128" fill="none" xmlns="http://www.w3.org/2000/svg">
<g clip-path="url(#clip0)">
<path d="M45.9064 72.9661L46.3849 71.0005C46.4546 70.708 46.6199 70.4472 46.8545 70.2591C47.0891 70.071 47.3797 69.9664 47.6803 69.9619C47.9318 69.96 48.1838 69.9125 48.435 69.9011C48.6807 67.4238 49.2661 64.9921 50.1744 62.6744C47.6955 63.1767 45.1253 62.9724 42.7569 62.0847C40.3884 61.1971 38.317 59.6618 36.7788 57.654C35.2406 55.6462 34.2975 53.2465 34.0569 50.7287C33.8164 48.2108 34.2882 45.676 35.4184 43.4133C36.5487 41.1505 38.292 39.2509 40.4495 37.9309C42.6071 36.6109 45.0921 35.9237 47.6214 35.9476C50.1506 35.9714 52.6222 36.7055 54.7544 38.066C56.8867 39.4265 58.5938 41.3587 59.6811 43.6424C60.8381 46.095 61.2195 48.8421 60.7745 51.5171C62.0873 50.8188 63.5432 50.432 65.0294 50.3867C66.5157 50.3413 67.9924 50.6386 69.3454 51.2555C69.9054 51.2021 70.5694 51.1667 71.2985 51.1635C71.2084 51.1092 71.1123 51.0657 71.0121 51.0339L69.0459 50.5555C68.7535 50.4857 68.4926 50.3205 68.3046 50.0859C68.1165 49.8514 68.012 49.5609 68.0075 49.2603C67.9916 47.2741 67.6856 45.3009 67.0993 43.4032C67.0129 43.1155 67.0248 42.8073 67.1332 42.5272C67.2416 42.2471 67.4402 42.0111 67.6977 41.8565L69.4275 40.8035C69.7154 40.6273 69.9282 40.3512 70.0254 40.028C70.1226 39.7048 70.0972 39.3571 69.9542 39.0515C69.1709 37.3534 68.1956 35.7507 67.0475 34.2747C66.8417 34.0072 66.5446 33.8249 66.2129 33.7627C65.8812 33.7005 65.5382 33.7626 65.2494 33.9373L63.5195 34.9904C63.2637 35.1479 62.9628 35.2158 62.6641 35.1832C62.3655 35.1506 62.0862 35.0194 61.8705 34.8104C60.4545 33.4177 58.8426 32.2394 57.0859 31.3128C56.8208 31.1708 56.6106 30.9445 56.4886 30.6696C56.3665 30.3948 56.3396 30.0871 56.412 29.7952L56.8921 27.8293C56.9709 27.5007 56.9258 27.1546 56.7654 26.8572C56.605 26.5598 56.3406 26.332 56.0227 26.2173C54.269 25.5749 52.4486 25.1319 50.5958 24.8965C50.2607 24.8524 49.9212 24.9333 49.6421 25.1238C49.3629 25.3143 49.1638 25.601 49.0827 25.9291L48.6027 27.8949C48.5329 28.1874 48.3677 28.4482 48.1331 28.6363C47.8985 28.8243 47.6079 28.9288 47.3073 28.9333C45.3212 28.9491 43.3481 29.255 41.4504 29.8413C41.1629 29.9276 40.8547 29.9157 40.5746 29.8075C40.2946 29.6992 40.0585 29.5008 39.9038 29.2435L38.8505 27.5131C38.6742 27.2253 38.3981 27.0125 38.0749 26.9154C37.7518 26.8183 37.4041 26.8437 37.0984 26.9867C35.4007 27.7703 33.7981 28.7455 32.3219 29.8933C32.0546 30.0992 31.8724 30.3963 31.8102 30.7279C31.748 31.0595 31.81 31.4024 31.9846 31.6912L33.0374 33.4216C33.1951 33.6772 33.2631 33.9782 33.2305 34.2768C33.198 34.5755 33.0668 34.8547 32.8577 35.0704C31.4647 36.4867 30.2864 38.0992 29.3601 39.8565C29.218 40.1215 28.9916 40.3316 28.7168 40.4536C28.4419 40.5755 28.1343 40.6024 27.8424 40.5299L25.8763 40.0515C25.5477 39.9727 25.2016 40.0178 24.9042 40.1782C24.6068 40.3386 24.379 40.603 24.2643 40.9208C23.6219 42.6747 23.1787 44.4953 22.9432 46.3483C22.8995 46.6832 22.9805 47.0226 23.1709 47.3016C23.3614 47.5806 23.6479 47.7798 23.9758 47.8611L25.9419 48.3395C26.2344 48.4092 26.4953 48.5745 26.6833 48.8091C26.8714 49.0437 26.9759 49.3343 26.9803 49.6349C26.9964 51.621 27.3024 53.5941 27.8886 55.4917C27.9749 55.7793 27.963 56.0875 27.8547 56.3676C27.7464 56.6477 27.5478 56.8837 27.2904 57.0384L25.56 58.0917C25.2722 58.2678 25.0594 58.5439 24.9622 58.867C24.865 59.1902 24.8904 59.5378 25.0334 59.8435C25.8162 61.5417 26.7915 63.1445 27.94 64.6203C28.1459 64.8877 28.443 65.07 28.7747 65.1322C29.1064 65.1944 29.4494 65.1323 29.7382 64.9576L31.468 63.9045C31.7238 63.747 32.0248 63.6792 32.3234 63.7117C32.6221 63.7443 32.9013 63.8755 33.1171 64.0845C34.533 65.4773 36.1449 66.6556 37.9017 67.5821C38.1667 67.7242 38.3768 67.9505 38.4988 68.2254C38.6208 68.5002 38.6477 68.8079 38.5753 69.0997L38.0968 71.0656C38.0179 71.3941 38.0629 71.7403 38.2232 72.0377C38.3836 72.3352 38.648 72.563 38.9659 72.6776C40.7197 73.32 42.5402 73.763 44.3931 73.9984C44.7282 74.0426 45.0678 73.9617 45.3469 73.7713C45.6261 73.5808 45.8253 73.2942 45.9064 72.9661Z" fill="#3254C7"/>
<path d="M54.889 51.245C55.8779 47.1755 53.3688 43.072 49.2847 42.0795C45.2006 41.0871 41.0881 43.5815 40.0992 47.651C39.1103 51.7205 41.6194 55.8241 45.7035 56.8165C49.7876 57.809 53.9001 55.3145 54.889 51.245Z" fill="#3254C7"/>
<path d="M79.0993 104.928C78.2656 107.099 76.7773 108.956 74.8407 110.242C72.9042 111.528 70.6153 112.181 68.2916 112.108C66.077 112.13 63.9018 111.522 62.0194 110.355C60.1371 109.188 58.625 107.51 57.6596 105.517L47.6062 107.627C46.0075 107.755 44.456 108.231 43.0609 109.022C42.0909 109.549 41.2915 110.342 40.7564 111.307C40.2213 112.273 39.9728 113.371 40.0401 114.473H96.5417V114.42C96.603 113.204 96.2861 111.999 95.6346 110.971C94.9831 109.943 94.029 109.142 92.9036 108.678C91.8385 108.149 90.6949 107.795 89.5169 107.631L79.0993 104.928Z" fill="#3254C7"/>
<path d="M48.3296 76.7885C48.6137 76.0021 49.0655 75.2869 49.6536 74.6925C49.6986 74.6453 49.7416 74.5967 49.7869 74.5514C49.925 74.4181 50.0714 74.2973 50.2218 74.1781C50.3325 74.0895 50.4445 74.0037 50.5618 73.9231C50.6725 73.8485 50.7856 73.7791 50.9016 73.7122C51.0775 73.6087 51.2591 73.5148 51.4453 73.4311C51.5253 73.3949 51.6053 73.3599 51.6901 73.3274C51.922 73.2361 52.1597 73.1601 52.4016 73.0999C52.4386 73.0909 52.472 73.0733 52.5082 73.0658V71.649C52.5082 71.1157 52.5362 70.589 52.5882 70.069C56.3165 68.455 60.3368 67.6252 64.3994 67.6311C71.5511 67.0181 78.749 68.0286 85.4554 70.5871C85.4794 70.9397 85.5088 71.2906 85.5088 71.649V73.0663C85.6285 73.093 85.7386 73.1429 85.8554 73.1773C86.0216 73.2279 86.1906 73.2706 86.3501 73.3357C86.9561 73.5752 87.5175 73.9149 88.0109 74.3405C87.9178 71.7927 87.7272 68.9639 87.3898 65.7781C85.8672 51.3914 74.0762 50.809 69.3424 51.2567C64.169 47.7871 46.8965 54.2125 48.2688 75.9535C48.2898 76.2426 48.3106 76.5101 48.3296 76.7885Z" fill="#EB5A76"/>
<path d="M86.9896 85.3141C86.3851 85.6496 85.7247 85.8725 85.0405 85.972C84.3101 88.9077 82.7405 91.5671 80.5234 93.6253H85.5008C86.7795 90.8581 87.5339 87.8778 87.7258 84.8354C87.5813 84.9458 87.4218 85.0363 87.2682 85.1336C87.1733 85.1915 87.0872 85.2613 86.9896 85.3141Z" fill="#EB5A76"/>
<path d="M52.9762 85.9595C52.9074 85.9497 52.8448 85.9243 52.777 85.9121C52.5289 85.8704 52.2838 85.8123 52.0434 85.7382C51.8834 85.6881 51.7368 85.6187 51.5845 85.5555C51.252 85.4185 50.9333 85.2504 50.6325 85.0534C50.4327 84.9271 50.2407 84.7888 50.0576 84.6393C49.9242 84.5262 49.8037 84.4057 49.6821 84.2811C49.4861 84.0826 49.3049 83.8702 49.1397 83.6454C49.0864 83.5731 49.0154 83.5163 48.9658 83.4414C49.764 89.5609 50.8592 92.3766 51.8192 93.6249H57.4976C55.2769 91.5639 53.7056 88.9 52.9762 85.9595V85.9595Z" fill="#EB5A76"/>
<path d="M85.5111 73.0664V71.649C85.5111 71.2906 85.481 70.9397 85.4578 70.5872C78.7513 68.0286 71.5535 67.0181 64.4018 67.6312C60.3392 67.6252 56.3188 68.4551 52.5906 70.069C52.5372 70.589 52.5106 71.1157 52.5106 71.649V73.0664C51.2299 73.3578 50.0861 74.0753 49.2663 75.1015C48.4466 76.1277 47.9994 77.4017 47.998 78.7152V80.2381C48.0005 81.6314 48.5053 82.977 49.42 84.028C50.3346 85.079 51.5977 85.7649 52.9772 85.9597C53.5227 88.1579 54.5366 90.2122 55.9496 91.9823C57.3626 93.7523 59.1412 95.1962 61.1639 96.2152V102.333C61.1574 103.01 60.9373 103.668 60.5352 104.213C60.133 104.758 59.5691 105.162 58.9239 105.368L57.773 105.75C58.7682 107.677 60.2779 109.292 62.1345 110.414C63.9911 111.536 66.1223 112.123 68.2916 112.108C70.5461 112.163 72.7659 111.545 74.6671 110.333C76.5683 109.12 78.0645 107.367 78.9642 105.299C78.3534 105.077 77.8246 104.675 77.4483 104.145C77.072 103.615 76.8659 102.983 76.8575 102.333V96.2152C78.8802 95.1962 80.6589 93.7524 82.0719 91.9823C83.4849 90.2123 84.4988 88.1579 85.0442 85.9597C86.4237 85.7648 87.6866 85.0789 88.6012 84.0279C89.5157 82.9769 90.0205 81.6313 90.0228 80.2381V78.7152C90.0216 77.4018 89.5745 76.1279 88.7549 75.1017C87.9353 74.0755 86.7917 73.3579 85.5111 73.0664V73.0664Z" fill="#F2CD38"/>
<path d="M104.371 31.8327L103.081 32.0578C102.89 32.0922 102.693 32.0619 102.521 31.9718C102.349 31.8817 102.212 31.7369 102.132 31.5602C101.608 30.3876 100.917 29.2978 100.078 28.3252C99.9523 28.1771 99.8793 27.9912 99.8709 27.797C99.8624 27.6027 99.919 27.4112 100.032 27.2527L100.784 26.1826C100.909 26.0034 100.963 25.7845 100.937 25.5676C100.911 25.3508 100.805 25.1512 100.641 25.0071C99.7375 24.2062 98.7464 23.5096 97.6868 22.9306C97.4956 22.8249 97.2722 22.7934 97.0593 22.8421C96.8463 22.8908 96.6588 23.0163 96.5326 23.1946L95.7804 24.2644C95.6695 24.4242 95.5085 24.5424 95.3229 24.6004C95.1373 24.6583 94.9377 24.6527 94.7556 24.5844C93.5566 24.1249 92.2969 23.843 91.0164 23.7476C90.8228 23.7317 90.6401 23.6518 90.4971 23.5204C90.354 23.3891 90.2588 23.2138 90.2265 23.0223L90.0015 21.7322C89.9632 21.5174 89.8473 21.3243 89.6757 21.1895C89.5042 21.0548 89.289 20.988 89.0713 21.0018C87.8644 21.0721 86.6695 21.2805 85.51 21.6228C85.3005 21.6836 85.1207 21.8194 85.0049 22.0043C84.8891 22.1892 84.8454 22.4102 84.8822 22.6252L85.1073 23.9154C85.1417 24.1065 85.1115 24.3036 85.0214 24.4756C84.9313 24.6477 84.7864 24.7847 84.6097 24.8652C83.4372 25.3885 82.3474 26.0803 81.3748 26.9186C81.2267 27.0445 81.0408 27.1175 80.8466 27.126C80.6523 27.1345 80.4608 27.078 80.3023 26.9655L79.2324 26.2132C79.0532 26.0882 78.8343 26.0337 78.6175 26.0599C78.4006 26.0862 78.201 26.1915 78.0569 26.3556C77.2561 27.2594 76.5594 28.2505 75.9801 29.31C75.8745 29.5013 75.843 29.7247 75.8917 29.9377C75.9404 30.1506 76.0659 30.3382 76.2441 30.4644L77.3143 31.2164C77.474 31.3274 77.5921 31.4884 77.6501 31.6741C77.708 31.8597 77.7025 32.0594 77.6343 32.2415C77.1747 33.4405 76.8928 34.7002 76.7975 35.9807C76.7816 36.1742 76.7017 36.3569 76.5703 36.5C76.439 36.643 76.2638 36.7382 76.0724 36.7706L74.7823 36.9956C74.5675 37.0337 74.3742 37.1496 74.2394 37.3211C74.1046 37.4926 74.0378 37.7078 74.0516 37.9255C74.1222 39.1324 74.3307 40.3273 74.6729 41.4868C74.7336 41.6964 74.8693 41.8762 75.0542 41.992C75.239 42.1078 75.4601 42.1514 75.6751 42.1146L76.9652 41.8895C77.1563 41.8551 77.3534 41.8853 77.5255 41.9754C77.6975 42.0655 77.8346 42.2104 77.9151 42.3871C78.4383 43.5597 79.1301 44.6496 79.9684 45.6223C80.0944 45.7704 80.1674 45.9562 80.1759 46.1504C80.1844 46.3446 80.1279 46.5361 80.0153 46.6946L79.2631 47.7647C79.1381 47.9439 79.0835 48.1628 79.1099 48.3797C79.1362 48.5965 79.2415 48.7961 79.4057 48.9402C80.3094 49.741 81.3003 50.4376 82.3599 51.0167C82.551 51.1224 82.7745 51.1539 82.9874 51.1053C83.2004 51.0566 83.3879 50.9312 83.5143 50.753L84.2665 49.6828C84.3774 49.5231 84.5384 49.4049 84.724 49.347C84.9096 49.289 85.1092 49.2946 85.2913 49.3628C86.4903 49.8225 87.75 50.1044 89.0305 50.1996C89.2241 50.2155 89.4068 50.2955 89.5498 50.4268C89.6929 50.5582 89.7881 50.7335 89.8204 50.925L90.0454 52.2151C90.0836 52.4299 90.1994 52.6231 90.3709 52.7579C90.5425 52.8927 90.7576 52.9595 90.9753 52.9458C92.1823 52.8752 93.3773 52.6667 94.5369 52.3244C94.7464 52.2636 94.9261 52.1278 95.0419 51.9429C95.1576 51.758 95.2012 51.537 95.1644 51.322L94.9393 50.0319C94.9049 49.8408 94.9352 49.6437 95.0253 49.4717C95.1154 49.2997 95.2602 49.1626 95.4369 49.082C96.6096 48.5589 97.6995 47.8671 98.6721 47.0287C98.8202 46.9028 99.006 46.8298 99.2002 46.8213C99.3944 46.8128 99.5859 46.8693 99.7444 46.9818L100.815 47.734C100.994 47.859 101.213 47.9136 101.429 47.8873C101.646 47.8611 101.846 47.7558 101.99 47.5916C102.791 46.6878 103.487 45.6968 104.067 44.6372C104.172 44.446 104.204 44.2226 104.155 44.0096C104.107 43.7967 103.981 43.6091 103.803 43.4828L102.733 42.7308C102.573 42.6199 102.455 42.4589 102.397 42.2732C102.339 42.0876 102.344 41.8879 102.413 41.7058C102.872 40.5068 103.154 39.2471 103.249 37.9666C103.265 37.7731 103.345 37.5904 103.477 37.4473C103.608 37.3043 103.783 37.2091 103.975 37.1767L105.265 36.9516C105.479 36.9136 105.673 36.7977 105.807 36.6262C105.942 36.4547 106.009 36.2395 105.995 36.0218C105.925 34.8149 105.716 33.62 105.374 32.4604C105.313 32.2509 105.177 32.071 104.992 31.9552C104.807 31.8394 104.586 31.7958 104.371 31.8327V31.8327ZM92.3916 45.3716C90.6571 45.8608 88.8137 45.8011 87.1145 45.2006C85.4154 44.6001 83.9438 43.4883 82.9018 42.0179C81.8599 40.5475 81.2987 38.7906 81.2953 36.9884C81.292 35.1863 81.8466 33.4273 82.8831 31.953C83.9195 30.4787 85.387 29.3614 87.0839 28.7546C88.7808 28.1478 90.624 28.0811 92.3602 28.5639C94.0965 29.0466 95.6408 30.055 96.781 31.4506C97.9212 32.8462 98.6014 34.5606 98.7281 36.3583C98.8689 38.3601 98.3156 40.3493 97.1615 41.991C96.0074 43.6326 94.3229 44.8265 92.3916 45.3716V45.3716Z" fill="#3254C7"/>
<path d="M94.0486 39.8012C95.6049 37.5857 95.064 34.5235 92.8405 32.9616C90.617 31.3997 87.5529 31.9296 85.9966 34.1451C84.4403 36.3607 84.9812 39.4229 87.2047 40.9848C89.4282 42.5466 92.4923 42.0167 94.0486 39.8012Z" fill="#3254C7"/>
</g>
<defs>
<clipPath id="clip0">
<path d="M0 16C0 7.16344 7.16344 0 16 0H112C120.837 0 128 7.16344 128 16V112C128 120.837 120.837 128 112 128H16C7.16344 128 0 120.837 0 112V16Z" fill="white"/>
</clipPath>
</defs>
</svg>
