<svg  viewBox="0 0 48 48" fill="none" xmlns="http://www.w3.org/2000/svg">
<path d="M17.262 28.502H21.402V30.5H14.742V17.936H17.262V28.502ZM24.5517 20.834C24.6117 19.634 25.0317 18.71 25.8117 18.062C26.6037 17.402 27.6417 17.072 28.9257 17.072C29.8017 17.072 30.5517 17.228 31.1757 17.54C31.7997 17.84 32.2677 18.254 32.5797 18.782C32.9037 19.298 33.0657 19.886 33.0657 20.546C33.0657 21.302 32.8677 21.944 32.4717 22.472C32.0877 22.988 31.6257 23.336 31.0857 23.516V23.588C31.7817 23.804 32.3217 24.188 32.7057 24.74C33.1017 25.292 33.2997 26 33.2997 26.864C33.2997 27.584 33.1317 28.226 32.7957 28.79C32.4717 29.354 31.9857 29.798 31.3377 30.122C30.7017 30.434 29.9337 30.59 29.0337 30.59C27.6777 30.59 26.5737 30.248 25.7217 29.564C24.8697 28.88 24.4197 27.872 24.3717 26.54H26.8197C26.8437 27.128 27.0417 27.602 27.4137 27.962C27.7977 28.31 28.3197 28.484 28.9797 28.484C29.5917 28.484 30.0597 28.316 30.3837 27.98C30.7197 27.632 30.8877 27.188 30.8877 26.648C30.8877 25.928 30.6597 25.412 30.2037 25.1C29.7477 24.788 29.0397 24.632 28.0797 24.632H27.5577V22.562H28.0797C29.7837 22.562 30.6357 21.992 30.6357 20.852C30.6357 20.336 30.4797 19.934 30.1677 19.646C29.8677 19.358 29.4297 19.214 28.8537 19.214C28.2897 19.214 27.8517 19.37 27.5397 19.682C27.2397 19.982 27.0657 20.366 27.0177 20.834H24.5517Z" fill="#3254C7"/>
</svg>
