<svg  viewBox="0 0 128 128" fill="none" xmlns="http://www.w3.org/2000/svg">
<path d="M44.3088 67.9661L44.7872 66.0005C44.857 65.708 45.0222 65.4471 45.2568 65.2591C45.4914 65.071 45.782 64.9664 46.0827 64.9619C46.3341 64.96 46.5861 64.9125 46.8373 64.9011C47.0831 62.4238 47.6684 59.9921 48.5768 57.6744C46.0978 58.1767 43.5276 57.9724 41.1592 57.0847C38.7907 56.1971 36.7193 54.6618 35.1811 52.654C33.6429 50.6462 32.6998 48.2465 32.4593 45.7287C32.2188 43.2108 32.6905 40.676 33.8208 38.4133C34.951 36.1505 36.6943 34.2509 38.8519 32.9309C41.0095 31.6109 43.4945 30.9237 46.0237 30.9476C48.5529 30.9714 51.0245 31.7055 53.1568 33.066C55.289 34.4265 56.9961 36.3587 58.0835 38.6424C59.2404 41.095 59.6218 43.8421 59.1768 46.5171C60.4896 45.8188 61.9455 45.432 63.4317 45.3867C64.918 45.3413 66.3948 45.6386 67.7477 46.2555C68.3077 46.2021 68.9717 46.1667 69.7008 46.1635C69.6107 46.1092 69.5146 46.0657 69.4144 46.0339L67.4483 45.5555C67.1558 45.4857 66.895 45.3205 66.7069 45.0859C66.5189 44.8514 66.4143 44.5609 66.4099 44.2603C66.394 42.2741 66.088 40.3009 65.5016 38.4032C65.4152 38.1155 65.4272 37.8073 65.5355 37.5272C65.6439 37.2471 65.8425 37.0111 66.1 36.8565L67.8299 35.8035C68.1177 35.6273 68.3306 35.3512 68.4277 35.028C68.5249 34.7048 68.4995 34.3571 68.3565 34.0515C67.5732 32.3534 66.598 30.7507 65.4499 29.2747C65.244 29.0072 64.9469 28.8249 64.6152 28.7627C64.2835 28.7005 63.9405 28.7626 63.6517 28.9373L61.9219 29.9904C61.6661 30.1479 61.3651 30.2158 61.0665 30.1832C60.7678 30.1506 60.4886 30.0194 60.2728 29.8104C58.8568 28.4177 57.2449 27.2394 55.4883 26.3128C55.2231 26.1708 55.0129 25.9445 54.8909 25.6696C54.7688 25.3948 54.7419 25.0871 54.8144 24.7952L55.2944 22.8293C55.3732 22.5007 55.3281 22.1546 55.1678 21.8572C55.0074 21.5598 54.7429 21.332 54.4251 21.2173C52.6713 20.5749 50.8509 20.1319 48.9981 19.8965C48.6631 19.8524 48.3235 19.9333 48.0444 20.1238C47.7653 20.3143 47.5661 20.601 47.4851 20.9291L47.0051 22.8949C46.9353 23.1874 46.77 23.4482 46.5354 23.6363C46.3008 23.8243 46.0102 23.9288 45.7096 23.9333C43.7235 23.9491 41.7504 24.255 39.8528 24.8413C39.5652 24.9276 39.2571 24.9157 38.977 24.8075C38.6969 24.6992 38.4609 24.5008 38.3061 24.2435L37.2528 22.5131C37.0765 22.2253 36.8005 22.0125 36.4773 21.9154C36.1541 21.8183 35.8065 21.8437 35.5008 21.9867C33.803 22.7703 32.2004 23.7455 30.7243 24.8933C30.4569 25.0992 30.2747 25.3963 30.2125 25.7279C30.1503 26.0595 30.2124 26.4024 30.3869 26.6912L31.4397 28.4216C31.5975 28.6772 31.6654 28.9782 31.6329 29.2768C31.6003 29.5755 31.4691 29.8547 31.26 30.0704C29.867 31.4867 28.6887 33.0992 27.7624 34.8565C27.6203 35.1215 27.394 35.3316 27.1191 35.4536C26.8443 35.5755 26.5366 35.6024 26.2448 35.5299L24.2787 35.0515C23.9501 34.9727 23.604 35.0178 23.3066 35.1782C23.0092 35.3386 22.7814 35.603 22.6667 35.9208C22.0242 37.6747 21.5811 39.4953 21.3456 41.3483C21.3018 41.6832 21.3828 42.0226 21.5733 42.3016C21.7637 42.5806 22.0502 42.7798 22.3781 42.8611L24.3443 43.3395C24.6367 43.4092 24.8976 43.5745 25.0857 43.8091C25.2737 44.0437 25.3782 44.3343 25.3827 44.6349C25.3987 46.621 25.7047 48.5941 26.2909 50.4917C26.3773 50.7793 26.3653 51.0875 26.257 51.3676C26.1487 51.6477 25.9502 51.8837 25.6928 52.0384L23.9624 53.0917C23.6745 53.2678 23.4617 53.5439 23.3645 53.867C23.2674 54.1902 23.2927 54.5378 23.4357 54.8435C24.2186 56.5417 25.1939 58.1445 26.3424 59.6203C26.5482 59.8877 26.8454 60.07 27.1771 60.1322C27.5088 60.1944 27.8518 60.1323 28.1405 59.9576L29.8704 58.9045C30.1262 58.747 30.4272 58.6791 30.7258 58.7117C31.0244 58.7443 31.3037 58.8755 31.5195 59.0845C32.9354 60.4773 34.5472 61.6556 36.304 62.5821C36.569 62.7242 36.7791 62.9505 36.9011 63.2254C37.0231 63.5002 37.05 63.8079 36.9776 64.0997L36.4992 66.0656C36.4202 66.3941 36.4652 66.7403 36.6256 67.0377C36.7859 67.3352 37.0504 67.563 37.3683 67.6776C39.1221 68.32 40.9426 68.763 42.7955 68.9984C43.1305 69.0426 43.4701 68.9617 43.7493 68.7713C44.0285 68.5808 44.2277 68.2942 44.3088 67.9661Z" fill="#3254C7"/>
<path d="M53.2914 46.245C54.2803 42.1755 51.7711 38.072 47.687 37.0795C43.6029 36.0871 39.4904 38.5815 38.5015 42.651C37.5126 46.7205 40.0218 50.8241 44.1059 51.8165C48.19 52.809 52.3025 50.3145 53.2914 46.245Z" fill="#3254C7"/>
<path d="M77.5016 99.928C76.6679 102.098 75.1796 103.955 73.2431 105.242C71.3065 106.528 69.0177 107.18 66.6939 107.107C64.4793 107.129 62.3041 106.522 60.4218 105.355C58.5394 104.188 57.0274 102.51 56.0619 100.517L46.0086 102.627C44.4098 102.754 42.8584 103.23 41.4632 104.021C40.4932 104.548 39.6938 105.341 39.1587 106.307C38.6236 107.273 38.3752 108.371 38.4424 109.473H94.944V109.419C95.0053 108.204 94.6884 106.999 94.0369 105.971C93.3854 104.943 92.4313 104.142 91.3059 103.678C90.2409 103.149 89.0972 102.795 87.9192 102.631L77.5016 99.928Z" fill="#3254C7"/>
<path d="M46.7319 71.7882C47.016 71.0018 47.4678 70.2866 48.0559 69.6922C48.101 69.645 48.1439 69.5965 48.1892 69.5512C48.3274 69.4178 48.4738 69.297 48.6242 69.1778C48.7348 69.0893 48.8468 69.0034 48.9642 68.9229C49.0748 68.8482 49.1879 68.7789 49.3039 68.712C49.4799 68.6084 49.6614 68.5146 49.8476 68.4309C49.9276 68.3946 50.0076 68.3597 50.0924 68.3272C50.3244 68.2359 50.562 68.1599 50.8039 68.0997C50.841 68.0906 50.8743 68.073 50.9106 68.0656V66.6488C50.9106 66.1154 50.9386 65.5888 50.9906 65.0688C54.7188 63.4548 58.7392 62.625 62.8018 62.6309C69.9535 62.0178 77.1513 63.0283 83.8578 65.5869C83.8818 65.9394 83.9111 66.2904 83.9111 66.6488V68.0661C84.0308 68.0928 84.141 68.1426 84.2578 68.177C84.4239 68.2277 84.593 68.2704 84.7524 68.3354C85.3584 68.5749 85.9198 68.9146 86.4132 69.3402C86.3202 66.7925 86.1295 63.9637 85.7922 60.7778C84.2695 46.3912 72.4786 45.8088 67.7447 46.2565C62.5714 42.7869 45.2988 49.2122 46.6711 70.9533C46.6922 71.2424 46.713 71.5098 46.7319 71.7882Z" fill="#EB5A76"/>
<path d="M85.3919 80.3139C84.7874 80.6493 84.127 80.8723 83.4428 80.9717C82.7125 83.9074 81.1429 86.5668 78.9258 88.6251H83.9031C85.1818 85.8579 85.9363 82.8775 86.1282 79.8352C85.9837 79.9456 85.8242 80.036 85.6706 80.1333C85.5756 80.1912 85.4895 80.2611 85.3919 80.3139Z" fill="#EB5A76"/>
<path d="M51.3795 80.9595C51.3107 80.9497 51.2481 80.9243 51.1803 80.9121C50.9322 80.8704 50.6872 80.8123 50.4467 80.7382C50.2867 80.6881 50.1401 80.6187 49.9878 80.5555C49.6554 80.4185 49.3366 80.2504 49.0358 80.0534C48.836 79.9271 48.644 79.7888 48.4609 79.6393C48.3275 79.5262 48.207 79.4057 48.0854 79.2811C47.8894 79.0826 47.7082 78.8702 47.543 78.6454C47.4897 78.5731 47.4187 78.5163 47.3691 78.4414C48.1673 84.5609 49.2625 87.3766 50.2225 88.6249H55.9009C53.6802 86.5639 52.109 83.9 51.3795 80.9595V80.9595Z" fill="#EB5A76"/>
<path d="M83.9135 68.0664V66.649C83.9135 66.2906 83.8833 65.9397 83.8601 65.5872C77.1537 63.0286 69.9558 62.0181 62.8041 62.6312C58.7415 62.6252 54.7212 63.4551 50.9929 65.069C50.9396 65.589 50.9129 66.1157 50.9129 66.649V68.0664C49.6323 68.3578 48.4884 69.0753 47.6687 70.1015C46.8489 71.1277 46.4018 72.4018 46.4004 73.7152V75.2381C46.4028 76.6314 46.9077 77.977 47.8223 79.028C48.737 80.079 50 80.7649 51.3796 80.9597C51.9251 83.1579 52.939 85.2122 54.3519 86.9823C55.7649 88.7523 57.5436 90.1962 59.5663 91.2152V97.3333C59.5597 98.0105 59.3397 98.6684 58.9375 99.2132C58.5353 99.7581 57.9715 100.162 57.3263 100.368L56.1753 100.75C57.1706 102.677 58.6802 104.292 60.5368 105.414C62.3935 106.536 64.5246 107.123 66.694 107.108C68.9484 107.163 71.1682 106.545 73.0694 105.333C74.9706 104.12 76.4668 102.367 77.3665 100.299C76.7557 100.077 76.227 99.6747 75.8507 99.1449C75.4743 98.615 75.2683 97.9831 75.2599 97.3333V91.2152C77.2826 90.1962 79.0613 88.7524 80.4742 86.9823C81.8872 85.2123 82.9011 83.1579 83.4465 80.9597C84.826 80.7648 86.089 80.0789 87.0035 79.0279C87.9181 77.9769 88.4228 76.6313 88.4252 75.2381V73.7152C88.4239 72.4018 87.9769 71.1279 87.1573 70.1017C86.3377 69.0755 85.194 68.3579 83.9135 68.0664V68.0664Z" fill="#F2CD38"/>
<path d="M102.775 26.8327L101.485 27.0578C101.293 27.0922 101.096 27.0619 100.924 26.9718C100.752 26.8817 100.615 26.7369 100.535 26.5602C100.012 25.3876 99.3199 24.2978 98.4816 23.3252C98.3556 23.1771 98.2827 22.9912 98.2742 22.797C98.2657 22.6027 98.3223 22.4112 98.4349 22.2527L99.1869 21.1826C99.3119 21.0034 99.3665 20.7845 99.3402 20.5676C99.3139 20.3508 99.2087 20.1512 99.0445 20.0071C98.1408 19.2062 97.1498 18.5096 96.0901 17.9306C95.899 17.8249 95.6755 17.7934 95.4626 17.8421C95.2497 17.8908 95.0622 18.0163 94.936 18.1946L94.1837 19.2644C94.0728 19.4242 93.9119 19.5424 93.7262 19.6004C93.5406 19.6583 93.341 19.6527 93.1589 19.5844C91.9599 19.1249 90.7002 18.843 89.4197 18.7476C89.2262 18.7317 89.0434 18.6518 88.9004 18.5204C88.7573 18.3891 88.6621 18.2138 88.6298 18.0223L88.4048 16.7322C88.3666 16.5174 88.2506 16.3243 88.079 16.1895C87.9075 16.0548 87.6923 15.988 87.4746 16.0018C86.2677 16.0721 85.0728 16.2805 83.9133 16.6228C83.7038 16.6836 83.524 16.8194 83.4082 17.0043C83.2924 17.1892 83.2488 17.4102 83.2856 17.6252L83.5106 18.9154C83.5451 19.1065 83.5148 19.3036 83.4247 19.4756C83.3346 19.6477 83.1898 19.7847 83.013 19.8652C81.8405 20.3885 80.7507 21.0803 79.7781 21.9186C79.63 22.0445 79.4441 22.1175 79.2499 22.126C79.0557 22.1345 78.8641 22.078 78.7056 21.9655L77.6357 21.2132C77.4566 21.0882 77.2376 21.0337 77.0208 21.0599C76.8039 21.0862 76.6044 21.1915 76.4602 21.3556C75.6594 22.2594 74.9627 23.2505 74.3834 24.31C74.2778 24.5013 74.2463 24.7247 74.295 24.9377C74.3437 25.1506 74.4692 25.3382 74.6474 25.4644L75.7176 26.2164C75.8773 26.3274 75.9955 26.4884 76.0534 26.6741C76.1114 26.8597 76.1058 27.0594 76.0376 27.2415C75.578 28.4405 75.2961 29.7002 75.2008 30.9807C75.1849 31.1742 75.105 31.3569 74.9737 31.5C74.8424 31.643 74.6672 31.7382 74.4757 31.7706L73.1856 31.9956C72.9708 32.0337 72.7775 32.1496 72.6427 32.3211C72.5079 32.4926 72.4411 32.7078 72.4549 32.9255C72.5255 34.1324 72.734 35.3273 73.0762 36.4868C73.1369 36.6964 73.2726 36.8762 73.4575 36.992C73.6423 37.1078 73.8634 37.1514 74.0784 37.1146L75.3685 36.8895C75.5596 36.8551 75.7568 36.8853 75.9288 36.9754C76.1008 37.0655 76.2379 37.2104 76.3184 37.3871C76.8416 38.5597 77.5334 39.6496 78.3717 40.6223C78.4977 40.7704 78.5707 40.9562 78.5792 41.1504C78.5877 41.3446 78.5312 41.5361 78.4186 41.6946L77.6664 42.7647C77.5414 42.9439 77.4869 43.1628 77.5132 43.3797C77.5395 43.5966 77.6448 43.7961 77.809 43.9402C78.7127 44.741 79.7036 45.4376 80.7632 46.0167C80.9544 46.1224 81.1778 46.1539 81.3907 46.1053C81.6037 46.0566 81.7913 45.9312 81.9176 45.753L82.6698 44.6828C82.7807 44.5231 82.9417 44.4049 83.1273 44.347C83.3129 44.289 83.5126 44.2946 83.6946 44.3628C84.8936 44.8225 86.1533 45.1044 87.4338 45.1996C87.6274 45.2155 87.8101 45.2955 87.9532 45.4269C88.0962 45.5582 88.1914 45.7335 88.2237 45.925L88.4488 47.2151C88.4869 47.4299 88.6028 47.6231 88.7743 47.7579C88.9458 47.8927 89.1609 47.9596 89.3786 47.9458C90.5857 47.8752 91.7806 47.6667 92.9402 47.3244C93.1497 47.2636 93.3295 47.1278 93.4452 46.9429C93.5609 46.7581 93.6045 46.537 93.5677 46.322L93.3426 45.0319C93.3083 44.8408 93.3385 44.6437 93.4286 44.4717C93.5187 44.2997 93.6636 44.1626 93.8402 44.082C95.0129 43.5589 96.1029 42.8671 97.0754 42.0287C97.2235 41.9028 97.4093 41.8298 97.6035 41.8213C97.7977 41.8128 97.9892 41.8693 98.1477 41.9818L99.2178 42.734C99.397 42.859 99.6159 42.9136 99.8328 42.8874C100.05 42.8611 100.249 42.7558 100.393 42.5916C101.194 41.6878 101.891 40.6968 102.47 39.6372C102.576 39.446 102.607 39.2226 102.559 39.0096C102.51 38.7967 102.384 38.6091 102.206 38.4828L101.136 37.7308C100.976 37.6199 100.858 37.4589 100.8 37.2732C100.742 37.0876 100.748 36.8879 100.816 36.7058C101.276 35.5068 101.557 34.2471 101.653 32.9666C101.669 32.7731 101.749 32.5904 101.88 32.4473C102.011 32.3043 102.186 32.2091 102.378 32.1767L103.668 31.9516C103.883 31.9136 104.076 31.7977 104.211 31.6262C104.346 31.4547 104.412 31.2395 104.399 31.0218C104.328 29.8149 104.12 28.62 103.777 27.4604C103.717 27.2509 103.581 27.071 103.396 26.9552C103.211 26.8394 102.99 26.7958 102.775 26.8327V26.8327ZM90.7949 40.3716C89.0604 40.8609 87.217 40.8011 85.5179 40.2006C83.8187 39.6001 82.3471 38.4883 81.3052 37.0179C80.2632 35.5475 79.702 33.7906 79.6987 31.9884C79.6953 30.1863 80.2499 28.4273 81.2864 26.953C82.3228 25.4787 83.7903 24.3614 85.4872 23.7546C87.1841 23.1478 89.0273 23.0811 90.7636 23.5639C92.4999 24.0466 94.0442 25.055 95.1843 26.4506C96.3245 27.8463 97.0047 29.5606 97.1314 31.3583C97.2722 33.3601 96.7189 35.3493 95.5648 36.991C94.4107 38.6326 92.7262 39.8265 90.7949 40.3716V40.3716Z" fill="#3254C7"/>
<path d="M92.4519 34.8014C94.0082 32.5859 93.4673 29.5237 91.2439 27.9618C89.0204 26.3999 85.9562 26.9298 84.3999 29.1454C82.8436 31.3609 83.3845 34.4231 85.608 35.985C87.8315 37.5469 90.8956 37.017 92.4519 34.8014Z" fill="#3254C7"/>
</svg>
