<svg  viewBox="0 0 128 128" fill="none" xmlns="http://www.w3.org/2000/svg">
<path d="M48.566 105.461L51.43 96.647H60.6969L61.4721 99.0326C64.7587 94.8197 66.5427 89.6291 66.5406 84.2859C66.5406 84.0339 66.5108 83.7897 66.5028 83.5393L64.4761 85.011L56.9793 79.5657L59.8441 70.7518H62.3774C59.2224 66.118 54.5518 62.7278 49.1684 61.1641L49.947 63.5614L42.4497 69.0089L34.9524 63.5614L35.731 61.1641C30.3477 62.7281 25.6772 66.1182 22.522 70.7518H25.0553L27.9206 79.5657L20.422 85.0139L18.3953 83.5422C18.3876 83.7921 18.3574 84.0363 18.3574 84.2889C18.3553 89.6321 20.1394 94.8227 23.426 99.0355L24.2012 96.6499H33.4681L36.3321 105.464L34.3022 106.939C39.563 108.863 45.3348 108.863 50.5956 106.939L48.566 105.461ZM37.8161 90.6902L34.9521 81.8766L42.4494 76.4291L49.9473 81.8766L47.0836 90.6902H37.8161Z" fill="#F2CD38"/>
<path d="M37.8171 90.691L34.9531 81.875L42.4491 76.4297L49.9478 81.875L47.0838 90.691H37.8171Z" fill="#3254C7"/>
<path d="M35.7385 61.1441L34.9531 63.5612L42.4505 69.0086L49.9483 63.5612L49.163 61.1441C44.7777 59.879 40.1242 59.879 35.739 61.1441H35.7385Z" fill="#3254C7"/>
<path d="M20.4215 85.0134L27.9204 79.5648L25.0564 70.7512H22.5178C19.9469 74.5262 18.5082 78.9572 18.3711 83.5224L20.4215 85.0134Z" fill="#3254C7"/>
<path d="M24.2014 96.6465L23.418 99.0582C26.2181 102.664 29.9829 105.402 34.2758 106.954L36.3326 105.461L33.4689 96.6476L24.2014 96.6465Z" fill="#3254C7"/>
<path d="M61.4808 99.0582L60.6973 96.6465H51.4299L48.5664 105.46L50.6232 106.954C54.9159 105.401 58.6806 102.663 61.4808 99.0582V99.0582Z" fill="#3254C7"/>
<path d="M64.4783 85.0137L66.5282 83.5241C66.3913 78.959 64.9527 74.5281 62.3818 70.7532H59.8445L56.9805 79.5668L64.4783 85.0137Z" fill="#3254C7"/>
<path d="M113.317 30.0551L112.623 31.9821L109.524 30.8671L110.982 26.8154L112.925 27.5143C112.856 27.2071 112.75 26.9157 112.667 26.6143L111.239 26.101L111.875 24.3327C111.731 23.9978 111.588 23.661 111.425 23.3413L110.525 25.8442L107.426 24.7293L109.125 20.005C108.935 19.7933 108.747 19.5802 108.544 19.3786L106.712 24.4719L103.613 23.3573L105.825 17.2087C105.607 17.0693 105.392 16.9277 105.165 16.7959L102.898 23.0997L99.799 21.9847L102.172 15.3839C102.051 15.3381 101.941 15.2823 101.818 15.2381C101.695 15.1938 101.578 15.1677 101.457 15.1263L99.0841 21.7277L95.9838 20.6135L98.2521 14.3066C97.9942 14.2634 97.739 14.2338 97.4833 14.2026L95.27 20.3567L92.1716 19.2421L94.0086 14.1335C93.7241 14.1602 93.4428 14.2034 93.1614 14.2447L91.4564 18.9845L88.3582 17.8701L89.267 15.3429C88.9364 15.4855 88.6116 15.6546 88.2865 15.821L87.642 17.6122L86.198 17.0935C85.9436 17.2725 85.679 17.4314 85.431 17.6245L87.3849 18.3274L85.9273 22.3807L82.8294 21.2666L83.5286 19.3229C83.0737 19.7775 82.631 20.2519 82.2065 20.7519L82.114 21.0093L82.0164 20.9741C81.8484 21.1767 81.6964 21.4007 81.5334 21.6095L81.8561 21.7258L80.3985 25.7791L79.0777 25.3042C78.9532 25.5255 78.8406 25.7559 78.7214 25.981L80.142 26.4922L78.6844 30.5455L76.9244 29.9122C76.834 30.149 76.7558 30.3909 76.6697 30.6298L78.4276 31.2621L76.97 35.3154L75.4233 34.7591C75.3633 35.0087 75.3204 35.2591 75.2657 35.5093L76.7129 36.0298L75.2545 40.0757L74.5721 39.8301C74.5454 40.0967 74.5377 40.3562 74.5188 40.6202L74.9966 40.7925L74.4257 42.3794C74.4113 43.1135 74.4153 43.8405 74.4524 44.5522L75.7121 41.0501L78.81 42.1642L77.3529 46.2151L74.511 45.1925C74.5326 45.4735 74.5572 45.7525 74.5873 46.0285L77.0956 46.9306L75.6569 50.9306L75.6732 50.9861C75.7982 51.3282 75.9492 51.6477 76.0884 51.9767L77.811 47.1882L80.9102 48.3029L78.2225 55.773C78.4009 56.013 78.591 56.2399 78.7793 56.469L81.6252 48.5602L84.7233 49.6746L81.3758 58.9813C81.586 59.1413 81.7937 59.3077 82.0118 59.4567L85.4382 49.9309L88.5366 51.0455L84.9545 61.0039C85.0724 61.0495 85.1825 61.1106 85.3012 61.1527C85.4198 61.1949 85.5473 61.2205 85.6692 61.2594L89.251 51.3013L92.3508 52.4162L88.9249 61.9407C89.1881 61.9647 89.4537 61.9693 89.7193 61.9791L93.0678 52.6754L96.1668 53.7901L93.323 61.6954C93.6148 61.6389 93.9052 61.585 94.1961 61.5122L96.8812 54.0471L99.9793 55.1618L98.2593 59.9431C98.5745 59.7799 98.8908 59.6311 99.202 59.4487L99.2553 59.4119L100.692 55.4186L103.194 56.3189C103.394 56.1251 103.591 55.9266 103.787 55.7234L100.949 54.7029L102.407 50.6519L105.505 51.7666L104.25 55.2578C104.73 54.7338 105.196 54.1762 105.652 53.6018L106.22 52.0237L106.694 52.1943C106.848 51.9786 107.008 51.7725 107.157 51.5514L106.477 51.3069L107.935 47.2559L109.381 47.7762C109.498 47.5487 109.625 47.3287 109.739 47.0981L108.192 46.5418L109.65 42.4898L111.408 43.1223C111.493 42.8823 111.589 42.6474 111.67 42.4069L109.907 41.773L111.365 37.7197L112.786 38.2309C112.838 37.9813 112.899 37.7319 112.944 37.4826L111.622 37.0069L113.079 32.9535L113.399 33.0687C113.406 32.8021 113.433 32.5354 113.433 32.2711L113.337 32.2367L113.423 31.9951C113.415 31.3418 113.379 30.6951 113.317 30.0551ZM107.169 25.4437L110.268 26.5586L108.811 30.6103L105.711 29.4959L107.169 25.4437ZM90.582 35.6303L93.6801 36.745L92.223 40.797L89.1241 39.6823L90.582 35.6303ZM88.4094 39.4255L85.311 38.3109L86.7686 34.2589L89.8676 35.3733L88.4094 39.4255ZM90.8396 34.9135L92.2974 30.8602L95.3956 31.9749L93.938 36.0282L90.8396 34.9135ZM94.395 37.0021L97.4945 38.117L96.0369 42.169L92.938 41.0541L94.395 37.0021ZM94.6529 36.2853L96.1105 32.2319L99.2102 33.3471L97.7524 37.4005L94.6529 36.2853ZM99.9257 33.6055L103.025 34.7202L101.567 38.7735L98.4681 37.6591L99.9257 33.6055ZM100.182 32.8925L101.64 28.8391L104.739 29.9541L103.281 34.0074L100.182 32.8925ZM99.4678 32.6357L96.3673 31.5202L97.8249 27.4682L100.925 28.5831L99.4678 32.6357ZM95.6532 31.2637L92.555 30.149L94.0121 26.0957L97.111 27.2103L95.6532 31.2637ZM91.8398 29.8919L88.7414 28.7773L90.1993 24.7253L93.2974 25.8399L91.8398 29.8919ZM91.5833 30.6047L90.1262 34.6581L87.0273 33.5437L88.4849 29.4903L91.5833 30.6047ZM86.3132 33.2858L83.2142 32.1709L84.6718 28.1175L87.7708 29.2322L86.3132 33.2858ZM86.0553 34.0023L84.5977 38.0557L81.4988 36.9413L82.9564 32.8879L86.0553 34.0023ZM84.3412 38.7687L82.8841 42.8197L79.7852 41.7047L81.2422 37.6541L84.3412 38.7687ZM85.0548 39.0255L88.1537 40.1402L86.6966 44.1909L83.5977 43.0765L85.0548 39.0255ZM88.8681 40.3973L91.9665 41.5117L90.5094 45.5626L87.4105 44.4479L88.8681 40.3973ZM92.6814 41.769L95.7809 42.8839L94.3236 46.9335L91.2241 45.8186L92.6814 41.769ZM96.4964 43.1413L99.5953 44.2559L98.1385 48.3066L95.0396 47.1922L96.4964 43.1413ZM96.7537 42.4269L98.2108 38.3751L101.31 39.4895L99.8518 43.5429L96.7537 42.4269ZM102.024 39.7469L105.123 40.8613L103.666 44.9146L100.567 43.7997L102.024 39.7469ZM102.282 39.0298L103.739 34.9765L106.838 36.0911L105.381 40.1445L102.282 39.0298ZM103.996 34.2647L105.453 30.2114L108.553 31.3261L107.095 35.3794L103.996 34.2647ZM103.356 24.0722L106.455 25.1866L104.997 29.2399L101.898 28.125L103.356 24.0722ZM99.5406 22.6997L102.641 23.8135L101.184 27.8669L98.0838 26.7519L99.5406 22.6997ZM95.7273 21.3279L98.8262 22.4426L97.3684 26.4946L94.2678 25.3802L95.7273 21.3279ZM91.914 19.9565L95.0121 21.0711L93.5545 25.1231L90.4561 24.0085L91.914 19.9565ZM88.1006 18.5847L91.2012 19.6997L89.7433 23.753L86.6444 22.6383L88.1006 18.5847ZM86.3852 23.3538L89.4841 24.4682L88.0265 28.5215L84.9276 27.4069L86.3852 23.3538ZM82.5718 21.9821L85.67 23.0962L84.2116 27.1495L81.114 26.0354L82.5718 21.9821ZM80.8574 26.7469L83.9558 27.8613L82.4982 31.9146L79.4004 30.8002L80.8574 26.7469ZM79.1428 31.5159L82.2404 32.6303L80.7828 36.6837L77.6849 35.5693L79.1428 31.5159ZM75.9708 40.333L77.4278 36.2823L80.5254 37.3967L79.0684 41.4474L75.9708 40.333ZM81.1681 47.5863L78.0692 46.4717L79.5268 42.421L82.6252 43.5354L81.1681 47.5863ZM84.9814 48.9578L81.8825 47.8431L83.3396 43.7925L86.4385 44.9071L84.9814 48.9578ZM88.7948 50.3295L85.6964 49.2149L87.1534 45.1642L90.2524 46.2786L88.7948 50.3295ZM92.61 51.7015L89.5086 50.5869L90.9662 46.5362L94.066 47.6511L92.61 51.7015ZM96.4233 53.0735L93.3244 51.9589L94.7822 47.9082L97.8804 49.0229L96.4233 53.0735ZM100.237 54.4453L97.1377 53.3306L98.5948 49.2799L101.694 50.3946L100.237 54.4453ZM101.952 49.6775L98.8526 48.5631L100.31 44.5122L103.409 45.6269L101.952 49.6775ZM105.765 51.049L102.666 49.9343L104.124 45.8837L107.222 46.9983L105.765 51.049ZM107.479 46.2842L104.38 45.1695L105.838 41.1162L108.937 42.2309L107.479 46.2842ZM109.194 41.5154L106.096 40.4007L107.553 36.3474L110.652 37.4621L109.194 41.5154ZM110.909 36.7503L107.81 35.6354L109.268 31.5821L112.367 32.697L110.909 36.7503Z" fill="#3254C7"/>
<path d="M102.759 12.6216C80.028 4.44531 66.4389 35.9429 73.9856 53.672C75.256 56.657 78.6283 68.8186 74.9203 78.7056L82.1296 81.2986C85.6064 70.9786 96.3416 63.917 98.8256 62.6405C115.987 53.8216 125.415 20.7717 102.759 12.6216ZM78.8325 62.4616C78.804 62.2905 78.8271 62.1149 78.8989 61.957C78.9707 61.7992 79.0878 61.6663 79.2355 61.5753C79.3831 61.4843 79.5545 61.4394 79.7277 61.4463C79.901 61.4531 80.0683 61.5115 80.2083 61.6138C82.7897 63.425 85.8082 64.5134 88.9515 64.7664C89.1227 64.777 89.287 64.8384 89.4232 64.9427C89.5595 65.047 89.6617 65.1895 89.7167 65.352C89.7717 65.5146 89.7771 65.6898 89.7322 65.8555C89.6873 66.0211 89.5941 66.1696 89.4645 66.2821C86.6265 68.6058 84.2178 71.4092 82.348 74.5648C82.1408 74.9311 81.8107 75.2123 81.4162 75.3587C81.0216 75.5051 80.588 75.5073 80.192 75.3648C79.796 75.2224 79.4631 74.9445 79.2522 74.5802C79.0414 74.216 78.9661 73.789 79.0397 73.3746C79.5692 69.7504 79.4992 66.0637 78.8325 62.4621V62.4616ZM75.6744 50.9869C71.8677 40.5517 76.8963 22.4461 87.3925 16.2848C89.5564 15.0175 91.9824 14.2642 94.4835 14.083C96.9846 13.9017 99.4939 14.2974 101.818 15.2394C104.211 15.9985 106.399 17.297 108.211 19.0349C110.023 20.7728 111.412 22.9036 112.271 25.2632C116.455 36.7469 108.731 53.8613 99.2013 59.4485C97.1797 60.8003 94.869 61.6588 92.4551 61.9549C90.0412 62.2511 87.5915 61.9765 85.303 61.1535C83.0146 60.3304 80.9512 58.9818 79.2789 57.216C77.6065 55.4503 76.372 53.3167 75.6744 50.9869Z" fill="#EB5A76"/>
<path d="M72.4423 84.004C72.151 83.8473 71.9322 83.5835 71.8319 83.2683C71.7316 82.9532 71.7578 82.6114 71.9049 82.3152L72.9231 79.4843C72.9989 79.1624 73.1967 78.8824 73.4748 78.7033C73.7528 78.5243 74.0895 78.4601 74.414 78.5243L82.6337 81.4811C82.9248 81.6384 83.1435 81.9025 83.2439 82.2177C83.3443 82.5329 83.3186 82.8748 83.1721 83.1715L82.1535 86.0024C82.0779 86.3246 81.8802 86.6049 81.6019 86.784C81.3236 86.9632 80.9866 87.0271 80.662 86.9624L80.3364 86.8451L72.5337 108.534L72.8593 108.651C73.1504 108.809 73.3692 109.073 73.4695 109.388C73.5699 109.703 73.5441 110.045 73.3975 110.342L72.3799 113.174C72.3042 113.496 72.1063 113.776 71.828 113.955C71.5497 114.134 71.2127 114.198 70.8881 114.134L62.6684 111.176C62.3771 111.019 62.1583 110.755 62.058 110.44C61.9578 110.125 61.9839 109.783 62.1311 109.486L63.1495 106.655C63.2255 106.333 63.4233 106.053 63.7013 105.874C63.9794 105.695 64.316 105.631 64.6404 105.695L64.9671 105.813L72.7689 84.1224L72.4423 84.004Z" fill="#3254C7"/>
<path d="M68.8684 94.9672L68.1973 96.8328L75.7643 99.5551L76.4355 97.6895L68.8684 94.9672Z" fill="#F2CD38"/>
<path d="M67.4327 98.9571L66.7617 100.822L74.3291 103.544L75 101.679L67.4327 98.9571Z" fill="#F2CD38"/>
<path fill-rule="evenodd" clip-rule="evenodd" d="M103.064 86.3132C100.294 86.3229 97.6262 87.3541 95.5703 89.2092C97.731 90.8332 100.361 91.7112 103.064 91.7112C105.767 91.7112 108.396 90.8332 110.557 89.2092C108.501 87.354 105.833 86.3227 103.064 86.3132V86.3132Z" fill="#F2CD38"/>
<path fill-rule="evenodd" clip-rule="evenodd" d="M95.5703 68.8722C97.6211 70.735 100.292 71.7671 103.063 71.7671C105.833 71.7671 108.505 70.735 110.555 68.8722C108.395 67.2488 105.765 66.3711 103.063 66.3711C100.36 66.3711 97.7309 67.2488 95.5703 68.8722Z" fill="#F2CD38"/>
<path fill-rule="evenodd" clip-rule="evenodd" d="M103.063 74.4341C99.5496 74.4254 96.1698 73.0873 93.6026 70.6887C91.5363 72.9797 90.3926 75.9553 90.3926 79.0405C90.3926 82.1256 91.5363 85.1012 93.6026 87.3922C96.165 84.9862 99.5479 83.6469 103.063 83.6469C106.578 83.6469 109.961 84.9862 112.523 87.3922C114.589 85.1012 115.732 82.1261 115.732 79.0415C115.732 75.957 114.589 72.9818 112.523 70.6909C109.956 73.0886 106.576 74.4259 103.063 74.4341V74.4341Z" fill="#F2CD38"/>
<path d="M50.6465 50.3783L52.4382 52.5468C53.3886 53.6969 54.7568 54.4225 56.242 54.564C57.7272 54.7056 59.2078 54.2514 60.3582 53.3015L61.8044 52.1071C62.9544 51.1567 63.6798 49.7885 63.8213 48.3033C63.9627 46.8181 63.5085 45.3375 62.5585 44.1871L60.7668 42.0183L50.6465 50.3783Z" fill="#EB5A76"/>
<path d="M54.2884 44.4623L40.3855 27.633C39.6945 26.9632 38.7685 26.5911 37.8062 26.5965C36.844 26.6019 35.9222 26.9843 35.2388 27.6618C34.4449 28.205 33.8956 29.0378 33.7087 29.9815C33.5218 30.9251 33.7123 31.9044 34.2393 32.7092L51.3956 46.8514L54.2884 44.4623Z" fill="#F2CD38"/>
<path d="M49.5863 48.3406L28.093 37.7822C27.5659 36.9774 27.3753 35.9981 27.5622 35.0543C27.7491 34.1106 28.2984 33.2778 29.0924 32.7345C29.7758 32.0571 30.6976 31.6746 31.6599 31.6692C32.6221 31.6639 33.5481 32.036 34.2391 32.7057L51.3948 46.8478L49.5863 48.3406Z" fill="#3254C7"/>
<path d="M58.9783 40.5881L52.6668 17.4873C51.9758 16.8178 51.0498 16.4458 50.0876 16.4512C49.1255 16.4566 48.2037 16.8389 47.5202 17.5161C46.7262 18.0594 46.1768 18.8923 45.9899 19.836C45.8031 20.7798 45.9936 21.7592 46.5207 22.5641L57.17 42.0814L58.9783 40.5881Z" fill="#F2CD38"/>
<path d="M57.1789 42.074L46.5295 22.5569C45.8386 21.8871 44.9126 21.515 43.9504 21.5203C42.9881 21.5257 42.0663 21.9081 41.3829 22.5854C40.5891 23.1289 40.0399 23.9618 39.8532 24.9054C39.6664 25.8491 39.857 26.8284 40.3839 27.6332L54.2869 44.4625L57.1789 42.074Z" fill="#3254C7"/>
<path d="M59.5994 40.0731L49.0137 48.8176L50.4417 50.5463L61.0274 41.8018L59.5994 40.0731Z" fill="#3254C7"/>
</svg>
