<svg  viewBox="0 0 128 128" fill="none" xmlns="http://www.w3.org/2000/svg">
<g clip-path="url(#clip0)">
<path d="M60.9672 88.7965C60.6885 88.9643 60.4973 89.0824 60.3032 89.1965C58.6346 90.2102 56.7108 90.725 54.7589 90.6803C54.4544 90.6971 54.151 90.6303 53.8817 90.4869C53.6125 90.3436 53.3876 90.1292 53.2315 89.8671C53.0755 89.605 52.9942 89.3052 52.9965 89.0001C52.9988 88.6951 53.0846 88.3965 53.2445 88.1368C53.4532 87.8546 53.7291 87.6289 54.0471 87.4804C54.3652 87.3319 54.7153 87.2652 55.0656 87.2864C56.5995 87.3181 58.0838 86.7425 59.1953 85.685C60.3069 84.6276 60.9557 83.1738 61.0005 81.6403C61.0078 68.2742 61.0078 54.9082 61.0005 41.5421C61.0005 41.3576 60.9771 41.1728 60.9568 40.8776C60.7589 41.0672 60.6523 41.1597 60.5568 41.2619C58.1666 43.838 55.0697 45.6518 51.6536 46.4763C51.1556 46.5885 50.6359 46.5553 50.1563 46.3805C49.8018 46.2653 49.5027 46.0226 49.3168 45.6995C49.1309 45.3764 49.0714 44.9959 49.1499 44.6315C49.2165 44.2712 49.3945 43.941 49.6588 43.6874C49.9232 43.4338 50.2605 43.2697 50.6232 43.2181C52.2279 42.8333 53.7531 42.1711 55.1299 41.2613C57.6993 39.7054 59.5974 37.2487 60.4544 34.3698C61.3113 31.4909 61.0658 28.396 59.7656 25.6883C58.2774 22.9005 55.921 20.6738 53.0535 19.3457C50.186 18.0176 46.9637 17.6604 43.8749 18.3283C40.5808 18.919 37.612 20.6825 35.5173 23.2925C34.3937 22.993 33.2362 22.8389 32.0733 22.8339C28.0492 22.9912 24.2516 24.7377 21.5131 27.6906C18.7747 30.6435 17.3189 34.5618 17.4648 38.5864C17.4621 40.6454 17.8387 42.6873 18.576 44.6099C17.3393 45.6292 16.3315 46.8978 15.6184 48.3331C14.5876 50.529 14.3337 53.0101 14.8984 55.3693C15.2214 56.3542 15.6621 57.2965 16.211 58.1757C17.1328 57.6059 17.9611 57.0291 18.855 56.5531C21.3036 55.242 24.0463 54.5776 26.8235 54.6227C27.0578 54.6074 27.2927 54.6402 27.5139 54.719C27.735 54.7979 27.9378 54.921 28.1096 55.081C28.2815 55.2409 28.4189 55.4343 28.5133 55.6492C28.6078 55.8642 28.6573 56.0962 28.6589 56.3309C28.6304 56.7933 28.4207 57.2257 28.0754 57.5345C27.7301 57.8432 27.277 58.0034 26.8144 57.9803C26.4016 58.0003 25.9901 58.0336 25.5787 58.0701C22.9726 58.2078 20.4883 59.2174 18.5251 60.9369C16.5618 62.6563 15.2334 64.9857 14.7534 67.5509C14.4799 69.4267 14.7273 71.3416 15.4684 73.0864C16.2096 74.8311 17.4159 76.3387 18.9558 77.4443C19.2686 77.6522 19.4981 77.9637 19.6041 78.324C19.71 78.6843 19.6857 79.0705 19.5352 79.4147C19.312 79.926 19.1229 80.4516 18.9694 80.988C18.5119 82.7618 18.5392 84.6259 19.0482 86.3856C19.5572 88.1453 20.5294 89.7361 21.8632 90.9917C23.9458 92.9696 26.6239 94.2034 29.4806 94.501C32.3373 94.7985 35.2122 94.1431 37.6576 92.6368C39.2418 91.7084 40.5618 90.3898 41.4918 88.8066C42.4219 87.2235 42.931 85.4285 42.9707 83.5928C43.0003 83.1173 43.2116 82.6715 43.5608 82.3475C43.9101 82.0235 44.3705 81.8463 44.8469 81.8525C45.3232 81.8586 45.7789 82.0477 46.1197 82.3806C46.4604 82.7135 46.6601 83.1647 46.6773 83.6408C46.6749 84.4507 46.6022 85.2589 46.46 86.0563C45.6912 89.3052 43.8888 92.2169 41.3236 94.3539C38.7585 96.4909 35.5691 97.7377 32.2347 97.9069C32.001 97.935 31.7878 98.0538 31.6408 98.2376C31.1437 99.1159 30.8395 100.09 30.7485 101.095C30.6574 102.1 30.7816 103.113 31.1128 104.066C31.444 105.02 31.9745 105.892 32.6691 106.624C33.3637 107.356 34.2063 107.932 35.1408 108.313C37.0574 109.218 39.2415 109.38 41.2709 108.768C43.3003 108.157 45.0307 106.814 46.1275 105C46.3841 104.603 46.7521 104.291 47.1853 104.103C47.5232 103.954 47.8994 103.915 48.2605 103.992C48.6216 104.07 48.949 104.259 49.1963 104.533C49.4664 104.78 49.6399 105.116 49.6861 105.479C49.7322 105.842 49.648 106.21 49.4483 106.517C48.5076 108.281 47.0733 109.732 45.3208 110.693C44.2043 111.31 42.9771 111.761 41.7875 112.293C41.7685 112.247 41.772 112.301 41.8 112.315C42.4581 112.661 43.1104 113.017 43.7816 113.34C47.0017 115.009 50.5186 116.029 54.132 116.341C54.9687 116.466 55.8226 116.413 56.6373 116.185C57.452 115.957 58.2091 115.558 58.8585 115.016C59.5079 114.473 60.0349 113.8 60.4048 113.039C60.7747 112.278 60.979 111.447 61.0043 110.601C61.0084 103.534 61.0084 96.4674 61.0043 89.4011C61.0024 89.2317 60.9835 89.0648 60.9672 88.7965ZM32.1163 41.7299C34.8254 41.7359 37.4411 40.7405 39.4608 38.9349C41.4579 37.1915 42.7355 34.7678 43.0453 32.1349C43.1131 31.6099 43.1419 31.0795 43.1731 30.5507C43.2112 30.1249 43.4052 29.7281 43.718 29.4368C44.0309 29.1454 44.4403 28.9798 44.8677 28.972C45.2962 28.9862 45.7038 29.1606 46.0099 29.4608C46.316 29.7609 46.4984 30.165 46.5211 30.5931C46.5658 33.1317 45.9149 35.6342 44.6389 37.8293C43.0783 40.5345 40.6987 42.6741 37.8435 43.9395C37.7521 43.9934 37.6738 44.0667 37.6139 44.1543C37.554 44.2418 37.514 44.3415 37.4968 44.4461C37.3115 47.0685 38.0717 49.6704 39.6396 51.7806C41.2075 53.8907 43.4795 55.3693 46.0437 55.9485C46.7962 56.0992 47.5594 56.191 48.3261 56.2229C49.4675 56.2936 50.1829 56.9357 50.1739 57.9544C50.1728 58.193 50.121 58.4287 50.022 58.6458C49.9229 58.8629 49.7789 59.0565 49.5994 59.2137C49.4199 59.371 49.2091 59.4883 48.9808 59.5579C48.7526 59.6276 48.5122 59.6479 48.2755 59.6176C44.5378 59.5491 40.9714 58.0375 38.323 55.3992C35.6745 52.7608 34.1492 49.2003 34.0664 45.4629C34.0619 45.3277 34.0515 45.1928 34.0448 45.0715C33.3699 45.0715 32.7624 45.0795 32.1544 45.0696C31.9323 45.077 31.711 45.0399 31.5034 44.9605C31.2958 44.881 31.1063 44.7608 30.9459 44.607C30.7855 44.4532 30.6575 44.2688 30.5694 44.0648C30.4813 43.8608 30.435 43.6412 30.4331 43.4189C30.4266 43.1959 30.4657 42.9738 30.5479 42.7664C30.6302 42.5589 30.7538 42.3704 30.9113 42.2123C31.0689 42.0543 31.257 41.9299 31.4641 41.847C31.6713 41.764 31.8932 41.7242 32.1163 41.7299V41.7299ZM42.9336 76.1613C40.9019 76.4808 39.0052 77.3787 37.4703 78.7477C35.9354 80.1168 34.8274 81.8989 34.2787 83.8811C34.019 84.9109 33.8652 85.9645 33.8197 87.0256C33.8045 87.3713 33.6882 87.7049 33.4852 87.9852C33.2823 88.2655 33.0016 88.48 32.6779 88.6024C32.3398 88.7229 31.9713 88.7281 31.6299 88.6171C31.2886 88.5062 30.9936 88.2853 30.7909 87.9891C30.5671 87.6452 30.4473 87.2441 30.4459 86.8339C30.4532 84.6548 30.9634 82.5068 31.9368 80.5572C32.9102 78.6075 34.3205 76.9089 36.0579 75.5936C37.9585 74.0996 40.2135 73.1231 42.6035 72.7592C42.6992 72.7435 42.7917 72.708 42.972 72.6573C42.7454 71.6475 42.3092 70.6966 41.6916 69.8661C41.074 69.0356 40.2888 68.3442 39.3869 67.8365C38.2967 67.2299 37.0731 66.9028 35.8256 66.8843C35.5983 66.8933 35.3715 66.8562 35.1588 66.7753C34.9462 66.6943 34.7521 66.5712 34.5883 66.4134C34.4244 66.2555 34.2942 66.0661 34.2055 65.8567C34.1167 65.6472 34.0712 65.4219 34.0717 65.1944C34.0734 64.9622 34.1223 64.7327 34.2154 64.52C34.3085 64.3073 34.4439 64.1157 34.6134 63.957C34.7829 63.7982 34.9828 63.6756 35.2012 63.5965C35.4195 63.5174 35.6517 63.4836 35.8835 63.4971C38.0968 63.5273 40.2474 64.237 42.0441 65.5299C43.8407 66.8228 45.1968 68.6365 45.9285 70.7256C46.0906 71.1062 46.2046 71.5056 46.2677 71.9144C46.3061 72.5811 46.6888 72.7024 47.2424 72.7925C50.2063 73.2613 52.9411 74.67 55.0437 76.8109C55.2248 76.9661 55.3707 77.1581 55.4718 77.374C55.5729 77.59 55.6269 77.825 55.6301 78.0634C55.6334 78.3019 55.5858 78.5382 55.4907 78.7569C55.3955 78.9755 55.2549 79.1714 55.0781 79.3315C54.9039 79.4836 54.7013 79.5999 54.4821 79.6737C54.2629 79.7474 54.0313 79.7773 53.8005 79.7615C53.5697 79.7457 53.3443 79.6845 53.1372 79.5816C52.93 79.4786 52.7452 79.3358 52.5933 79.1613C51.3626 77.8933 49.8334 76.9542 48.1458 76.4301C46.4583 75.906 44.6662 75.8136 42.9336 76.1613Z" fill="#F2CD38"/>
<path d="M64.8203 44.0896C64.8628 37.678 67.4396 31.5435 71.9884 27.0248C76.5371 22.5061 82.6886 19.97 89.1003 19.97C95.512 19.97 101.663 22.5061 106.212 27.0248C110.761 31.5435 113.338 37.678 113.38 44.0896C113.38 57.4994 104.09 86.2397 64.8203 116.356V44.0896Z" fill="#EB5A76"/>
</g>
<defs>
<clipPath id="clip0">
<path d="M0 16C0 7.16344 7.16344 0 16 0H112C120.837 0 128 7.16344 128 16V112C128 120.837 120.837 128 112 128H16C7.16344 128 0 120.837 0 112V16Z" fill="white"/>
</clipPath>
</defs>
</svg>
