<svg  viewBox="0 0 128 128" fill="none" xmlns="http://www.w3.org/2000/svg">
<path d="M32.0505 68.5174C32.0505 68.5174 31.6278 58.351 36.7926 51.8403C46.1875 57.6822 53.0977 55.4515 53.0977 55.4515C53.0977 55.4515 58.6862 52.5086 60.6009 57.3248C61.4032 61.8441 61.8126 66.4245 61.8246 71.0144C63.6616 65.8207 64.0464 60.2241 62.9377 54.8278C61.2011 45.1958 52.4742 44.4278 46.775 43.7643C41.0758 43.1008 37.1577 45.0555 35.6883 48.5816C31.7702 48.0051 28.9033 54.7832 30.1809 62.0966C31.4585 69.4099 31.6262 70.48 31.6262 70.48L32.0505 68.5174Z" fill="#EB5A76"/>
<path d="M30.9251 77.0024C31.1071 79.5991 32.0959 82.0739 33.7534 84.0811C35.4108 86.0882 37.654 87.5273 40.1693 88.1971V91.9862C40.1693 92.5803 39.9837 93.1596 39.6384 93.6431C39.2931 94.1266 38.8054 94.4901 38.2435 94.683L35.9947 95.4536L36.4408 95.3158C37.5189 98.0358 41.5163 100.056 46.2968 100.056C51.3053 100.056 55.4413 97.8336 56.272 94.9179L55.5864 94.683C55.0245 94.4901 54.5369 94.1265 54.1917 93.643C53.8464 93.1595 53.6608 92.5803 53.6608 91.9862V88.2507C56.2158 87.608 58.5023 86.174 60.1935 84.1539C61.8847 82.1337 62.894 79.6307 63.0773 77.0024C64.2834 76.9713 65.4297 76.4706 66.2722 75.607C67.1146 74.7433 67.5866 73.5849 67.5877 72.3784V68.7862C67.5848 67.629 67.1474 66.5152 66.3622 65.6653C65.5769 64.8153 64.5011 64.2914 63.3477 64.1971C63.1673 66.5305 62.6547 68.8262 61.8256 71.0147C61.8136 66.4247 61.4041 61.8444 60.6016 57.3251C58.6875 52.5088 53.0984 55.4515 53.0984 55.4515C53.0984 55.4515 46.1883 57.6824 36.7936 51.8406C31.6291 58.3512 32.0515 68.5176 32.0515 68.5176L31.6264 70.4803C31.6264 70.4803 31.4877 69.5952 30.5509 64.2136C29.4188 64.3313 28.3701 64.8636 27.6067 65.708C26.8434 66.5524 26.4193 67.6492 26.416 68.7875V72.3798C26.4174 73.5858 26.8894 74.7437 27.7315 75.6071C28.5737 76.4704 29.7194 76.971 30.9251 77.0024V77.0024Z" fill="#F2CD38"/>
<path d="M56.3168 94.8098C55.5614 97.7802 51.3702 100.056 46.2976 100.056C41.5174 100.056 37.5198 98.0346 36.4411 95.3162L25.9227 98.5719C24.2387 99.0935 22.7658 100.14 21.7197 101.559C20.6737 102.978 20.1093 104.695 20.1094 106.458V114.26H72.4867V106.393C72.4867 104.689 71.9596 103.027 70.9775 101.635C69.9955 100.242 68.6067 99.188 67.0016 98.6162L56.3168 94.8098Z" fill="#3254C7"/>
<path d="M90.14 30.3665C85.2163 30.9481 80.2644 31.2596 75.3066 31.2998V47.227H92.0277C91.9622 41.5579 91.3299 35.9096 90.14 30.3665V30.3665Z" fill="#3254C7"/>
<path d="M92.0266 49.8938H75.3066V65.8194C80.2644 65.8595 85.2163 66.1711 90.14 66.7527C91.3294 61.2101 91.9614 55.5623 92.0266 49.8938V49.8938Z" fill="#3254C7"/>
<path d="M58.4393 19.0437C54.9714 20.881 51.8542 23.3146 49.2305 26.233C51.2369 26.6696 53.3787 27.0642 55.6745 27.3965C56.3841 24.5465 57.3084 21.7543 58.4393 19.0437V19.0437Z" fill="#3254C7"/>
<path d="M85.7234 17.3646C82.3866 16.109 78.8693 15.3992 75.3066 15.2625V28.6326C80.0567 28.5989 84.8015 28.3075 89.52 27.7595C88.6193 24.172 87.3469 20.6882 85.7234 17.3646V17.3646Z" fill="#3254C7"/>
<path d="M94.6928 47.2269H107.268C107.011 40.4716 104.694 33.9566 100.628 28.5554C98.1811 29.1224 95.5709 29.6058 92.8496 30C94.0223 35.6687 94.6397 41.4383 94.6928 47.2269V47.2269Z" fill="#3254C7"/>
<path d="M46.7751 43.7636C48.9857 43.9654 51.1783 44.3303 53.3351 44.8554C53.4968 39.8626 54.0849 34.8928 55.0929 30.0002C52.3729 29.606 49.7617 29.1226 47.3151 28.5559C43.8891 33.1152 41.6984 38.4818 40.9551 44.1362C42.8508 43.6248 44.8297 43.4981 46.7751 43.7636V43.7636Z" fill="#3254C7"/>
<path d="M98.7155 26.2333C96.0911 23.3151 92.9737 20.8815 89.5059 19.0437C90.6365 21.7545 91.5608 24.5468 92.2709 27.3968C94.5664 27.0645 96.7085 26.6698 98.7155 26.2333Z" fill="#3254C7"/>
<path d="M67.5878 68.7861V72.3783C67.5867 73.5848 67.1147 74.7432 66.2722 75.6068C65.4298 76.4705 64.2835 76.9712 63.0774 77.0023C62.9967 77.9699 62.8036 78.9248 62.502 79.8477C65.7552 81.0428 69.1756 81.7207 72.6388 81.8567V68.4863C70.9054 68.5023 69.2254 68.5591 67.5737 68.6335C67.575 68.6853 67.5878 68.7338 67.5878 68.7861Z" fill="#3254C7"/>
<path d="M89.5059 78.076C92.9741 76.2387 96.0916 73.8049 98.7155 70.8861C96.7091 70.4496 94.5664 70.0549 92.2709 69.7227C91.5609 72.5727 90.6365 75.3651 89.5059 78.076V78.076Z" fill="#3254C7"/>
<path d="M92.8516 67.1202C95.5716 67.5144 98.183 67.9978 100.63 68.5648C104.696 63.1636 107.013 56.6486 107.27 49.8933H94.6945C94.6414 55.6819 94.0242 61.4515 92.8516 67.1202V67.1202Z" fill="#3254C7"/>
<path d="M75.3066 68.4863V81.8567C78.8696 81.72 82.3874 81.0102 85.7245 79.7543C87.3469 76.4306 88.6186 72.9469 89.5189 69.3597C84.8008 68.8115 80.0564 68.52 75.3066 68.4863V68.4863Z" fill="#3254C7"/>
<path d="M58.4277 27.7603C63.1462 28.3083 67.891 28.5997 72.6411 28.6334V15.2625C69.078 15.399 65.5601 16.1089 62.2229 17.3649C60.6003 20.6888 59.3284 24.1728 58.4277 27.7603V27.7603Z" fill="#3254C7"/>
<path d="M62.9388 54.8271C63.504 57.9169 63.6416 61.0697 63.3476 64.197C63.9956 64.2544 64.6242 64.4475 65.1927 64.7638C65.7611 65.0801 66.2567 65.5124 66.6471 66.0327C68.6407 65.9298 70.6407 65.8375 72.6394 65.8194V49.8938H61.0156C61.9931 51.3864 62.6482 53.0667 62.9388 54.8271Z" fill="#3254C7"/>
<path d="M55.9746 45.7757C56.8685 46.163 57.7161 46.6495 58.5013 47.2261H72.6413V31.3005C67.6835 31.2604 62.7316 30.9488 57.8079 30.3672C56.7255 35.4363 56.1118 40.5942 55.9746 45.7757V45.7757Z" fill="#3254C7"/>
</svg>
