<svg  viewBox="0 0 128 128" fill="none" xmlns="http://www.w3.org/2000/svg">
<path d="M109.57 94.5479V88.1745C109.328 92.6439 96.7739 96.2471 81.2992 96.2471C65.6725 96.2471 53.0059 92.5745 53.0059 88.0444C53.0059 87.9911 53.0307 87.9377 53.0339 87.886H53.0059V94.7732H53.0221C53.1947 99.2601 65.7808 102.883 81.3003 102.883C96.9269 102.883 109.594 99.2111 109.594 94.6809C109.593 94.6353 109.572 94.5921 109.57 94.5479Z" fill="#EB5A76"/>
<path d="M107.952 85.3157C108.006 85.4895 108.037 85.6696 108.045 85.8514C108.045 87.9685 105.111 89.8855 100.365 91.285V91.4029C100.365 91.6509 100.28 91.8915 100.124 92.0842C99.9682 92.277 99.7505 92.41 99.5077 92.461C99.265 92.512 99.0122 92.4777 98.7917 92.3641C98.5713 92.2504 98.3968 92.0643 98.2975 91.837V91.837C93.0594 92.9957 87.7111 93.5833 82.3463 93.5895V93.7082C82.3519 93.8535 82.3281 93.9985 82.2764 94.1344C82.2246 94.2703 82.146 94.3944 82.0451 94.4992C81.9443 94.604 81.8233 94.6873 81.6895 94.7443C81.5557 94.8012 81.4117 94.8306 81.2663 94.8306C81.1209 94.8306 80.9769 94.8012 80.8431 94.7443C80.7093 94.6873 80.5883 94.604 80.4875 94.4992C80.3867 94.3944 80.308 94.2703 80.2563 94.1344C80.2045 93.9985 80.1807 93.8535 80.1863 93.7082V93.5887C74.7942 93.5801 69.4192 92.981 64.1575 91.8021V92.0005C64.1598 92.1438 64.1335 92.2862 64.0802 92.4193C64.0269 92.5524 63.9476 92.6735 63.8471 92.7757C63.7465 92.8778 63.6266 92.959 63.4944 93.0143C63.3621 93.0697 63.2202 93.0983 63.0768 93.0983C62.9335 93.0983 62.7915 93.0697 62.6593 93.0143C62.5271 92.959 62.4072 92.8778 62.3066 92.7757C62.206 92.6735 62.1268 92.5524 62.0735 92.4193C62.0202 92.2862 61.9939 92.1438 61.9962 92.0005V91.2103C57.394 89.8175 54.5508 87.9322 54.5508 85.8503C54.5624 85.7292 54.5833 85.6091 54.6132 85.4911V85.3397C54.1613 85.6428 53.7825 86.0427 53.5041 86.5103C53.2258 86.9779 53.0549 87.5016 53.0039 88.0434C53.0039 92.5735 65.6706 96.2461 81.2972 96.2461C96.9239 96.2461 109.591 92.5735 109.591 88.0434C109.538 87.4953 109.363 86.966 109.08 86.494C108.796 86.022 108.411 85.6195 107.952 85.3157V85.3157Z" fill="#F2CD38"/>
<path d="M109.57 66.7251V60.3518C109.328 64.8214 96.7739 68.4243 81.2992 68.4243C65.6725 68.4243 53.0059 64.752 53.0059 60.2219C53.0059 60.1686 53.0307 60.1152 53.0339 60.0632H53.0059V66.9496H53.0221C53.1947 71.4366 65.7808 75.0598 81.3003 75.0598C96.9269 75.0598 109.594 71.3875 109.594 66.8576C109.593 66.8126 109.572 66.7694 109.57 66.7251Z" fill="#EB5A76"/>
<path d="M81.2992 52.0183C76.4728 51.9979 71.6533 52.3833 66.8915 53.1703L66.9981 53.3135C68.1205 52.9267 69.3444 52.9549 70.4478 53.393C71.5511 53.8312 72.461 54.6503 73.0122 55.7017C73.5634 56.7532 73.7196 57.9674 73.4523 59.1241C73.185 60.2808 72.5121 61.3034 71.5555 62.0065C70.5988 62.7096 69.4219 63.0465 68.2382 62.9562C67.0544 62.8659 65.9422 62.3544 65.1033 61.5143C64.2644 60.6743 63.7543 59.5614 63.6656 58.3776C63.5769 57.1937 63.9154 56.0172 64.6197 55.0615L63.6968 53.8058C57.1901 55.3087 53.0059 57.6213 53.0059 60.2207C53.0059 64.7509 65.6725 68.4231 81.2992 68.4231C96.9259 68.4231 109.593 64.7509 109.593 60.2207C109.593 55.6906 96.9253 52.0183 81.2992 52.0183Z" fill="#F2CD38"/>
<path d="M81.2983 75.059C80.9234 75.059 80.5581 75.0472 80.1863 75.043V93.7096C80.1808 93.855 80.2045 93.9999 80.2563 94.1358C80.3081 94.2717 80.3867 94.3958 80.4875 94.5006C80.5884 94.6054 80.7093 94.6888 80.8432 94.7457C80.977 94.8027 81.1209 94.832 81.2663 94.832C81.4118 94.832 81.5557 94.8027 81.6895 94.7457C81.8234 94.6888 81.9443 94.6054 82.0452 94.5006C82.146 94.3958 82.2246 94.2717 82.2764 94.1358C82.3281 93.9999 82.3519 93.855 82.3464 93.7096V75.0438C81.9968 75.0475 81.6535 75.059 81.2983 75.059Z" fill="white"/>
<path d="M61.9962 72.8411V92.0003C61.994 92.1436 62.0203 92.286 62.0736 92.4191C62.1269 92.5521 62.2061 92.6733 62.3067 92.7755C62.4072 92.8776 62.5271 92.9588 62.6594 93.0141C62.7916 93.0695 62.9335 93.098 63.0769 93.098C63.2203 93.098 63.3622 93.0695 63.4944 93.0141C63.6266 92.9588 63.7465 92.8776 63.8471 92.7755C63.9477 92.6733 64.0269 92.5521 64.0802 92.4191C64.1335 92.286 64.1598 92.1436 64.1576 92.0003V73.3709C63.4064 73.2038 62.686 73.0272 61.9962 72.8411Z" fill="white"/>
<path d="M98.2051 73.422V91.4022C98.2051 91.6889 98.3189 91.9638 98.5216 92.1665C98.7243 92.3692 98.9992 92.483 99.2859 92.483C99.5725 92.483 99.8474 92.3692 100.05 92.1665C100.253 91.9638 100.367 91.6889 100.367 91.4022V72.9036C99.6758 73.0865 98.9553 73.2593 98.2051 73.422Z" fill="white"/>
<path d="M64.1575 73.3709V91.8013C69.4192 92.9803 74.7942 93.5794 80.1863 93.588V75.0461C74.7874 75.0304 69.4039 74.4659 64.1191 73.3613L64.1575 73.3709Z" fill="#3254C7"/>
<path d="M82.3477 93.5898C87.7124 93.5835 93.0607 92.9959 98.2989 91.8372C98.2372 91.7006 98.205 91.5525 98.2045 91.4026V73.4231C92.9857 74.4884 87.674 75.0323 82.3477 75.0468V93.5898Z" fill="#3254C7"/>
<path d="M61.9958 72.8407C62.0388 72.8524 62.0876 72.8623 62.1292 72.8738C59.4269 72.2824 56.871 71.1541 54.6132 69.5559V85.4916C54.5832 85.6096 54.5624 85.7297 54.5508 85.8508C54.5508 87.9308 57.394 89.817 61.9961 91.2108L61.9958 72.8407Z" fill="#3254C7"/>
<path d="M107.933 85.2068V69.6023C105.617 71.211 103.005 72.3434 100.248 72.9335L100.366 72.9052V91.286C105.111 89.8866 108.046 87.9695 108.046 85.8524C108.038 85.633 108 85.4157 107.933 85.2068V85.2068Z" fill="#3254C7"/>
<path d="M46.5416 71.9917C46.4233 70.3149 45.9416 68.6838 45.1298 67.2118C44.3181 65.7398 43.1957 64.4621 41.8407 63.4673C40.4856 62.4725 38.9303 61.7845 37.2827 61.4511C35.6351 61.1176 33.9347 61.1467 32.2994 61.5362C31.6576 59.0282 31.0026 56.3141 30.392 53.5629C34.1858 50.0052 36.9928 45.5251 38.5393 40.5594C40.0859 35.5937 40.3191 30.312 39.2162 25.2293C38.9615 23.1361 37.9867 21.1967 36.4589 19.7434C33.6002 17.4122 30.5893 19.6216 28.7877 21.9514C26.6086 25.8304 25.584 30.2515 25.8346 34.6936C26.1231 39.3192 26.7518 43.9173 27.7154 48.4506C27.6192 48.5386 27.5261 48.6309 27.4296 48.7173C22.9368 52.428 19.0758 56.8432 15.9973 61.7906C14.5469 64.8069 13.9391 68.1592 14.2384 71.4926C14.5377 74.826 15.7328 78.0165 17.6973 80.7261C20.321 83.8563 23.9837 85.9374 28.0157 86.589C31.1418 87.0167 34.3244 86.7204 37.3178 85.7232C38.4237 89.9575 38.6963 94.3664 38.1205 98.7048C37.3554 104.01 29.9941 107.844 26.4922 102.768C27.0686 102.742 27.6338 102.6 28.1545 102.351C28.6751 102.102 29.1405 101.752 29.5231 101.32C29.9057 100.888 30.1978 100.384 30.382 99.8368C30.5663 99.29 30.6389 98.7119 30.5957 98.1365C30.5843 97.3415 30.362 96.5638 29.9517 95.8828C29.5413 95.2018 28.9575 94.6419 28.26 94.2604C27.5624 93.8789 26.7761 93.6894 25.9813 93.7112C25.1865 93.7331 24.4118 93.9655 23.7362 94.3848C23.0855 94.8058 22.5265 95.3539 22.0926 95.9961C21.6587 96.6384 21.3589 97.3616 21.2111 98.1224C21.0634 98.8833 21.0707 99.6661 21.2326 100.424C21.3945 101.182 21.7078 101.9 22.1536 102.534C23.6066 104.452 25.6602 105.83 27.9869 106.446C30.3137 107.062 32.7798 106.882 34.9922 105.934C41.0117 103.042 40.4245 93.308 38.7565 85.1576C41.3236 84.1276 43.4785 82.2785 44.8863 79.8976C46.2942 77.5167 46.8761 74.7374 46.5416 71.9917V71.9917ZM27.8408 33.1245C28.3682 27.9064 32.2373 22.9232 34.9341 25.3861C37.8533 28.0509 37.2192 33.0661 36.8096 34.8242C35.4687 39.5882 32.7892 43.8675 29.089 47.1541C28.0893 42.5479 27.67 37.8348 27.8408 33.1245V33.1245ZM34.0917 84.3496C31.9021 84.8319 29.6292 84.7857 27.461 84.2149C25.2928 83.644 23.2918 82.5649 21.6237 81.0669C12.5461 71.1688 21.7989 61.9589 22.9362 60.6136C24.2208 59.0954 26.6029 57.2336 29.1778 54.7701C29.9344 57.7104 30.532 59.6464 30.5912 59.9584C30.6445 60.2296 30.8088 60.9184 31.0418 61.8517C29.7674 62.2349 28.5797 62.8625 27.545 63.6994C26.1045 64.8866 24.9958 66.4265 24.3269 68.1693C22.5997 72.8458 24.7002 79.101 29.4813 80.4314C28.228 78.1818 25.1512 69.7914 32.4885 67.4962C33.4069 71.0301 34.3386 74.5469 34.4746 74.9978C35.4346 78.176 36.172 80.8746 36.7437 83.232C35.9083 83.7106 35.0177 84.0859 34.0917 84.3496ZM38.1218 82.2949C37.1352 78.2256 36.0325 74.8864 35.6373 73.5728C35.3098 72.4834 34.6309 70.1818 33.8085 67.2021C35.1115 67.074 36.4239 67.3232 37.5892 67.9202C38.7545 68.5172 39.7235 69.4367 40.3808 70.569C41.2834 72.5131 41.551 74.6921 41.1455 76.7969C40.74 78.9016 39.6821 80.8253 38.1218 82.2949V82.2949Z" fill="#EB5A76"/>
<path d="M109.568 60.0911V60.0618H109.562L109.568 60.0911Z" fill="#EB5A76"/>
<path d="M65.6594 53.9877C66.068 53.6962 66.5187 53.469 66.9959 53.3138L49.5026 29.5175C49.4012 29.3795 49.2737 29.2628 49.1272 29.1741C48.9807 29.0854 48.8182 29.0264 48.6489 29.0006C48.4796 28.9747 48.3069 28.9824 48.1406 29.0233C47.9743 29.0642 47.8177 29.1374 47.6797 29.2389L47.4023 29.4423C47.1238 29.6473 46.9381 29.9545 46.886 30.2964C46.8339 30.6383 46.9197 30.9869 47.1245 31.2655L64.6178 55.0618C64.9082 54.6528 65.2595 54.2905 65.6594 53.9877V53.9877Z" fill="#3254C7"/>
<path d="M68.6013 62.9525C71.3431 62.9525 73.5658 60.7298 73.5658 57.988C73.5658 55.2461 71.3431 53.0234 68.6013 53.0234C65.8594 53.0234 63.6367 55.2461 63.6367 57.988C63.6367 60.7298 65.8594 62.9525 68.6013 62.9525Z" fill="#EB5A76"/>
<path d="M83.0823 40.698C83.2263 41.1788 83.2957 41.6788 83.2882 42.1806L111.46 33.3156C111.623 33.2643 111.775 33.1813 111.906 33.0713C112.038 32.9614 112.146 32.8266 112.225 32.6748C112.305 32.5229 112.353 32.3569 112.368 32.1863C112.383 32.0157 112.365 31.8438 112.313 31.6804L112.21 31.3521C112.159 31.1887 112.076 31.037 111.966 30.9056C111.856 30.7743 111.721 30.6659 111.569 30.5867C111.417 30.5074 111.252 30.4589 111.081 30.4438C110.91 30.4287 110.738 30.4474 110.575 30.4988L82.4023 39.3652C82.6956 39.7722 82.9249 40.2216 83.0823 40.698Z" fill="#3254C7"/>
<path d="M78.3473 47.1529C81.0892 47.1529 83.3119 44.9302 83.3119 42.1884C83.3119 39.4466 81.0892 37.2239 78.3473 37.2239C75.6055 37.2239 73.3828 39.4466 73.3828 42.1884C73.3828 44.9302 75.6055 47.1529 78.3473 47.1529Z" fill="#EB5A76"/>
</svg>
