<svg  viewBox="0 0 128 128" fill="none" xmlns="http://www.w3.org/2000/svg">
<g clip-path="url(#clip0)">
<path d="M84.7278 80.4512C84.398 80.7814 83.9778 81.0063 83.5201 81.0975C83.0625 81.1887 82.5881 81.1421 82.157 80.9636C81.7259 80.785 81.3574 80.4826 81.0983 80.0946C80.8391 79.7066 80.7009 79.2504 80.7011 78.7838V74.4536L70.6696 64.6136C68.3404 62.3286 65.2033 61.0556 61.9405 61.0712C58.6776 61.0868 55.5529 62.3899 53.2456 64.6971L52.6395 65.3032L52.0334 64.6971C49.7261 62.3899 46.6014 61.0868 43.3385 61.0712C40.0757 61.0556 36.9386 62.3286 34.6094 64.6136L10.6094 88.1582L17.0256 102.149C19.5648 107.686 23.64 112.378 28.7672 115.667C33.8943 118.956 39.8578 120.705 45.9494 120.705H59.3312C65.4227 120.705 71.3861 118.956 76.5131 115.667C81.6401 112.378 85.7152 107.686 88.2544 102.149L94.6707 88.1584L85.7619 79.4187L84.7278 80.4512ZM34.2696 83.4091C34.2696 84.106 33.9928 84.7744 33.5 85.2672C33.0072 85.76 32.3388 86.0368 31.6419 86.0368H28.5632L34.2699 83.0384L34.2696 83.4091ZM51.7128 83.4091C51.7128 84.106 51.436 84.7744 50.9432 85.2672C50.4504 85.76 49.782 86.0368 49.0851 86.0368H38.7736C38.4286 86.0368 38.0869 85.9689 37.7681 85.8368C37.4493 85.7047 37.1596 85.5112 36.9156 85.2672C36.6717 85.0232 36.4781 84.7335 36.3461 84.4147C36.2141 84.0959 36.1461 83.7542 36.1462 83.4091V82.0531L41.8384 79.0622C43.1864 78.3539 44.7041 78.0328 46.2234 78.1342C47.7426 78.2357 49.2041 78.7559 50.4459 79.6371C50.8302 79.9002 51.2602 80.0893 51.7139 80.1947L51.7128 83.4091ZM69.1558 83.4091C69.1558 83.7542 69.0879 84.0959 68.9558 84.4147C68.8238 84.7335 68.6303 85.0232 68.3863 85.2672C68.1423 85.5112 67.8526 85.7047 67.5339 85.8368C67.2151 85.9689 66.8734 86.0368 66.5283 86.0368H56.2158C55.5188 86.0368 54.8505 85.76 54.3577 85.2672C53.8649 84.7744 53.588 84.106 53.588 83.4091V80.1915C54.0345 80.0849 54.4574 79.897 54.8358 79.6371C56.0775 78.7559 57.539 78.2357 59.0583 78.1342C60.5776 78.0328 62.0953 78.3539 63.4432 79.0622L69.1558 82.0648V83.4091ZM73.6587 86.0368C72.9618 86.0368 72.2935 85.7599 71.8008 85.2671C71.308 84.7743 71.0312 84.106 71.0312 83.4091V83.0491L76.7176 86.0358L73.6587 86.0368Z" fill="#EB5A76"/>
<path d="M76.7171 86.0382H73.6581C72.9613 86.0381 72.293 85.7612 71.8002 85.2684C71.3075 84.7756 71.0307 84.1073 71.0307 83.4104V83.0504L69.1552 82.0638V83.4094C69.1552 83.7544 69.0873 84.0961 68.9553 84.4149C68.8232 84.7337 68.6297 85.0234 68.3857 85.2674C68.1417 85.5115 67.8521 85.705 67.5333 85.8371C67.2145 85.9691 66.8728 86.0371 66.5277 86.0371H56.2152C55.5183 86.0371 54.8499 85.7603 54.3571 85.2675C53.8643 84.7747 53.5875 84.1063 53.5875 83.4094V80.1934C52.9727 80.3526 52.3276 80.3536 51.7123 80.1963V83.4091C51.7123 84.106 51.4354 84.7744 50.9426 85.2672C50.4498 85.76 49.7815 86.0368 49.0845 86.0368H38.7731C38.428 86.0368 38.0863 85.9689 37.7675 85.8368C37.4487 85.7047 37.1591 85.5112 36.9151 85.2672C36.6711 85.0232 36.4776 84.7335 36.3455 84.4147C36.2135 84.0959 36.1456 83.7542 36.1456 83.4091V82.0531L34.2701 83.0398V83.4104C34.2701 84.1073 33.9933 84.7757 33.5005 85.2685C33.0077 85.7613 32.3393 86.0382 31.6424 86.0382H28.5627L21.8555 89.5608L25.4571 94.2707C27.6892 97.1896 30.5639 99.5548 33.8582 101.183C37.1524 102.811 40.7775 103.657 44.452 103.657H60.8264C64.5009 103.657 68.126 102.811 71.4203 101.183C74.7145 99.5548 77.5892 97.1896 79.8213 94.2707L83.4229 89.5611L76.7171 86.0382Z" fill="#3254C7"/>
<path d="M34.2689 83.409C34.2689 84.1059 33.992 84.7743 33.4992 85.2671C33.0065 85.7599 32.3381 86.0367 31.6412 86.0367H28.5625L34.2692 83.0383L34.2689 83.409Z" fill="white"/>
<path d="M51.7131 83.4092C51.7131 84.1061 51.4363 84.7745 50.9435 85.2672C50.4507 85.76 49.7823 86.0369 49.0854 86.0369H38.774C38.4289 86.0369 38.0872 85.9689 37.7684 85.8369C37.4496 85.7048 37.1599 85.5112 36.916 85.2672C36.672 85.0232 36.4784 84.7335 36.3464 84.4147C36.2144 84.0959 36.1464 83.7542 36.1465 83.4092V82.0532L41.8387 79.0622C43.1867 78.354 44.7044 78.0328 46.2237 78.1343C47.7429 78.2358 49.2045 78.756 50.4462 79.6372C50.8305 79.9003 51.2605 80.0894 51.7142 80.1948L51.7131 83.4092Z" fill="white"/>
<path d="M69.1556 83.4092C69.1557 83.7542 69.0877 84.0959 68.9557 84.4147C68.8237 84.7335 68.6301 85.0232 68.3861 85.2672C68.1422 85.5112 67.8525 85.7048 67.5337 85.8369C67.2149 85.9689 66.8732 86.0369 66.5282 86.0369H56.2156C55.5187 86.0369 54.8503 85.76 54.3575 85.2672C53.8647 84.7745 53.5879 84.1061 53.5879 83.4092V80.1916C54.0343 80.085 54.4573 79.897 54.8356 79.6372C56.0774 78.756 57.5389 78.2358 59.0582 78.1343C60.5775 78.0328 62.0952 78.354 63.4431 79.0622L69.1556 82.0649V83.4092Z" fill="white"/>
<path d="M73.6587 86.038C72.9618 86.038 72.2935 85.7611 71.8008 85.2683C71.3081 84.7755 71.0312 84.1072 71.0312 83.4103V83.0503L76.7176 86.037L73.6587 86.038Z" fill="white"/>
<path d="M52.719 92.2795C48.9764 92.1327 45.2457 92.7871 41.7765 94.199C38.3074 95.6109 35.1799 97.7476 32.6035 100.466C36.2312 102.556 40.3442 103.657 44.531 103.658H60.9078C65.0943 103.656 69.2069 102.555 72.8342 100.465C70.2577 97.7466 67.1302 95.6101 63.6611 94.1984C60.192 92.7868 56.4614 92.1325 52.719 92.2795V92.2795Z" fill="#F2CD38"/>
<path d="M108.42 14H50.8438V63.7224C51.2606 64.0216 51.6582 64.3468 52.0341 64.696L52.6403 65.3021L53.2464 64.696C55.5536 62.3888 58.6784 61.0857 61.9412 61.0701C65.2041 61.0545 68.3412 62.3275 70.6704 64.6125L74.0475 67.9256H80.7019V78.7848C80.7017 79.2514 80.8399 79.7076 81.0991 80.0956C81.3582 80.4837 81.7267 80.7861 82.1578 80.9646C82.5889 81.1431 83.0633 81.1897 83.5209 81.0985C83.9785 81.0073 84.3988 80.7824 84.7286 80.4523L97.2536 67.9256H108.421C110.8 67.9256 113.081 66.9805 114.763 65.2983C116.446 63.6161 117.391 61.3345 117.391 58.9555V22.9715C117.391 21.7933 117.159 20.6267 116.708 19.5383C116.258 18.4498 115.597 17.4607 114.764 16.6277C113.931 15.7946 112.942 15.1337 111.853 14.6829C110.765 14.232 109.598 14 108.42 14V14Z" fill="#F2CD38"/>
<path d="M86.8252 27.4639V53.0135H80.8009L69.9257 38.378V53.0135H63.5742V27.4639H69.6316L80.4726 41.99V27.4639H86.8252Z" fill="#3254C7"/>
<path d="M106.527 46.8076L105.613 53.0135H91.0508V27.4639H97.5118V46.8076H106.527Z" fill="#3254C7"/>
</g>
<defs>
<clipPath id="clip0">
<path d="M0 16C0 7.16344 7.16344 0 16 0H112C120.837 0 128 7.16344 128 16V112C128 120.837 120.837 128 112 128H16C7.16344 128 0 120.837 0 112V16Z" fill="white"/>
</clipPath>
</defs>
</svg>
