<svg  viewBox="0 0 128 128" fill="none" xmlns="http://www.w3.org/2000/svg">
<path d="M84.7278 77.106C84.398 77.4362 83.9778 77.6611 83.5201 77.7523C83.0625 77.8435 82.5881 77.7969 82.157 77.6184C81.7259 77.4398 81.3574 77.1374 81.0983 76.7494C80.8391 76.3614 80.7009 75.9052 80.7011 75.4386V71.1084L70.6696 61.2684C68.3404 58.9834 65.2033 57.7103 61.9405 57.726C58.6776 57.7416 55.5529 59.0447 53.2456 61.3519L52.6395 61.958L52.0334 61.3519C49.7262 59.0447 46.6014 57.7416 43.3385 57.726C40.0757 57.7103 36.9386 58.9834 34.6094 61.2684L10.6094 84.813L17.0256 98.8036C19.5648 104.341 23.64 109.033 28.7672 112.322C33.8943 115.611 39.8578 117.36 45.9494 117.36H59.3312C65.4227 117.36 71.3861 115.611 76.5131 112.322C81.6401 109.033 85.7152 104.341 88.2544 98.8039L94.6707 84.8132L85.7619 76.0735L84.7278 77.106ZM34.2696 80.0639C34.2696 80.7608 33.9928 81.4292 33.5 81.922C33.0072 82.4148 32.3388 82.6916 31.6419 82.6916H28.5632L34.2699 79.6932L34.2696 80.0639ZM51.7128 80.0639C51.7128 80.7608 51.436 81.4292 50.9432 81.922C50.4504 82.4148 49.782 82.6916 49.0851 82.6916H38.7736C38.4286 82.6916 38.0869 82.6237 37.7681 82.4916C37.4493 82.3595 37.1596 82.166 36.9156 81.922C36.6717 81.678 36.4781 81.3883 36.3461 81.0695C36.2141 80.7506 36.1461 80.409 36.1462 80.0639V78.7079L41.8384 75.717C43.1864 75.0087 44.7041 74.6876 46.2234 74.789C47.7426 74.8905 49.2041 75.4107 50.4459 76.2919C50.8302 76.555 51.2602 76.7441 51.7139 76.8495L51.7128 80.0639ZM69.1558 80.0639C69.1558 80.409 69.0879 80.7506 68.9558 81.0695C68.8238 81.3883 68.6303 81.678 68.3863 81.922C68.1423 82.166 67.8527 82.3595 67.5339 82.4916C67.2151 82.6237 66.8734 82.6916 66.5283 82.6916H56.2158C55.5189 82.6916 54.8505 82.4148 54.3577 81.922C53.8649 81.4292 53.588 80.7608 53.588 80.0639V76.8463C54.0345 76.7397 54.4574 76.5518 54.8358 76.2919C56.0775 75.4107 57.539 74.8905 59.0583 74.789C60.5776 74.6876 62.0953 75.0087 63.4432 75.717L69.1558 78.7196V80.0639ZM73.6587 82.6916C72.9618 82.6916 72.2935 82.4147 71.8008 81.9219C71.3081 81.4291 71.0312 80.7608 71.0312 80.0639V79.7039L76.7176 82.6906L73.6587 82.6916Z" fill="#EB5A76"/>
<path d="M76.718 82.6932H73.6591C72.9622 82.6931 72.2939 82.4162 71.8012 81.9235C71.3085 81.4307 71.0316 80.7623 71.0316 80.0655V79.7055L69.1562 78.7188V80.0644C69.1562 80.4095 69.0883 80.7512 68.9563 81.07C68.8242 81.3888 68.6307 81.6785 68.3867 81.9225C68.1427 82.1665 67.8531 82.36 67.5343 82.4921C67.2155 82.6242 66.8738 82.6921 66.5287 82.6921H56.2162C55.5193 82.6921 54.8509 82.4153 54.3581 81.9225C53.8653 81.4297 53.5884 80.7613 53.5884 80.0644V76.8484C52.9736 77.0076 52.3285 77.0086 51.7132 76.8513V80.0641C51.7132 80.761 51.4364 81.4294 50.9436 81.9222C50.4508 82.415 49.7824 82.6919 49.0855 82.6919H38.774C38.429 82.6919 38.0873 82.6239 37.7685 82.4918C37.4497 82.3598 37.16 82.1662 36.9161 81.9222C36.6721 81.6782 36.4785 81.3885 36.3465 81.0697C36.2145 80.7509 36.1465 80.4092 36.1466 80.0641V78.7081L34.2711 79.6948V80.0655C34.2711 80.7624 33.9943 81.4307 33.5015 81.9235C33.0087 82.4163 32.3403 82.6932 31.6434 82.6932H28.5636L21.8564 86.2159L25.458 90.9257C27.6902 93.8446 30.5649 96.2098 33.8592 97.8377C37.1534 99.4656 40.7785 100.312 44.453 100.312H60.8274C64.5019 100.312 68.127 99.4656 71.4212 97.8377C74.7155 96.2098 77.5902 93.8446 79.8223 90.9257L83.4239 86.2161L76.718 82.6932Z" fill="#3254C7"/>
<path d="M34.2699 80.064C34.2699 80.7609 33.993 81.4293 33.5002 81.9221C33.0074 82.4149 32.3391 82.6918 31.6421 82.6918H28.5635L34.2701 79.6934L34.2699 80.064Z" fill="white"/>
<path d="M51.7132 80.0639C51.7132 80.7609 51.4363 81.4292 50.9435 81.922C50.4507 82.4148 49.7823 82.6917 49.0854 82.6917H38.774C38.4289 82.6917 38.0872 82.6237 37.7684 82.4916C37.4496 82.3596 37.1599 82.166 36.916 81.922C36.672 81.678 36.4784 81.3883 36.3464 81.0695C36.2144 80.7507 36.1464 80.409 36.1465 80.0639V78.7079L41.8387 75.717C43.1867 75.0088 44.7044 74.6876 46.2237 74.7891C47.7429 74.8906 49.2045 75.4107 50.4462 76.2919C50.8305 76.5551 51.2605 76.7442 51.7142 76.8495L51.7132 80.0639Z" fill="white"/>
<path d="M69.1556 80.0639C69.1557 80.409 69.0877 80.7507 68.9557 81.0695C68.8237 81.3883 68.6301 81.678 68.3861 81.922C68.1422 82.166 67.8525 82.3596 67.5337 82.4916C67.2149 82.6237 66.8732 82.6917 66.5282 82.6917H56.2156C55.5187 82.6917 54.8503 82.4148 54.3575 81.922C53.8647 81.4292 53.5879 80.7609 53.5879 80.0639V76.8463C54.0343 76.7397 54.4573 76.5518 54.8356 76.2919C56.0774 75.4107 57.5389 74.8906 59.0582 74.7891C60.5775 74.6876 62.0952 75.0088 63.4431 75.717L69.1556 78.7197V80.0639Z" fill="white"/>
<path d="M73.6587 82.6928C72.9618 82.6927 72.2935 82.4159 71.8008 81.9231C71.3081 81.4303 71.0312 80.7619 71.0312 80.0651V79.7051L76.7176 82.6917L73.6587 82.6928Z" fill="white"/>
<path d="M52.718 88.9343C48.9754 88.7875 45.2447 89.4419 41.7755 90.8538C38.3064 92.2657 35.1789 94.4024 32.6025 97.121C36.2302 99.2112 40.3433 100.312 44.53 100.313H60.9068C65.0933 100.311 69.206 99.2101 72.8332 97.1197C70.2567 94.4014 67.1293 92.2649 63.6602 90.8532C60.1911 89.4416 56.4604 88.7873 52.718 88.9343V88.9343Z" fill="#F2CD38"/>
<path d="M108.42 10.655H50.8438V60.3774C51.2606 60.6767 51.6582 61.0018 52.0341 61.351L52.6403 61.9572L53.2464 61.351C55.5536 59.0438 58.6784 57.7407 61.9412 57.7251C65.2041 57.7095 68.3412 58.9826 70.6704 61.2676L74.0475 64.5806H80.7019V75.4398C80.7017 75.9065 80.8399 76.3626 81.0991 76.7507C81.3582 77.1387 81.7267 77.4411 82.1578 77.6196C82.5889 77.7982 83.0633 77.8448 83.5209 77.7536C83.9785 77.6624 84.3988 77.4375 84.7286 77.1073L97.2536 64.5806H108.421C110.8 64.5806 113.081 63.6356 114.763 61.9534C116.446 60.2711 117.391 57.9896 117.391 55.6105V19.6265C117.391 18.4484 117.159 17.2818 116.708 16.1933C116.258 15.1048 115.597 14.1158 114.764 13.2827C113.931 12.4496 112.942 11.7887 111.853 11.3379C110.765 10.887 109.598 10.655 108.42 10.655V10.655Z" fill="#F2CD38"/>
<path d="M86.8242 24.1184V49.668H80.7999L69.9247 35.0325V49.668H63.5732V24.1184H69.6306L80.4716 38.6445V24.1184H86.8242Z" fill="#3254C7"/>
<path d="M106.527 43.4621L105.613 49.668H91.0508V24.1184H97.5118V43.4621H106.527Z" fill="#3254C7"/>
</svg>
