<svg id="Layer_1" data-name="Layer 1" xmlns="http://www.w3.org/2000/svg" viewBox="0 0 48 48"><defs><style>.cls-1{fill:none;}.cls-2{fill:#eb5a76;}.cls-3{fill:#ccd4f1;}.cls-4{fill:#3254c7;}.cls-5{fill:#f2cd38;}</style></defs><rect class="cls-1" /><g id="SD_Niet_bepaald_domein" data-name="SD Niet bepaald domein"><path class="cls-2" d="M43.07513,27.97119c-.19982-.03113-.39685-.0481-.59631-.07672L40.015,41.8673a.99747.99747,0,0,1-1.14331.80665,47.63312,47.63312,0,0,0-8.76855-.55958,47.63368,47.63368,0,0,0-8.431-2.4732.99756.99756,0,0,1-.79846-1.14905l1.66186-9.42529a12.524,12.524,0,0,1-1.61828-.14948L19.11041,39.16394a.99885.99885,0,0,0,.80591,1.15271c2.96484.55273,5.80969,1.22,8.49439,1.97552a16.39407,16.39407,0,0,0,3.22216.56812c2.78113.20825,5.6825.55426,8.6576,1.04888a.99915.99915,0,0,0,1.15173-.80761l2.46191-13.962A1.0068,1.0068,0,0,0,43.07513,27.97119Z" transform="translate(0.00071 0)"/><path class="cls-3" d="M41.69684,26.41717A25.29978,25.29978,0,0,0,32.8,26.81982c-.53076-.339-1.079-.64844-1.63245-.94843a12.4721,12.4721,0,0,1-8.63208,3.19544L20.8736,38.49212a.99756.99756,0,0,0,.79846,1.14905,47.63368,47.63368,0,0,1,8.431,2.4732,47.63312,47.63312,0,0,1,8.76855.55958A.99747.99747,0,0,0,40.015,41.8673l2.51844-14.28241A.99976.99976,0,0,0,41.69684,26.41717ZM30.824,40.90319a.49939.49939,0,0,1-.4917.41309.48487.48487,0,0,1-.08741-.00781.49929.49929,0,0,1-.40527-.5791l2.23926-12.69874a.4998.4998,0,0,1,.98437.17383Z" transform="translate(0.00071 0)"/><path class="cls-4" d="M30.33234,41.31628a.48487.48487,0,0,1-.08741-.00781.49929.49929,0,0,1-.40527-.5791l2.23926-12.69874a.4998.4998,0,0,1,.98437.17383L30.824,40.90319A.49939.49939,0,0,1,30.33234,41.31628Z" transform="translate(0.00071 0)"/><path class="cls-2" d="M14.794,26.15283a12.541,12.541,0,0,1-1.66236-1.69544L4.88654,33.29913l.00854.008c-.03589.03894-.07812.06879-.11255.10987a3,3,0,1,0,4.59619,3.85675c.03443-.04108.05689-.08759.08863-.12995l.0094.00708L16.7525,27.4956A12.5439,12.5439,0,0,1,14.794,26.15283Z" transform="translate(0.00071 0)"/><path class="cls-5" d="M30.86383,7.0017a12.5,12.5,0,1,0,1.54065,17.61042A12.50008,12.50008,0,0,0,30.86383,7.0017Zm-.37451,16.00342A10,10,0,1,1,29.25677,8.9168,9.99994,9.99994,0,0,1,30.48932,23.00512Z" transform="translate(0.00071 0)"/><path class="cls-4" d="M29.25677,8.9168a10,10,0,1,0,1.23255,14.08832A9.99994,9.99994,0,0,0,29.25677,8.9168ZM27.39,11.91931a.49719.49719,0,0,1-.7041.06152,6.00063,6.00063,0,0,0-8.45361.73975.49977.49977,0,0,1-.76563-.64258,7.00724,7.00724,0,0,1,9.86182-.8628A.49949.49949,0,0,1,27.39,11.91931Z" transform="translate(0.00071 0)"/></g></svg>