<svg  viewBox="0 0 128 128" fill="none" xmlns="http://www.w3.org/2000/svg">
<g clip-path="url(#clip0)">
<path d="M39.2002 91.9776C39.1039 91.8083 39.0045 91.6433 38.9138 91.471C38.5899 90.8507 38.3083 90.2092 38.0709 89.551C37.9882 89.3206 37.9287 89.0814 37.8575 88.8462C37.7725 88.567 37.6727 88.2939 37.6031 88.0083C36.2236 87.8136 34.9606 87.1277 34.0461 86.0766C33.1317 85.0254 32.6272 83.6797 32.6253 82.2865V80.7635C32.6262 79.45 33.073 78.1758 33.8925 77.1493C34.712 76.1229 35.8558 75.4051 37.1365 75.1134V74.4763C38.2666 74.3091 41.3551 74.0526 49.7941 73.875C62.4607 73.6083 66.665 67.9393 67.8687 65.5926C69.3522 68.0353 70.137 70.8382 70.1378 73.6961V75.1134C70.1858 75.1246 70.2301 75.1459 70.2783 75.1585C71.198 72.7967 71.576 70.2586 71.3845 67.7313C70.001 53.4326 59.2861 52.8534 54.9845 53.2985C54.0845 52.7151 53.0284 52.4194 51.9565 52.4505C49.8016 50.4716 47.117 49.1633 44.2307 48.6853C41.3444 48.2073 38.3814 48.5803 35.7036 49.7588C33.0258 50.9372 30.7493 52.8701 29.1521 55.3213C27.5549 57.7725 26.7062 60.6358 26.7098 63.5614C26.7098 77.6971 30.7148 91.5977 24.3535 97.9587C29.834 97.2033 35.2043 95.7945 40.3498 93.7624C40.2879 93.6824 40.2431 93.5872 40.1837 93.5048C39.8265 93.0153 39.4982 92.5053 39.2002 91.9776V91.9776Z" fill="#3254C7"/>
<path d="M37.6029 88.0064C38.1443 90.2101 39.1563 92.2705 40.5695 94.046C41.9827 95.8214 43.7635 97.27 45.7895 98.292V104.38C45.783 105.057 45.5629 105.715 45.1607 106.26C44.7585 106.804 44.1947 107.209 43.5495 107.414L42.3981 107.796C43.3936 109.724 44.9034 111.338 46.7602 112.46C48.6171 113.582 50.7483 114.168 52.9178 114.153C55.1722 114.209 57.392 113.591 59.2932 112.378C61.1945 111.165 62.6906 109.413 63.5903 107.345C62.9795 107.123 62.4508 106.72 62.0745 106.19C61.6981 105.661 61.4921 105.029 61.4837 104.379V98.292C63.51 97.2701 65.291 95.8216 66.7045 94.0461C68.1179 92.2706 69.1303 90.2102 69.6719 88.0064C71.0513 87.8114 72.3141 87.1253 73.2285 86.0743C74.1429 85.0232 74.6475 83.6777 74.6498 82.2845V80.7616C74.6484 79.4484 74.2014 78.1745 73.3818 77.1484C72.5622 76.1223 71.4185 75.4048 70.1381 75.1133V73.696C70.1373 70.8381 69.3525 68.0352 67.869 65.5925C66.6653 67.9392 62.4615 73.6083 49.7943 73.8749C41.3554 74.0525 38.2669 74.3091 37.1367 74.4763V75.1133C35.8562 75.4048 34.7125 76.1224 33.8929 77.1486C33.0732 78.1748 32.6262 79.4488 32.625 80.7621V82.2851C32.6271 83.6782 33.1316 85.0238 34.0461 86.0748C34.9605 87.1258 36.2234 87.8117 37.6029 88.0064V88.0064Z" fill="#F2CD38"/>
<path d="M89.4753 19H87.0742V25.052H89.4753V19Z" fill="#2D50CE"/>
<path d="M71.5657 40.5586H65.5137V42.9597H71.5657V40.5586Z" fill="#2D50CE"/>
<path d="M111.032 40.5586H104.98V42.9597H111.032V40.5586Z" fill="#2D50CE"/>
<path d="M75.6107 52.724L71.332 57.0027L73.03 58.7007L77.3087 54.422L75.6107 52.724Z" fill="#2D50CE"/>
<path d="M103.517 24.817L99.2383 29.0962L100.936 30.7942L105.216 26.515L103.517 24.817Z" fill="#2D50CE"/>
<path d="M73.0303 24.8167L71.332 26.5144L75.6106 30.7943L77.3089 29.0965L73.0303 24.8167Z" fill="#2D50CE"/>
<path d="M100.936 52.7239L99.2383 54.4219L103.517 58.7005L105.215 57.0025L100.936 52.7239Z" fill="#2D50CE"/>
<path d="M101.145 42.3685C101.146 40.3314 100.663 38.3232 99.7357 36.5092C98.8086 34.6951 97.4642 33.1271 95.8129 31.934C94.1616 30.741 92.2507 29.9569 90.2373 29.6464C88.2239 29.336 86.1656 29.5079 84.2316 30.148C82.2977 30.7882 80.5433 31.8784 79.1128 33.3288C77.6823 34.7793 76.6166 36.5486 76.0033 38.4913C75.39 40.434 75.2466 42.4945 75.585 44.5034C75.9234 46.5123 76.7339 48.4121 77.9497 50.0467C80.2438 53.1943 81.4622 56.9975 81.4244 60.8923V63.4365H95.1276V60.9707C95.0893 57.0413 96.3138 53.2034 98.6209 50.0224C100.265 47.8095 101.15 45.1251 101.145 42.3685V42.3685Z" fill="#F2CD38"/>
<path d="M83.4961 72.2654C83.8548 73.1189 84.4575 73.8475 85.2286 74.3598C85.9997 74.8722 86.905 75.1454 87.8308 75.1454H88.7982C89.724 75.1454 90.6292 74.8721 91.4003 74.3597C92.1714 73.8474 92.7741 73.1188 93.1329 72.2654H83.4961Z" fill="#EB5A76"/>
<path d="M63.7257 106.975C62.8921 109.145 61.4038 111.002 59.4672 112.288C57.5306 113.575 55.2417 114.226 52.918 114.153C50.7034 114.175 48.5282 113.567 46.6459 112.401C44.7635 111.234 43.2515 109.556 42.286 107.563L32.2342 109.673C30.6355 109.8 29.0841 110.276 27.6889 111.067C26.7186 111.594 25.9189 112.387 25.3836 113.353C24.8483 114.319 24.5997 115.417 24.667 116.519H81.1681V116.466C81.2297 115.25 80.913 114.045 80.2614 113.017C79.6099 111.989 78.6556 111.188 77.53 110.724C76.465 110.194 75.3213 109.841 74.1433 109.677L63.7257 106.975Z" fill="#EB5A76"/>
<path d="M95.1282 67.9197C95.1281 67.7295 95.0906 67.5411 95.0178 67.3654C94.945 67.1896 94.8383 67.03 94.7037 66.8955C94.5692 66.761 94.4095 66.6543 94.2337 66.5816C94.058 66.5088 93.8696 66.4714 93.6794 66.4714H92.0935C92.8983 66.4714 93.6701 66.1517 94.2392 65.5827C94.8084 65.0136 95.1281 64.2418 95.1282 63.437H81.4215C81.4214 64.2415 81.7409 65.0131 82.3096 65.5822C82.8784 66.1512 83.6498 66.4711 84.4543 66.4714H82.8685C82.4877 66.4766 82.1243 66.6315 81.8569 66.9025C81.5895 67.1736 81.4396 67.539 81.4396 67.9198C81.4396 68.3006 81.5895 68.666 81.8569 68.9371C82.1243 69.2082 82.4877 69.363 82.8685 69.3682C82.4843 69.3682 82.1158 69.5208 81.8442 69.7925C81.5725 70.0641 81.4199 70.4326 81.4199 70.8167C81.4199 71.2009 81.5725 71.5694 81.8442 71.841C82.1158 72.1127 82.4843 72.2653 82.8685 72.2653H93.6788C94.063 72.2653 94.4315 72.1127 94.7031 71.841C94.9748 71.5694 95.1274 71.2009 95.1274 70.8167C95.1274 70.4326 94.9748 70.0641 94.7031 69.7925C94.4315 69.5208 94.063 69.3682 93.6788 69.3682C93.8691 69.3683 94.0576 69.3309 94.2334 69.2582C94.4093 69.1854 94.569 69.0788 94.7036 68.9442C94.8382 68.8097 94.945 68.65 95.0178 68.4742C95.0907 68.2984 95.1282 68.11 95.1282 67.9197V67.9197Z" fill="#3254C7"/>
</g>
<defs>
<clipPath id="clip0">
<path d="M0 16C0 7.16344 7.16344 0 16 0H112C120.837 0 128 7.16344 128 16V112C128 120.837 120.837 128 112 128H16C7.16344 128 0 120.837 0 112V16Z" fill="white"/>
</clipPath>
</defs>
</svg>
