<svg  viewBox="0 0 128 128" fill="none" xmlns="http://www.w3.org/2000/svg">
<path d="M70.2055 104.372L72.6569 92.727C73.3655 89.3618 75.3369 86.396 78.1655 84.4398L100.36 69.0913C100.527 68.9749 100.717 68.8964 100.917 68.8616C101.117 68.8267 101.322 68.8362 101.518 68.8895C101.714 68.9428 101.896 69.0385 102.051 69.1698C102.206 69.3012 102.331 69.465 102.415 69.6497C103.387 71.2591 103.69 73.185 103.26 75.0151C102.83 76.8452 101.7 78.4342 100.113 79.4417C93.7327 83.4641 89.0169 87.0702 89.0169 87.0702C90.2005 87.5456 91.487 87.7061 92.7511 87.5359C94.0151 87.3657 95.2135 86.8708 96.2292 86.0993C98.6559 84.5084 101.692 82.3617 103.716 80.91C104.403 80.417 104.964 79.7671 105.35 79.0143C105.737 78.2615 105.938 77.4274 105.938 76.5812V64.4014C105.938 62.984 106.308 61.591 107.011 60.3603C107.714 59.1295 108.726 58.1036 109.947 57.3838V57.3838C110.326 57.1608 110.756 57.0418 111.196 57.0389C111.635 57.0359 112.067 57.1492 112.449 57.3671C112.83 57.585 113.147 57.8999 113.367 58.2799C113.588 58.6598 113.704 59.0912 113.704 59.5305V83.9953C113.704 85.0323 113.457 86.0543 112.983 86.9765C112.508 87.8987 111.821 88.6944 110.978 89.2977L91.7903 103.02L90.7175 109.904C90.5432 111.05 89.9786 112.1 89.1191 112.877C88.2596 113.655 87.1581 114.112 86.0007 114.171C81.3167 114.387 73.9057 113.687 70.6641 107.727C70.1192 106.698 69.9567 105.509 70.2055 104.372Z" fill="#F2CD38"/>
<path d="M57.7955 104.372L55.3441 92.727C54.6355 89.3618 52.6641 86.396 49.8355 84.4398L27.6409 69.0913C27.4744 68.9749 27.2843 68.8964 27.0842 68.8616C26.884 68.8267 26.6786 68.8362 26.4826 68.8895C26.2865 68.9428 26.1046 69.0385 25.9496 69.1698C25.7946 69.3012 25.6704 69.465 25.5857 69.6497C24.6138 71.2591 24.3106 73.185 24.741 75.0151C25.1713 76.8452 26.3011 78.4342 27.8883 79.4417C34.2683 83.4641 38.9841 87.0702 38.9841 87.0702C37.8005 87.5456 36.5139 87.7061 35.2499 87.5359C33.9859 87.3657 32.7875 86.8708 31.7718 86.0993C29.3438 84.5084 26.3094 82.3617 24.2854 80.91C23.5976 80.417 23.0372 79.7671 22.6507 79.0143C22.2642 78.2615 22.0628 77.4274 22.063 76.5812V64.4014C22.0631 62.984 21.6933 61.591 20.9901 60.3603C20.287 59.1295 19.2748 58.1036 18.0537 57.3838V57.3838C17.6752 57.1608 17.2446 57.0418 16.8053 57.0389C16.366 57.0359 15.9338 57.1492 15.5524 57.3671C15.171 57.585 14.854 57.8999 14.6335 58.2799C14.413 58.6598 14.2969 59.0912 14.2969 59.5305V83.9953C14.2969 85.0323 14.5442 86.0543 15.0184 86.9765C15.4926 87.8987 16.1799 88.6944 17.0233 89.2977L36.2107 103.02L37.2835 109.904C37.4578 111.05 38.0224 112.1 38.8819 112.877C39.7414 113.655 40.8429 114.112 42.0003 114.171C46.6843 114.387 54.0953 113.687 57.3369 107.727C57.8818 106.698 58.0443 105.509 57.7955 104.372V104.372Z" fill="#F2CD38"/>
<path d="M93.14 28.2036C93.1398 24.7554 91.9909 21.4055 89.8748 18.683C87.7587 15.9605 84.7959 14.0205 81.4544 13.1695C78.1129 12.3184 74.5831 12.6047 71.4224 13.9833C68.2618 15.3618 65.6504 17.754 64.0008 20.782C62.3511 17.7541 59.7397 15.362 56.5791 13.9835C53.4184 12.605 49.8887 12.3187 46.5472 13.1697C43.2057 14.0208 40.2429 15.9607 38.1268 18.6832C36.0106 21.4056 34.8616 24.7554 34.8613 28.2036C34.8613 28.6374 34.8909 29.0636 34.9259 29.4881C34.9075 29.8169 34.8613 30.1073 34.8613 30.4628C34.8616 43.6468 64.0008 65.9769 64.0008 65.9769C64.0008 65.9769 93.1397 43.6468 93.1397 30.4628C93.1397 30.1073 93.0936 29.8169 93.0752 29.4881C93.1104 29.0636 93.14 28.6374 93.14 28.2036Z" fill="#EB5A76"/>
</svg>
