<svg  viewBox="0 0 128 128" fill="none" xmlns="http://www.w3.org/2000/svg">
<g clip-path="url(#clip0)">
<path d="M76.1205 45.4304C75.9725 45.6622 75.8306 45.88 75.6855 46.107L76.081 45.8702L76.1205 45.4304Z" fill="#3254C7"/>
<path d="M79.9334 63.5112L79.4473 63.6328L80.8945 66.9358C81.1126 66.8542 81.3385 66.7899 81.5611 66.7152L79.9334 63.5112Z" fill="#3254C7"/>
<path d="M68.033 101.59C68.0802 101.5 68.1374 101.416 68.2034 101.34L69.7061 99.8373C69.9304 99.6151 70.0743 99.3245 70.115 99.0114C70.1557 98.6982 70.0909 98.3805 69.9309 98.1083C68.86 96.318 68.057 94.3805 67.5474 92.3576C67.4679 92.0524 67.289 91.7823 67.0389 91.5901C66.7888 91.3979 66.4817 91.2945 66.1663 91.2963H64.0389C63.6844 91.2953 63.3428 91.1637 63.0792 90.9268C62.8156 90.6898 62.6485 90.3641 62.6098 90.0117C62.3858 88.0606 62.3858 86.0901 62.6098 84.139C62.6485 83.7867 62.8156 83.4609 63.0792 83.224C63.3428 82.9871 63.6844 82.8556 64.0389 82.8547H66.1663C66.4818 82.8564 66.7888 82.753 67.0389 82.5608C67.289 82.3685 67.468 82.0984 67.5474 81.7931C68.0571 79.7703 68.8601 77.8329 69.9309 76.0427C70.091 75.7705 70.1558 75.4526 70.1151 75.1395C70.0743 74.8263 69.9304 74.5356 69.7061 74.3134L68.4991 73.1067L68.9391 73.5469L68.2354 73.2341L65.7133 74.2672L64.4679 73.5683L63.8213 73.8046C63.446 73.9415 63.0385 73.9642 62.6504 73.8697C62.2622 73.7752 61.9108 73.5678 61.6405 73.2736L59.1591 70.5736C58.9325 70.3272 58.7708 70.0283 58.6884 69.7038C58.606 69.3793 58.6055 69.0394 58.6871 68.7147C59.1378 66.9251 60.001 63.4795 60.001 63.3896C60.001 63.2683 62.2757 61.0805 62.2757 61.0805C62.8614 60.8127 63.4665 60.5892 64.0858 60.412C64.604 60.3443 65.1171 60.2429 65.6221 60.1083L67.0805 59.7131L68.1738 59.2864L70.4831 59.3472L70.7258 61.0488L72.0021 61.7779L74.3418 62.1731L74.4634 61.5046H75.6802L77.4426 62.0211L78.7186 62.1731L79.6301 61.0798L79.7213 59.9251L77.2602 59.8339L76.3802 59.7731V58.4363L77.2917 57.996L79.5397 57.5552L80.9989 57.8696L80.6341 57.16L79.297 56.5523L78.3549 56.203L77.6242 55.5501L77.3199 55.5803L77.0466 56.9478L76.4391 57.5856L75.7101 57.8699C75.7101 57.8699 75.3455 58.3454 75.4061 58.5275C75.4666 58.7096 75.7101 59.5 75.7101 59.5L74.981 59.1659L74.1605 58.2859L72.6717 56.4021L71.1826 55.3088L71.0917 55.643L71.5778 56.9496L72.8293 58.3326L72.6717 58.9246L71.9725 58.4384L71.9119 59.4715L70.3919 57.0715L68.9335 55.9782L67.4439 56.2059L66.2293 57.163L66.4413 59.0469L64.5885 60.1104L63.2213 59.4723L62.8866 58.4392L62.4309 57.1934L62.2746 56.5248L64.7709 56.0982L64.8314 54.9741L63.1301 54.2144V53.7878L64.8314 53.3925L65.8946 52.2992L66.4746 52.0656L67.0879 51.3414C63.4052 46.0443 60.0504 40.5267 57.0423 34.8195C51.5619 34.1245 45.9946 34.7488 40.8042 36.6405C35.6138 38.5321 30.9504 41.6363 27.2023 45.6947C28.6938 45.6062 30.5533 45.3459 31.0885 44.5811C32.0175 43.2533 32.7418 43.1731 32.7418 43.1731L35.3231 44.7464L31.0895 47.3835C31.0895 47.3835 28.9207 48.7371 29.3335 49.7128C29.9425 50.7323 30.6707 51.6755 31.5029 52.5227C31.8943 52.2336 32.2238 51.869 32.4721 51.4505C32.7203 51.032 32.8822 50.568 32.9482 50.0859C32.9533 49.2661 33.2459 48.4741 33.7749 47.8477H35.3237L38.5255 49.1011L40.5906 52.3792C39.6349 53.2237 38.5075 53.851 37.2861 54.2179C35.7373 54.5085 37.1831 56.0579 37.1831 56.0579L35.6335 56.3056C34.63 56.6471 33.7012 57.1775 32.8973 57.8683C32.3825 58.4127 31.7174 58.7916 30.9866 58.9568C30.8364 59.816 30.5578 60.6476 30.1599 61.4238C29.541 62.5627 29.6437 64.1118 29.1274 64.8347C28.6111 65.5576 27.5786 62.5182 27.5786 62.5182L25.0338 63.1888C24.8159 63.2461 24.6231 63.3741 24.4857 63.5526C24.3482 63.7311 24.2738 63.9502 24.2741 64.1755V66.2022C24.274 66.3797 24.3203 66.5541 24.4084 66.7082C24.4965 66.8623 24.6233 66.9907 24.7763 67.0807C24.9292 67.1708 25.1031 67.2193 25.2806 67.2215C25.458 67.2237 25.633 67.1795 25.7882 67.0934C25.9451 67.0061 26.1191 66.9541 26.2982 66.9408C26.4772 66.9275 26.657 66.9534 26.8251 67.0165C26.9932 67.0796 27.1455 67.1785 27.2716 67.3063C27.3976 67.4342 27.4944 67.5879 27.5551 67.7568L29.4373 72.9947L31.0906 70.4131L36.8738 71.5491L41.2109 74.2339L42.0375 76.2995L47.6197 77.4485C47.8049 77.4867 47.9804 77.5622 48.1355 77.6705C48.2905 77.7789 48.4218 77.9177 48.5212 78.0786C48.6207 78.2395 48.6863 78.4189 48.7139 78.606C48.7416 78.7931 48.7307 78.9839 48.6821 79.1667L46.8917 85.9032L43.6898 87.3491L41.7282 91.1699L39.9114 92.6235C39.5254 92.9322 39.232 93.3413 39.0631 93.8058C38.8943 94.2703 38.8567 94.7723 38.9543 95.2568L39.3749 97.3392C39.3995 97.4625 39.3802 97.5905 39.3204 97.701C39.2605 97.8115 39.1639 97.8976 39.0472 97.9444C38.9305 97.9911 38.8011 97.9955 38.6816 97.9568C38.562 97.9181 38.4597 97.8388 38.3925 97.7326L35.945 93.8549L34.7055 87.3483L32.8474 82.288L28.8167 78.5715L29.1266 74.8502L27.5778 71.5501L25.0994 69.5878L23.6535 68.9675L22.2085 68.6576L20.6589 65.663H19.4197L18.5909 61.8576C17.9644 64.4568 17.6423 67.12 17.6309 69.7936C17.6327 76.8098 19.7294 83.6656 23.6524 89.4825C27.5753 95.2995 33.1459 99.8126 39.6501 102.443L39.6359 102.447C44.1666 104.296 49.0343 105.174 53.9253 105.026C58.8163 104.879 63.6221 103.708 68.033 101.589V101.59ZM62.3813 48.8387L62.7901 48.3704C62.8198 48.3364 62.8579 48.3107 62.9006 48.296C62.9433 48.2813 62.9891 48.278 63.0335 48.2864L63.4802 48.3723C63.5369 48.3832 63.5883 48.4128 63.6262 48.4563C63.6642 48.4997 63.6866 48.5547 63.6898 48.6123L63.7335 49.3565C63.7368 49.4134 63.7587 49.4676 63.7959 49.5107L65.6893 51.6973C65.7143 51.7264 65.7326 51.7607 65.7428 51.7977C65.753 51.8346 65.7549 51.8734 65.7483 51.9112C65.7417 51.949 65.7269 51.9849 65.7047 52.0162C65.6826 52.0476 65.6538 52.0737 65.6205 52.0926L64.5162 52.7134C64.4656 52.7419 64.4069 52.7525 64.3495 52.7435L63.397 52.5955C63.3582 52.5894 63.3214 52.5746 63.2891 52.5522C63.2569 52.5298 63.2302 52.5004 63.2111 52.4661C63.1919 52.4319 63.1807 52.3938 63.1784 52.3546C63.1761 52.3154 63.1827 52.2763 63.1978 52.24L63.3717 51.8227C63.3978 51.7593 63.3978 51.6882 63.3717 51.6248L62.3378 49.1096C62.3188 49.0649 62.3128 49.0158 62.3205 48.9679C62.3282 48.92 62.3492 48.8752 62.3813 48.8387V48.8387ZM55.0805 39.6672C55.0584 39.7603 55.0473 39.8556 55.0474 39.9512V41.4435C55.0474 41.6129 55.012 41.7805 54.9434 41.9355C54.8749 42.0905 54.7748 42.2294 54.6495 42.3435L53.6325 43.2691C53.5432 43.3504 53.4425 43.4182 53.3335 43.4702L48.9199 45.5568C48.6743 45.6729 48.4746 45.8677 48.3525 46.1104L47.4786 47.8491C47.3446 48.1157 47.1173 48.3238 46.8399 48.4339C46.5626 48.544 46.2544 48.5483 45.9741 48.4461L45.8941 48.4173C45.6666 48.3347 45.469 48.1862 45.3263 47.9907L43.7335 45.7947C43.5965 45.6063 43.5164 45.3826 43.5027 45.1501C43.4891 44.9175 43.5426 44.686 43.6567 44.4829L44.2642 43.4006C44.3711 43.2105 44.4249 42.9953 44.4203 42.7773C44.4156 42.5593 44.3525 42.3466 44.2375 42.1613L43.8391 41.5213C43.7298 41.3458 43.5776 41.201 43.3968 41.1006C43.216 41.0002 43.0126 40.9475 42.8058 40.9475H41.9015C41.6421 40.9475 41.3895 40.8646 41.1806 40.711C40.9716 40.5573 40.8171 40.3409 40.7397 40.0934C40.6623 39.8458 40.666 39.58 40.7503 39.3347C40.8346 39.0894 40.995 38.8774 41.2082 38.7296L42.5455 37.8029C42.6862 37.7053 42.846 37.6385 43.0143 37.607L51.2253 36.0643C51.3656 36.0381 51.5095 36.0366 51.6503 36.06L54.1215 36.4725C54.3876 36.5169 54.6314 36.6482 54.8149 36.8459L55.1221 37.1773C55.2582 37.3244 55.3559 37.5028 55.4066 37.6967C55.4572 37.8906 55.4593 38.094 55.4125 38.2888L55.0805 39.6672Z" fill="#3254C7"/>
<path d="M67.8027 102.41C67.8027 102.431 67.8086 102.448 67.8099 102.468L67.8027 102.41Z" fill="#3254C7"/>
<path d="M84.2163 64.8049V64.0723L83.4883 63.0251L84.1765 65.0443C84.1966 64.9658 84.2099 64.8857 84.2163 64.8049V64.8049Z" fill="#3254C7"/>
<path d="M52.8771 105.043L52.8691 105.041L52.8771 105.043Z" fill="#3254C7"/>
<path d="M112.835 82.8546H110.707C110.392 82.8564 110.085 82.753 109.834 82.5607C109.584 82.3684 109.405 82.0983 109.326 81.793C108.816 79.7704 108.013 77.8331 106.943 76.0426C106.783 75.7705 106.718 75.4528 106.758 75.1396C106.799 74.8264 106.943 74.5358 107.167 74.3136L108.67 72.8109C108.92 72.5591 109.068 72.2241 109.086 71.87C109.105 71.5158 108.992 71.1673 108.77 70.8909C107.547 69.3568 106.156 67.9653 104.622 66.7426C104.345 66.5204 103.997 66.4077 103.643 66.4262C103.288 66.4447 102.953 66.5931 102.702 66.8429L101.199 68.3453C100.977 68.5697 100.686 68.7136 100.373 68.7542C100.06 68.7949 99.7422 68.73 99.47 68.5698C97.6795 67.4997 95.7422 66.6968 93.7196 66.1866C93.4143 66.1072 93.1442 65.9283 92.952 65.6782C92.7597 65.4281 92.6563 65.121 92.658 64.8056V62.6781C92.657 62.3237 92.5255 61.9821 92.2886 61.7186C92.0517 61.455 91.726 61.288 91.3738 61.2493C89.4226 61.0253 87.4522 61.0253 85.501 61.2493C85.1487 61.288 84.823 61.455 84.5861 61.7186C84.3492 61.9821 84.2177 62.3237 84.2167 62.6781V64.8056C84.2184 65.121 84.115 65.4281 83.9228 65.6782C83.7305 65.9283 83.4604 66.1072 83.1551 66.1866C81.1325 66.6968 79.1952 67.4996 77.4047 68.5698C77.1325 68.73 76.8147 68.7949 76.5015 68.7542C76.1883 68.7136 75.8976 68.5697 75.6754 68.3453L74.173 66.8429C73.9212 66.5932 73.5862 66.4449 73.2321 66.4264C72.8779 66.4079 72.5294 66.5205 72.253 66.7426C70.7189 67.9653 69.3274 69.3569 68.1047 70.8909C67.8825 71.1673 67.7699 71.5159 67.7884 71.87C67.8069 72.2242 67.9552 72.5591 68.205 72.8109L69.7074 74.3136C69.9318 74.5357 70.0757 74.8264 70.1164 75.1396C70.1571 75.4527 70.0921 75.7705 69.9319 76.0426C68.8617 77.8331 68.059 79.7704 67.549 81.793C67.4695 82.0983 67.2905 82.3685 67.0404 82.5607C66.7902 82.753 66.4831 82.8564 66.1676 82.8546H64.0404C63.6861 82.8557 63.3445 82.9872 63.0809 83.2241C62.8174 83.461 62.6503 83.7866 62.6116 84.1389C62.3873 86.0902 62.3873 88.0607 62.6116 90.012C62.6503 90.3642 62.8174 90.6899 63.0809 90.9268C63.3445 91.1637 63.6861 91.2952 64.0404 91.2962H66.1676C66.4831 91.2945 66.7902 91.3979 67.0404 91.5901C67.2905 91.7824 67.4695 92.0525 67.549 92.3578C68.059 94.3805 68.8617 96.3177 69.9319 98.1082C70.0921 98.3804 70.1571 98.6981 70.1164 99.0113C70.0757 99.3245 69.9318 99.6151 69.7074 99.8373L68.205 101.34C67.9552 101.592 67.8069 101.927 67.7884 102.281C67.7699 102.635 67.8825 102.984 68.1047 103.26C69.3274 104.794 70.7189 106.186 72.253 107.408C72.5294 107.63 72.8779 107.743 73.2321 107.724C73.5862 107.706 73.9212 107.558 74.173 107.308L75.6754 105.806C75.8976 105.581 76.1883 105.437 76.5015 105.397C76.8147 105.356 77.1325 105.421 77.4047 105.581C79.1952 106.651 81.1324 107.454 83.1551 107.964C83.4604 108.044 83.7305 108.223 83.9228 108.473C84.115 108.723 84.2184 109.03 84.2167 109.345V111.473C84.2177 111.827 84.3492 112.169 84.5861 112.432C84.823 112.696 85.1487 112.863 85.501 112.902C87.4522 113.126 89.4226 113.126 91.3738 112.902C91.726 112.863 92.0517 112.696 92.2886 112.432C92.5255 112.169 92.657 111.827 92.658 111.473V109.345C92.6563 109.03 92.7597 108.723 92.952 108.473C93.1442 108.223 93.4143 108.044 93.7196 107.964C95.7423 107.454 97.6795 106.651 99.47 105.581C99.7422 105.421 100.06 105.356 100.373 105.397C100.686 105.437 100.977 105.581 101.199 105.806L102.702 107.308C102.953 107.558 103.288 107.706 103.643 107.725C103.997 107.743 104.345 107.63 104.622 107.408C106.156 106.186 107.547 104.794 108.77 103.26C108.992 102.984 109.105 102.635 109.086 102.281C109.068 101.927 108.92 101.592 108.67 101.34L107.167 99.8373C106.943 99.6151 106.799 99.3244 106.758 99.0113C106.718 98.6981 106.783 98.3803 106.943 98.1082C108.013 96.3177 108.816 94.3805 109.326 92.3578C109.405 92.0525 109.584 91.7824 109.834 91.5902C110.085 91.3979 110.392 91.2945 110.707 91.2962H112.835C113.189 91.2951 113.53 91.1636 113.794 90.9267C114.058 90.6898 114.225 90.3642 114.263 90.012C114.488 88.0607 114.488 86.0902 114.263 84.1389C114.225 83.7867 114.058 83.461 113.794 83.2241C113.53 82.9873 113.189 82.8557 112.835 82.8546ZM89.8828 101.179C86.9706 101.478 84.0373 100.867 81.4858 99.432C78.9342 97.9968 76.8896 95.8068 75.6326 93.1629C74.3756 90.5189 73.9679 87.5507 74.4655 84.6658C74.9631 81.7809 76.3416 79.1207 78.4116 77.0506C80.4817 74.9806 83.1419 73.6021 86.0268 73.1045C88.9117 72.6069 91.8799 73.0146 94.5239 74.2716C97.1678 75.5286 99.3578 77.5732 100.793 80.1248C102.228 82.6763 102.839 85.6096 102.54 88.5218C102.207 91.765 100.766 94.7943 98.4607 97.0997C96.1553 99.405 93.126 100.846 89.8828 101.179V101.179Z" fill="#F2CD38"/>
<path d="M98.4798 97.1115C104.003 91.5849 103.984 82.6114 98.4377 77.0687C92.8914 71.526 83.9179 71.5129 78.3949 77.0396C72.8718 82.5662 72.8907 91.5396 78.437 97.0823C83.9833 102.625 92.9568 102.638 98.4798 97.1115Z" fill="white"/>
<path d="M112.835 82.8546H110.707C110.392 82.8564 110.085 82.753 109.834 82.5607C109.584 82.3684 109.405 82.0983 109.326 81.793C108.816 79.7704 108.013 77.8331 106.943 76.0426C106.783 75.7705 106.718 75.4528 106.758 75.1396C106.799 74.8264 106.943 74.5358 107.167 74.3136L108.67 72.8109C108.92 72.5591 109.068 72.2241 109.086 71.87C109.105 71.5158 108.992 71.1673 108.77 70.8909C107.547 69.3568 106.156 67.9653 104.622 66.7426C104.345 66.5204 103.997 66.4077 103.643 66.4262C103.288 66.4447 102.953 66.5931 102.702 66.8429L101.199 68.3453C100.977 68.5697 100.686 68.7136 100.373 68.7542C100.06 68.7949 99.7422 68.73 99.47 68.5698C97.6795 67.4997 95.7422 66.6968 93.7196 66.1866C93.4143 66.1072 93.1442 65.9283 92.952 65.6782C92.7597 65.4281 92.6563 65.121 92.658 64.8056V62.6781C92.657 62.3237 92.5255 61.9821 92.2886 61.7186C92.0517 61.455 91.726 61.288 91.3738 61.2493C89.4226 61.0253 87.4522 61.0253 85.501 61.2493C85.1487 61.288 84.823 61.455 84.5861 61.7186C84.3492 61.9821 84.2177 62.3237 84.2167 62.6781V64.8056C84.2184 65.121 84.115 65.4281 83.9228 65.6782C83.7305 65.9283 83.4604 66.1072 83.1551 66.1866C81.1325 66.6968 79.1952 67.4996 77.4047 68.5698C77.1325 68.73 76.8147 68.7949 76.5015 68.7542C76.1883 68.7136 75.8976 68.5697 75.6754 68.3453L74.173 66.8429C73.9212 66.5932 73.5862 66.4449 73.2321 66.4264C72.8779 66.4079 72.5294 66.5205 72.253 66.7426C70.7189 67.9653 69.3274 69.3569 68.1047 70.8909C67.8825 71.1673 67.7699 71.5159 67.7884 71.87C67.8069 72.2242 67.9552 72.5591 68.205 72.8109L69.7074 74.3136C69.9318 74.5357 70.0757 74.8264 70.1164 75.1396C70.1571 75.4527 70.0921 75.7705 69.9319 76.0426C68.8617 77.8331 68.059 79.7704 67.549 81.793C67.4695 82.0983 67.2905 82.3685 67.0404 82.5607C66.7902 82.753 66.4831 82.8564 66.1676 82.8546H64.0404C63.6861 82.8557 63.3445 82.9872 63.0809 83.2241C62.8174 83.461 62.6503 83.7866 62.6116 84.1389C62.3873 86.0902 62.3873 88.0607 62.6116 90.012C62.6503 90.3642 62.8174 90.6899 63.0809 90.9268C63.3445 91.1637 63.6861 91.2952 64.0404 91.2962H66.1676C66.4831 91.2945 66.7902 91.3979 67.0404 91.5901C67.2905 91.7824 67.4695 92.0525 67.549 92.3578C68.059 94.3805 68.8617 96.3177 69.9319 98.1082C70.0921 98.3804 70.1571 98.6981 70.1164 99.0113C70.0757 99.3245 69.9318 99.6151 69.7074 99.8373L68.205 101.34C67.9552 101.592 67.8069 101.927 67.7884 102.281C67.7699 102.635 67.8825 102.984 68.1047 103.26C69.3274 104.794 70.7189 106.186 72.253 107.408C72.5294 107.63 72.8779 107.743 73.2321 107.724C73.5862 107.706 73.9212 107.558 74.173 107.308L75.6754 105.806C75.8976 105.581 76.1883 105.437 76.5015 105.397C76.8147 105.356 77.1325 105.421 77.4047 105.581C79.1952 106.651 81.1324 107.454 83.1551 107.964C83.4604 108.044 83.7305 108.223 83.9228 108.473C84.115 108.723 84.2184 109.03 84.2167 109.345V111.473C84.2177 111.827 84.3492 112.169 84.5861 112.432C84.823 112.696 85.1487 112.863 85.501 112.902C87.4522 113.126 89.4226 113.126 91.3738 112.902C91.726 112.863 92.0517 112.696 92.2886 112.432C92.5255 112.169 92.657 111.827 92.658 111.473V109.345C92.6563 109.03 92.7597 108.723 92.952 108.473C93.1442 108.223 93.4143 108.044 93.7196 107.964C95.7423 107.454 97.6795 106.651 99.47 105.581C99.7422 105.421 100.06 105.356 100.373 105.397C100.686 105.437 100.977 105.581 101.199 105.806L102.702 107.308C102.953 107.558 103.288 107.706 103.643 107.725C103.997 107.743 104.345 107.63 104.622 107.408C106.156 106.186 107.547 104.794 108.77 103.26C108.992 102.984 109.105 102.635 109.086 102.281C109.068 101.927 108.92 101.592 108.67 101.34L107.167 99.8373C106.943 99.6151 106.799 99.3244 106.758 99.0113C106.718 98.6981 106.783 98.3803 106.943 98.1082C108.013 96.3177 108.816 94.3805 109.326 92.3578C109.405 92.0525 109.584 91.7824 109.834 91.5902C110.085 91.3979 110.392 91.2945 110.707 91.2962H112.835C113.189 91.2951 113.53 91.1636 113.794 90.9267C114.058 90.6898 114.225 90.3642 114.263 90.012C114.488 88.0607 114.488 86.0902 114.263 84.1389C114.225 83.7867 114.058 83.461 113.794 83.2241C113.53 82.9873 113.189 82.8557 112.835 82.8546ZM89.8828 101.179C86.9706 101.478 84.0373 100.867 81.4858 99.432C78.9342 97.9968 76.8896 95.8068 75.6326 93.1629C74.3756 90.5189 73.9679 87.5507 74.4655 84.6658C74.9631 81.7809 76.3416 79.1207 78.4116 77.0506C80.4817 74.9806 83.1419 73.6021 86.0268 73.1045C88.9117 72.6069 91.8799 73.0146 94.5239 74.2716C97.1678 75.5286 99.3578 77.5732 100.793 80.1248C102.228 82.6763 102.839 85.6096 102.54 88.5218C102.207 91.765 100.766 94.7943 98.4607 97.0997C96.1553 99.405 93.126 100.846 89.8828 101.179V101.179Z" fill="#F2CD38"/>
<path d="M94.0907 92.7251C97.1998 89.614 97.1891 84.5624 94.0669 81.4421C90.9446 78.3219 85.893 78.3145 82.7839 81.4256C79.6747 84.5368 79.6854 89.5883 82.8077 92.7086C85.93 95.8288 90.9816 95.8362 94.0907 92.7251Z" fill="#EB5A76"/>
<path d="M39.909 92.6237L41.7258 91.1701L43.6874 87.3493L46.8892 85.9034L48.6796 79.1669C48.7283 78.9841 48.7392 78.7934 48.7115 78.6063C48.6839 78.4192 48.6183 78.2397 48.5188 78.0788C48.4194 77.9179 48.2881 77.7791 48.133 77.6707C47.978 77.5624 47.8025 77.4869 47.6172 77.4488L42.0351 76.2997L41.2084 74.2341L36.8724 71.5501L31.0892 70.4141L29.4359 72.9957L27.5538 67.7578C27.493 67.5889 27.3963 67.4352 27.2702 67.3073C27.1442 67.1795 26.9918 67.0806 26.8237 67.0175C26.6557 66.9544 26.4759 66.9286 26.2968 66.9418C26.1178 66.9551 25.9438 67.0072 25.7868 67.0944C25.6317 67.1806 25.4567 67.2247 25.2792 67.2225C25.1017 67.2203 24.9279 67.1718 24.7749 67.0818C24.622 66.9917 24.4951 66.8633 24.4071 66.7092C24.319 66.5551 24.2727 66.3807 24.2727 66.2032V64.1765C24.2724 63.9512 24.3468 63.7321 24.4843 63.5536C24.6218 63.3751 24.8145 63.2471 25.0324 63.1898L27.5772 62.5192C27.5772 62.5192 28.6098 65.5592 29.126 64.8357C29.6423 64.1122 29.5396 62.5637 30.1586 61.4248C30.5564 60.6486 30.8351 59.817 30.9852 58.9578C31.716 58.7927 32.3812 58.4137 32.8959 57.8693C33.6999 57.1785 34.6287 56.6481 35.6322 56.3066L37.1818 56.0589C37.1818 56.0589 35.7359 54.5088 37.2847 54.2189C38.5062 53.8521 39.6336 53.2248 40.5892 52.3802L38.5242 49.1021L35.3223 47.8488H33.7735C33.2445 48.4751 32.952 49.2671 32.9468 50.0869C32.8809 50.569 32.719 51.033 32.4707 51.4515C32.2225 51.8701 31.8929 52.2346 31.5015 52.5237C30.6699 51.6764 29.9422 50.733 29.3338 49.7136C28.921 48.7378 31.0898 47.3842 31.0898 47.3842L35.3234 44.7472L32.742 43.1738C32.742 43.1738 32.0188 43.2538 31.0887 44.5818C30.5535 45.3466 28.6935 45.6069 27.2026 45.6954C22.9578 50.2067 19.9817 55.7603 18.5762 61.793L19.4194 65.6634H20.6583L22.2079 68.6581L23.653 68.968L25.0991 69.5874L27.5775 71.5498L29.1263 74.8506L28.8164 78.572L32.8444 82.2896L34.7026 87.3498L35.942 93.8565L38.3895 97.7341C38.4567 97.8403 38.559 97.9196 38.6786 97.9583C38.7982 97.997 38.9276 97.9926 39.0442 97.9459C39.1609 97.8992 39.2576 97.8131 39.3174 97.7026C39.3773 97.592 39.3966 97.464 39.3719 97.3408L38.9519 95.2568C38.8543 94.7723 38.892 94.2703 39.0608 93.8059C39.2296 93.3414 39.5231 92.9324 39.909 92.6237V92.6237Z" fill="#98A9E3"/>
<path d="M63.1961 52.2379C63.181 52.2741 63.1744 52.3133 63.1767 52.3525C63.179 52.3916 63.1902 52.4298 63.2094 52.464C63.2285 52.4982 63.2552 52.5276 63.2874 52.55C63.3197 52.5725 63.3565 52.5873 63.3953 52.5933L64.3478 52.7413C64.4052 52.7503 64.4639 52.7397 64.5145 52.7112L65.6188 52.0904C65.6522 52.0715 65.6809 52.0455 65.7031 52.0141C65.7252 51.9827 65.74 51.9469 65.7466 51.9091C65.7532 51.8713 65.7513 51.8325 65.7411 51.7955C65.7309 51.7585 65.7126 51.7243 65.6876 51.6952L63.7942 49.5085C63.7575 49.4656 63.7359 49.4118 63.7326 49.3555L63.6889 48.6112C63.6857 48.5536 63.6633 48.4987 63.6253 48.4552C63.5874 48.4117 63.536 48.3822 63.4793 48.3712L63.0326 48.2853C62.9882 48.2769 62.9424 48.2802 62.8997 48.2949C62.857 48.3097 62.8189 48.3353 62.7892 48.3693L62.3804 48.8376C62.3486 48.8738 62.3277 48.9182 62.3198 48.9657C62.312 49.0132 62.3176 49.0619 62.3361 49.1064L63.37 51.6216C63.3961 51.685 63.3961 51.7561 63.37 51.8195L63.1961 52.2379Z" fill="#98A9E3"/>
<path d="M41.9 40.948H42.8042C43.011 40.948 43.2144 41.0007 43.3952 41.1011C43.576 41.2015 43.7282 41.3463 43.8376 41.5219L44.236 42.1619C44.3509 42.3472 44.414 42.5599 44.4187 42.7779C44.4234 42.9958 44.3695 43.2111 44.2626 43.4011L43.6552 44.4835C43.541 44.6865 43.4876 44.9181 43.5012 45.1506C43.5148 45.3832 43.5949 45.6069 43.732 45.7952L45.3264 47.9891C45.469 48.1846 45.6667 48.3331 45.8941 48.4158L45.9741 48.4446C46.2545 48.5468 46.5626 48.5424 46.84 48.4323C47.1173 48.3222 47.3446 48.1141 47.4786 47.8475L48.3525 46.1088C48.4746 45.8662 48.6743 45.6713 48.92 45.5552L53.3328 43.4702C53.4416 43.4184 53.5422 43.3509 53.6314 43.2699L54.6485 42.3443C54.7738 42.2302 54.8739 42.0913 54.9424 41.9363C55.0109 41.7813 55.0463 41.6137 55.0464 41.4443V39.9502C55.0462 39.8545 55.0574 39.7592 55.0794 39.6662L55.4101 38.288C55.4568 38.0932 55.4547 37.8898 55.404 37.696C55.3533 37.5022 55.2556 37.3238 55.1194 37.1768L54.8122 36.8454C54.6288 36.6477 54.3849 36.5164 54.1189 36.472L51.6477 36.0595C51.5068 36.0361 51.363 36.0376 51.2226 36.0638L43.0117 37.6064C42.8433 37.638 42.6836 37.7048 42.5429 37.8024L41.2056 38.7291C40.9924 38.8768 40.8319 39.0888 40.7477 39.3341C40.6634 39.5795 40.6597 39.8453 40.7371 40.0929C40.8145 40.3404 40.9689 40.5568 41.1779 40.7104C41.3869 40.8641 41.6395 40.9469 41.8989 40.947L41.9 40.948Z" fill="#98A9E3"/>
<path d="M63.8217 73.8045L64.4684 73.5683L65.7137 74.2672L68.2358 73.2341L68.9404 73.5472L68.2038 72.8109C67.954 72.5592 67.8056 72.2243 67.7872 71.8701C67.7687 71.5159 67.8813 71.1673 68.1036 70.8909C69.3264 69.3569 70.718 67.9654 72.2521 66.7427C72.5284 66.5204 72.877 66.4077 73.2312 66.4262C73.5854 66.4447 73.9204 66.593 74.1721 66.8429L75.6748 68.3453C75.8969 68.5697 76.1876 68.7136 76.5008 68.7543C76.8139 68.795 77.1317 68.7301 77.4038 68.5699C78.5159 67.9218 79.6841 67.3752 80.8942 66.9365L79.447 63.6336L79.9332 63.512L81.5598 66.716C82.0905 66.5368 82.6068 66.3251 83.1548 66.1867C83.4177 66.1165 83.6544 65.9711 83.8359 65.7683C84.0173 65.5655 84.1357 65.3141 84.1764 65.0451L83.4881 63.0259L84.2161 64.0731V62.6781C84.2171 62.3237 84.3487 61.9821 84.5856 61.7186C84.8226 61.455 85.1483 61.288 85.5006 61.2493C85.9953 61.1928 86.5052 61.1915 87.0078 61.1629C85.3478 54.6373 81.855 48.723 76.942 44.1184C76.6652 44.5616 76.3918 45.0027 76.1198 45.4312L76.0806 45.8701L75.6862 46.1072C72.4252 51.1872 69.6529 54.9845 69.6529 54.9845C69.6529 54.9845 68.6276 53.584 67.0897 51.3419L66.4764 52.0661L65.8964 52.2997L64.8332 53.3931L63.1318 53.7883V54.2149L64.8332 54.9747L64.7726 56.0987L62.2764 56.5253L62.4326 57.1939L62.8884 58.4397L63.223 59.4728L64.5902 60.1109L66.443 59.0475L66.231 57.1635L67.4457 56.2064L68.934 55.9768L70.3924 57.0701L71.9124 59.4701L71.9729 58.4371L72.6721 58.9232L72.8297 58.3312L71.5782 56.9483L71.0921 55.6416L71.183 55.3075L72.6721 56.4008L74.1609 58.2845L74.9814 59.1645L75.7105 59.4987C75.7105 59.4987 75.4676 58.7085 75.4065 58.5261C75.3454 58.3437 75.7105 57.8685 75.7105 57.8685L76.4396 57.5843L77.047 56.9464L77.3204 55.5789L77.6246 55.5488L78.3537 56.2019L79.2958 56.5512L80.6329 57.1589L80.9977 57.8685L79.5385 57.5541L77.2905 57.9949L76.379 58.4352V59.772L77.259 59.8328L79.7201 59.924L79.6289 61.0787L78.7174 62.172L77.4414 62.02L75.679 61.5035H74.4641L74.3425 62.172L72.0028 61.7768L70.7265 61.0477L70.4838 59.3461L68.1745 59.2853L67.0812 59.712L65.6228 60.1072C65.1178 60.2418 64.6046 60.3433 64.0865 60.4109C63.4672 60.5881 62.8621 60.8116 62.2764 61.0795C62.2764 61.0795 60.0017 63.2661 60.0017 63.3885C60.0017 63.4784 59.1385 66.924 58.6878 68.7136C58.6062 69.0383 58.6067 69.3782 58.6891 69.7027C58.7715 70.0272 58.9332 70.3261 59.1598 70.5725L61.6412 73.2725C61.9113 73.5668 62.2627 73.7744 62.6508 73.8691C63.0389 73.9638 63.4463 73.9413 63.8217 73.8045V73.8045Z" fill="#98A9E3"/>
<path d="M69.6511 7C67.4918 7 65.3536 7.42533 63.3587 8.25171C61.3637 9.07809 59.5511 10.2893 58.0243 11.8163C56.4975 13.3432 55.2864 15.1559 54.4602 17.1509C53.634 19.1459 53.2088 21.2841 53.209 23.4435C53.209 32.5243 69.6511 54.9856 69.6511 54.9856C69.6511 54.9856 86.0933 32.5229 86.0933 23.4435C86.0934 21.2841 85.6683 19.1459 84.8421 17.1509C84.0158 15.1559 82.8047 13.3432 81.2779 11.8163C79.7511 10.2893 77.9385 9.07809 75.9436 8.25171C73.9486 7.42533 71.8104 7 69.6511 7V7ZM69.6511 31.9528C68.0417 31.9528 66.4683 31.4755 65.1301 30.5813C63.7919 29.6871 62.7489 28.4162 62.1331 26.9292C61.5172 25.4422 61.3561 23.806 61.6702 22.2275C61.9843 20.6489 62.7595 19.199 63.8976 18.061C65.0358 16.9231 66.4858 16.1482 68.0644 15.8343C69.643 15.5205 71.2792 15.6818 72.7661 16.2979C74.2529 16.914 75.5237 17.9572 76.4177 19.2956C77.3117 20.6339 77.7887 22.2073 77.7885 23.8168C77.7882 25.9747 76.9307 28.0442 75.4047 29.57C73.8787 31.0958 71.8091 31.9529 69.6511 31.9528V31.9528Z" fill="#EB5A76"/>
<path d="M69.651 31.9531C74.1451 31.9531 77.7883 28.3099 77.7883 23.8158C77.7883 19.3217 74.1451 15.6785 69.651 15.6785C65.1569 15.6785 61.5137 19.3217 61.5137 23.8158C61.5137 28.3099 65.1569 31.9531 69.651 31.9531Z" fill="white"/>
</g>
<defs>
<clipPath id="clip0">
<path d="M0 16C0 7.16344 7.16344 0 16 0H112C120.837 0 128 7.16344 128 16V112C128 120.837 120.837 128 112 128H16C7.16344 128 0 120.837 0 112V16Z" fill="white"/>
</clipPath>
</defs>
</svg>
