<svg  viewBox="0 0 48 48" fill="none" xmlns="http://www.w3.org/2000/svg">
<path d="M17.58 30.626C16.704 30.626 15.912 30.476 15.204 30.176C14.508 29.876 13.956 29.444 13.548 28.88C13.14 28.316 12.93 27.65 12.918 26.882H15.618C15.654 27.398 15.834 27.806 16.158 28.106C16.494 28.406 16.95 28.556 17.526 28.556C18.114 28.556 18.576 28.418 18.912 28.142C19.248 27.854 19.416 27.482 19.416 27.026C19.416 26.654 19.302 26.348 19.074 26.108C18.846 25.868 18.558 25.682 18.21 25.55C17.874 25.406 17.406 25.25 16.806 25.082C15.99 24.842 15.324 24.608 14.808 24.38C14.304 24.14 13.866 23.786 13.494 23.318C13.134 22.838 12.954 22.202 12.954 21.41C12.954 20.666 13.14 20.018 13.512 19.466C13.884 18.914 14.406 18.494 15.078 18.206C15.75 17.906 16.518 17.756 17.382 17.756C18.678 17.756 19.728 18.074 20.532 18.71C21.348 19.334 21.798 20.21 21.882 21.338H19.11C19.086 20.906 18.9 20.552 18.552 20.276C18.216 19.988 17.766 19.844 17.202 19.844C16.71 19.844 16.314 19.97 16.014 20.222C15.726 20.474 15.582 20.84 15.582 21.32C15.582 21.656 15.69 21.938 15.906 22.166C16.134 22.382 16.41 22.562 16.734 22.706C17.07 22.838 17.538 22.994 18.138 23.174C18.954 23.414 19.62 23.654 20.136 23.894C20.652 24.134 21.096 24.494 21.468 24.974C21.84 25.454 22.026 26.084 22.026 26.864C22.026 27.536 21.852 28.16 21.504 28.736C21.156 29.312 20.646 29.774 19.974 30.122C19.302 30.458 18.504 30.626 17.58 30.626ZM25.7588 20.834C25.8188 19.634 26.2388 18.71 27.0188 18.062C27.8108 17.402 28.8488 17.072 30.1328 17.072C31.0088 17.072 31.7588 17.228 32.3828 17.54C33.0068 17.84 33.4748 18.254 33.7868 18.782C34.1108 19.298 34.2728 19.886 34.2728 20.546C34.2728 21.302 34.0748 21.944 33.6788 22.472C33.2948 22.988 32.8328 23.336 32.2928 23.516V23.588C32.9888 23.804 33.5288 24.188 33.9128 24.74C34.3088 25.292 34.5068 26 34.5068 26.864C34.5068 27.584 34.3388 28.226 34.0028 28.79C33.6788 29.354 33.1928 29.798 32.5448 30.122C31.9088 30.434 31.1408 30.59 30.2408 30.59C28.8848 30.59 27.7808 30.248 26.9288 29.564C26.0768 28.88 25.6268 27.872 25.5788 26.54H28.0268C28.0508 27.128 28.2488 27.602 28.6208 27.962C29.0048 28.31 29.5268 28.484 30.1868 28.484C30.7988 28.484 31.2668 28.316 31.5908 27.98C31.9268 27.632 32.0948 27.188 32.0948 26.648C32.0948 25.928 31.8668 25.412 31.4108 25.1C30.9548 24.788 30.2468 24.632 29.2868 24.632H28.7648V22.562H29.2868C30.9908 22.562 31.8428 21.992 31.8428 20.852C31.8428 20.336 31.6868 19.934 31.3748 19.646C31.0748 19.358 30.6368 19.214 30.0608 19.214C29.4968 19.214 29.0588 19.37 28.7468 19.682C28.4468 19.982 28.2728 20.366 28.2248 20.834H25.7588Z" fill="#3254C7"/>
</svg>
