<svg  viewBox="0 0 48 48" fill="none" xmlns="http://www.w3.org/2000/svg">
<path d="M19.58 30.626C18.704 30.626 17.912 30.476 17.204 30.176C16.508 29.876 15.956 29.444 15.548 28.88C15.14 28.316 14.93 27.65 14.918 26.882H17.618C17.654 27.398 17.834 27.806 18.158 28.106C18.494 28.406 18.95 28.556 19.526 28.556C20.114 28.556 20.576 28.418 20.912 28.142C21.248 27.854 21.416 27.482 21.416 27.026C21.416 26.654 21.302 26.348 21.074 26.108C20.846 25.868 20.558 25.682 20.21 25.55C19.874 25.406 19.406 25.25 18.806 25.082C17.99 24.842 17.324 24.608 16.808 24.38C16.304 24.14 15.866 23.786 15.494 23.318C15.134 22.838 14.954 22.202 14.954 21.41C14.954 20.666 15.14 20.018 15.512 19.466C15.884 18.914 16.406 18.494 17.078 18.206C17.75 17.906 18.518 17.756 19.382 17.756C20.678 17.756 21.728 18.074 22.532 18.71C23.348 19.334 23.798 20.21 23.882 21.338H21.11C21.086 20.906 20.9 20.552 20.552 20.276C20.216 19.988 19.766 19.844 19.202 19.844C18.71 19.844 18.314 19.97 18.014 20.222C17.726 20.474 17.582 20.84 17.582 21.32C17.582 21.656 17.69 21.938 17.906 22.166C18.134 22.382 18.41 22.562 18.734 22.706C19.07 22.838 19.538 22.994 20.138 23.174C20.954 23.414 21.62 23.654 22.136 23.894C22.652 24.134 23.096 24.494 23.468 24.974C23.84 25.454 24.026 26.084 24.026 26.864C24.026 27.536 23.852 28.16 23.504 28.736C23.156 29.312 22.646 29.774 21.974 30.122C21.302 30.458 20.504 30.626 19.58 30.626ZM27.4168 19.7V17.378H31.7548V30.5H29.1628V19.7H27.4168Z" fill="#3254C7"/>
</svg>
