<svg  viewBox="0 0 48 48" fill="none" xmlns="http://www.w3.org/2000/svg">
<path d="M17.58 30.626C16.704 30.626 15.912 30.476 15.204 30.176C14.508 29.876 13.956 29.444 13.548 28.88C13.14 28.316 12.93 27.65 12.918 26.882H15.618C15.654 27.398 15.834 27.806 16.158 28.106C16.494 28.406 16.95 28.556 17.526 28.556C18.114 28.556 18.576 28.418 18.912 28.142C19.248 27.854 19.416 27.482 19.416 27.026C19.416 26.654 19.302 26.348 19.074 26.108C18.846 25.868 18.558 25.682 18.21 25.55C17.874 25.406 17.406 25.25 16.806 25.082C15.99 24.842 15.324 24.608 14.808 24.38C14.304 24.14 13.866 23.786 13.494 23.318C13.134 22.838 12.954 22.202 12.954 21.41C12.954 20.666 13.14 20.018 13.512 19.466C13.884 18.914 14.406 18.494 15.078 18.206C15.75 17.906 16.518 17.756 17.382 17.756C18.678 17.756 19.728 18.074 20.532 18.71C21.348 19.334 21.798 20.21 21.882 21.338H19.11C19.086 20.906 18.9 20.552 18.552 20.276C18.216 19.988 17.766 19.844 17.202 19.844C16.71 19.844 16.314 19.97 16.014 20.222C15.726 20.474 15.582 20.84 15.582 21.32C15.582 21.656 15.69 21.938 15.906 22.166C16.134 22.382 16.41 22.562 16.734 22.706C17.07 22.838 17.538 22.994 18.138 23.174C18.954 23.414 19.62 23.654 20.136 23.894C20.652 24.134 21.096 24.494 21.468 24.974C21.84 25.454 22.026 26.084 22.026 26.864C22.026 27.536 21.852 28.16 21.504 28.736C21.156 29.312 20.646 29.774 19.974 30.122C19.302 30.458 18.504 30.626 17.58 30.626ZM26.5148 27.656C27.6668 26.696 28.5848 25.898 29.2688 25.262C29.9528 24.614 30.5228 23.942 30.9788 23.246C31.4348 22.55 31.6628 21.866 31.6628 21.194C31.6628 20.582 31.5188 20.102 31.2308 19.754C30.9428 19.406 30.4988 19.232 29.8988 19.232C29.2988 19.232 28.8368 19.436 28.5128 19.844C28.1888 20.24 28.0208 20.786 28.0088 21.482H25.5608C25.6088 20.042 26.0348 18.95 26.8388 18.206C27.6548 17.462 28.6868 17.09 29.9348 17.09C31.3028 17.09 32.3528 17.456 33.0848 18.188C33.8168 18.908 34.1828 19.862 34.1828 21.05C34.1828 21.986 33.9308 22.88 33.4268 23.732C32.9228 24.584 32.3468 25.328 31.6988 25.964C31.0508 26.588 30.2048 27.344 29.1608 28.232H34.4708V30.32H25.5788V28.448L26.5148 27.656Z" fill="#3254C7"/>
</svg>
