<svg  viewBox="0 0 48 48" fill="none" xmlns="http://www.w3.org/2000/svg">
<path d="M8.08 30.626C7.204 30.626 6.412 30.476 5.704 30.176C5.008 29.876 4.456 29.444 4.048 28.88C3.64 28.316 3.43 27.65 3.418 26.882H6.118C6.154 27.398 6.334 27.806 6.658 28.106C6.994 28.406 7.45 28.556 8.026 28.556C8.614 28.556 9.076 28.418 9.412 28.142C9.748 27.854 9.916 27.482 9.916 27.026C9.916 26.654 9.802 26.348 9.574 26.108C9.346 25.868 9.058 25.682 8.71 25.55C8.374 25.406 7.906 25.25 7.306 25.082C6.49 24.842 5.824 24.608 5.308 24.38C4.804 24.14 4.366 23.786 3.994 23.318C3.634 22.838 3.454 22.202 3.454 21.41C3.454 20.666 3.64 20.018 4.012 19.466C4.384 18.914 4.906 18.494 5.578 18.206C6.25 17.906 7.018 17.756 7.882 17.756C9.178 17.756 10.228 18.074 11.032 18.71C11.848 19.334 12.298 20.21 12.382 21.338H9.61C9.586 20.906 9.4 20.552 9.052 20.276C8.716 19.988 8.266 19.844 7.702 19.844C7.21 19.844 6.814 19.97 6.514 20.222C6.226 20.474 6.082 20.84 6.082 21.32C6.082 21.656 6.19 21.938 6.406 22.166C6.634 22.382 6.91 22.562 7.234 22.706C7.57 22.838 8.038 22.994 8.638 23.174C9.454 23.414 10.12 23.654 10.636 23.894C11.152 24.134 11.596 24.494 11.968 24.974C12.34 25.454 12.526 26.084 12.526 26.864C12.526 27.536 12.352 28.16 12.004 28.736C11.656 29.312 11.146 29.774 10.474 30.122C9.802 30.458 9.004 30.626 8.08 30.626ZM16.2588 20.834C16.3188 19.634 16.7388 18.71 17.5188 18.062C18.3108 17.402 19.3488 17.072 20.6328 17.072C21.5088 17.072 22.2588 17.228 22.8828 17.54C23.5068 17.84 23.9748 18.254 24.2868 18.782C24.6108 19.298 24.7728 19.886 24.7728 20.546C24.7728 21.302 24.5748 21.944 24.1788 22.472C23.7948 22.988 23.3328 23.336 22.7928 23.516V23.588C23.4888 23.804 24.0288 24.188 24.4128 24.74C24.8088 25.292 25.0068 26 25.0068 26.864C25.0068 27.584 24.8388 28.226 24.5028 28.79C24.1788 29.354 23.6928 29.798 23.0448 30.122C22.4088 30.434 21.6408 30.59 20.7408 30.59C19.3848 30.59 18.2808 30.248 17.4288 29.564C16.5768 28.88 16.1268 27.872 16.0788 26.54H18.5268C18.5508 27.128 18.7488 27.602 19.1208 27.962C19.5048 28.31 20.0268 28.484 20.6868 28.484C21.2988 28.484 21.7668 28.316 22.0908 27.98C22.4268 27.632 22.5948 27.188 22.5948 26.648C22.5948 25.928 22.3668 25.412 21.9108 25.1C21.4548 24.788 20.7468 24.632 19.7868 24.632H19.2648V22.562H19.7868C21.4908 22.562 22.3428 21.992 22.3428 20.852C22.3428 20.336 22.1868 19.934 21.8748 19.646C21.5748 19.358 21.1368 19.214 20.5608 19.214C19.9968 19.214 19.5588 19.37 19.2468 19.682C18.9468 19.982 18.7728 20.366 18.7248 20.834H16.2588ZM30.2021 30.626C29.7461 30.626 29.3681 30.488 29.0681 30.212C28.7801 29.924 28.6361 29.57 28.6361 29.15C28.6361 28.73 28.7801 28.382 29.0681 28.106C29.3681 27.818 29.7461 27.674 30.2021 27.674C30.6461 27.674 31.0121 27.818 31.3001 28.106C31.5881 28.382 31.7321 28.73 31.7321 29.15C31.7321 29.57 31.5881 29.924 31.3001 30.212C31.0121 30.488 30.6461 30.626 30.2021 30.626ZM35.3099 20.834C35.3699 19.634 35.7899 18.71 36.5699 18.062C37.3619 17.402 38.3999 17.072 39.6839 17.072C40.5599 17.072 41.3099 17.228 41.9339 17.54C42.5579 17.84 43.0259 18.254 43.3379 18.782C43.6619 19.298 43.8239 19.886 43.8239 20.546C43.8239 21.302 43.6259 21.944 43.2299 22.472C42.8459 22.988 42.3839 23.336 41.8439 23.516V23.588C42.5399 23.804 43.0799 24.188 43.4639 24.74C43.8599 25.292 44.0579 26 44.0579 26.864C44.0579 27.584 43.8899 28.226 43.5539 28.79C43.2299 29.354 42.7439 29.798 42.0959 30.122C41.4599 30.434 40.6919 30.59 39.7919 30.59C38.4359 30.59 37.3319 30.248 36.4799 29.564C35.6279 28.88 35.1779 27.872 35.1299 26.54H37.5779C37.6019 27.128 37.7999 27.602 38.1719 27.962C38.5559 28.31 39.0779 28.484 39.7379 28.484C40.3499 28.484 40.8179 28.316 41.1419 27.98C41.4779 27.632 41.6459 27.188 41.6459 26.648C41.6459 25.928 41.4179 25.412 40.9619 25.1C40.5059 24.788 39.7979 24.632 38.8379 24.632H38.3159V22.562H38.8379C40.5419 22.562 41.3939 21.992 41.3939 20.852C41.3939 20.336 41.2379 19.934 40.9259 19.646C40.6259 19.358 40.1879 19.214 39.6119 19.214C39.0479 19.214 38.6099 19.37 38.2979 19.682C37.9979 19.982 37.8239 20.366 37.7759 20.834H35.3099Z" fill="#3254C7"/>
</svg>
