<svg  viewBox="0 0 48 48" fill="none" xmlns="http://www.w3.org/2000/svg">
<path d="M24.08 30.626C23.204 30.626 22.412 30.476 21.704 30.176C21.008 29.876 20.456 29.444 20.048 28.88C19.64 28.316 19.43 27.65 19.418 26.882H22.118C22.154 27.398 22.334 27.806 22.658 28.106C22.994 28.406 23.45 28.556 24.026 28.556C24.614 28.556 25.076 28.418 25.412 28.142C25.748 27.854 25.916 27.482 25.916 27.026C25.916 26.654 25.802 26.348 25.574 26.108C25.346 25.868 25.058 25.682 24.71 25.55C24.374 25.406 23.906 25.25 23.306 25.082C22.49 24.842 21.824 24.608 21.308 24.38C20.804 24.14 20.366 23.786 19.994 23.318C19.634 22.838 19.454 22.202 19.454 21.41C19.454 20.666 19.64 20.018 20.012 19.466C20.384 18.914 20.906 18.494 21.578 18.206C22.25 17.906 23.018 17.756 23.882 17.756C25.178 17.756 26.228 18.074 27.032 18.71C27.848 19.334 28.298 20.21 28.382 21.338H25.61C25.586 20.906 25.4 20.552 25.052 20.276C24.716 19.988 24.266 19.844 23.702 19.844C23.21 19.844 22.814 19.97 22.514 20.222C22.226 20.474 22.082 20.84 22.082 21.32C22.082 21.656 22.19 21.938 22.406 22.166C22.634 22.382 22.91 22.562 23.234 22.706C23.57 22.838 24.038 22.994 24.638 23.174C25.454 23.414 26.12 23.654 26.636 23.894C27.152 24.134 27.596 24.494 27.968 24.974C28.34 25.454 28.526 26.084 28.526 26.864C28.526 27.536 28.352 28.16 28.004 28.736C27.656 29.312 27.146 29.774 26.474 30.122C25.802 30.458 25.004 30.626 24.08 30.626Z" fill="#3254C7"/>
</svg>
