<svg  viewBox="0 0 128 128" fill="none" xmlns="http://www.w3.org/2000/svg">
<path d="M54.7751 60.9749C49.9409 61.4322 45.1767 62.4525 40.5791 64.0149L41.4858 66.5215C45.7915 65.0601 50.2504 64.0963 54.7754 63.649L54.7751 60.9749Z" fill="#FF557F"/>
<path d="M84.8341 59.6545L81.1525 58.5679L83.3056 62.5225C80.2836 61.8117 77.2186 61.2983 74.1299 60.9857V63.6631C76.9655 63.9615 79.7798 64.436 82.5566 65.0836L78.5923 67.2393L82.2742 68.3263L87.8894 65.2705L84.8341 59.6545Z" fill="#FF557F"/>
<path d="M34.4346 84.3224V53.061L16.9893 59.5597V113.584L34.4346 107.085V92.8744L30.8453 86.2744L34.4346 84.3224Z" fill="#F2CD38"/>
<path d="M25.6647 50.4865C28.6808 49.0877 31.2265 46.8441 32.9932 44.0276C34.76 41.2112 35.6719 37.9428 35.6185 34.6185C35.6185 27.8222 31.2839 24.3115 25.6647 26.4051C22.6649 27.7797 20.1228 29.9867 18.3407 32.7638C16.5586 35.5409 15.6112 38.7713 15.6113 42.071C15.6113 49.1057 19.8503 52.6521 25.6647 50.4865Z" fill="#F2CD38"/>
<path d="M103.022 50.4867C108.837 52.6523 113.076 49.1058 113.076 42.0704C113.076 38.7707 112.128 35.5404 110.346 32.7633C108.564 29.9862 106.022 27.7792 103.022 26.4045C97.4033 24.3117 93.0686 27.8224 93.0686 34.6178C93.0151 37.9422 93.9269 41.2108 95.6936 44.0274C97.4603 46.844 100.006 49.0877 103.022 50.4867V50.4867Z" fill="#F2CD38"/>
<path d="M64.4389 93.9888C61.1954 93.9888 57.9701 93.8248 54.7754 93.5784V99.7512H74.1303V93.629C70.9375 93.8648 67.6922 93.9888 64.4389 93.9888Z" fill="#3254C7"/>
<path d="M64.3979 41.4153C65.8654 41.4441 67.3235 41.1744 68.6836 40.6226C70.0438 40.0708 71.2776 39.2485 72.3104 38.2054C73.3431 37.1624 74.1532 35.9204 74.6914 34.5549C75.2297 33.1893 75.4849 31.7286 75.4416 30.2615C75.3964 27.3477 74.2073 24.5686 72.1308 22.524C70.0543 20.4795 67.257 19.3335 64.3429 19.3335C61.4288 19.3335 58.6316 20.4795 56.5551 22.524C54.4786 24.5686 53.2894 27.3477 53.2443 30.2615C53.195 31.7395 53.4498 33.2119 53.9929 34.5874C54.536 35.9629 55.3557 37.2123 56.4014 38.258C57.4471 39.3037 58.6964 40.1235 60.0719 40.6666C61.4475 41.2097 62.9198 41.4646 64.3979 41.4153V41.4153Z" fill="#3254C7"/>
<path d="M74.1303 88.2449V46.7732H54.7754V88.2399C61.2179 88.7247 67.6876 88.7264 74.1303 88.2449V88.2449Z" fill="#3254C7"/>
<path d="M94.25 53.062V84.7321C95.2545 84.4276 96.2311 84.1068 97.1705 83.7673L98.9839 88.7831C97.4831 89.3255 95.8868 89.8111 94.2508 90.2697V107.086L111.697 113.584V59.5593L94.25 53.062Z" fill="#F2CD38"/>
<path d="M98.983 88.783L97.1697 83.7673C82.5396 89.0553 59.5697 90.0873 41.7894 86.4972L49.4398 82.3372L42.0766 80.1636L30.8457 86.2753L36.9577 97.5068L44.3204 99.6798L39.867 91.4998C47.9497 93.1766 56.1846 94.0105 64.4393 93.9881C76.1626 94.1762 87.8357 92.4173 98.983 88.783V88.783Z" fill="#FF557F"/>
</svg>
