<svg  viewBox="0 0 128 128" fill="none" xmlns="http://www.w3.org/2000/svg">
<path d="M54.7751 60.9746C49.9409 61.432 45.1767 62.4522 40.5791 64.0146L41.4858 66.5213C45.7915 65.0598 50.2504 64.096 54.7754 63.6487L54.7751 60.9746Z" fill="#EB5A76"/>
<path d="M84.8341 59.6543L81.1525 58.5676L83.3056 62.5223C80.2836 61.8114 77.2186 61.2981 74.1299 60.9855V63.6628C76.9655 63.9613 79.7798 64.4357 82.5565 65.0834L78.5923 67.2391L82.2741 68.326L87.8893 65.2703L84.8341 59.6543Z" fill="#EB5A76"/>
<path d="M34.4346 84.3221V53.0608L16.9893 59.5595V113.583L34.4346 107.085V92.8741L30.8453 86.2741L34.4346 84.3221Z" fill="#F2CD38"/>
<path d="M25.6647 50.4862C28.6808 49.0874 31.2265 46.8438 32.9932 44.0274C34.76 41.2109 35.6719 37.9425 35.6185 34.6182C35.6185 27.822 31.2839 24.3113 25.6647 26.4049C22.6649 27.7795 20.1228 29.9865 18.3407 32.7636C16.5586 35.5406 15.6112 38.771 15.6113 42.0708C15.6113 49.1054 19.8503 52.6518 25.6647 50.4862Z" fill="#F2CD38"/>
<path d="M103.022 50.4864C108.837 52.652 113.076 49.1056 113.076 42.0701C113.076 38.7704 112.128 35.5401 110.346 32.7631C108.564 29.986 106.022 27.779 103.022 26.4043C97.4033 24.3115 93.0686 27.8221 93.0686 34.6176C93.0151 37.942 93.9269 41.2106 95.6936 44.0272C97.4603 46.8438 100.006 49.0875 103.022 50.4864V50.4864Z" fill="#F2CD38"/>
<path d="M94.25 53.0618V84.7319C95.2545 84.4274 96.2305 84.1066 97.1705 83.7671L98.9839 88.7828C97.4825 89.3252 95.8863 89.8108 94.2508 90.2695V107.086L111.696 113.583V59.5591L94.25 53.0618Z" fill="#F2CD38"/>
<path d="M64.4389 93.9885C61.1954 93.9885 57.9701 93.8245 54.7754 93.5781V99.7509H74.1303V93.6288C70.9375 93.8645 67.6922 93.9885 64.4389 93.9885Z" fill="#3254C7"/>
<path d="M64.3979 41.4151C65.8654 41.4438 67.3235 41.1741 68.6836 40.6223C70.0438 40.0706 71.2776 39.2482 72.3104 38.2052C73.3431 37.1621 74.1532 35.9202 74.6914 34.5546C75.2297 33.1891 75.4849 31.7284 75.4416 30.2612C75.3964 27.3475 74.2073 24.5683 72.1308 22.5238C70.0543 20.4792 67.257 19.3333 64.3429 19.3333C61.4288 19.3333 58.6316 20.4792 56.5551 22.5238C54.4786 24.5683 53.2894 27.3475 53.2443 30.2612C53.195 31.7392 53.4498 33.2116 53.9929 34.5872C54.536 35.9627 55.3557 37.212 56.4014 38.2577C57.4471 39.3034 58.6964 40.1233 60.0719 40.6664C61.4475 41.2095 62.9198 41.4643 64.3979 41.4151V41.4151Z" fill="#3254C7"/>
<path d="M74.1303 88.2447V46.7729H54.7754V88.2396C61.2179 88.7245 67.6876 88.7262 74.1303 88.2447V88.2447Z" fill="#3254C7"/>
<path d="M98.983 88.7828L97.1697 83.7671C82.5396 89.0551 59.5697 90.0871 41.7894 86.4969L49.4398 82.3369L42.0766 80.1633L30.8457 86.2751L36.9577 97.5065L44.3204 99.6796L39.867 91.4996C47.9497 93.1763 56.1846 94.0102 64.4393 93.9879C76.1626 94.176 87.8357 92.417 98.983 88.7828V88.7828Z" fill="#EB5A76"/>
</svg>
