<svg id="Layer_1" data-name="Layer 1" xmlns="http://www.w3.org/2000/svg" viewBox="0 0 48 48"><defs><style>.cls-1{fill:none;}.cls-2,.cls-6{fill:#3254c7;}.cls-3{fill:#eb5a76;}.cls-4,.cls-5{fill:#f2cd38;}.cls-5,.cls-6{fill-rule:evenodd;}</style></defs><rect class="cls-1" /><g id="SD_Sport_en_ontspanning" data-name="SD Sport en ontspanning"><path class="cls-2" d="M28,32.5H27a10.04774,10.04774,0,0,1-1.24072-.085l-.28968,1.64283a.9844.9844,0,0,1,.35987.75225,1,1,0,1,1-1.34351-.93066l.28858-1.63666a9.91939,9.91939,0,0,1-2.33191-.849l-.83545,1.447a.9727.9727,0,0,1,.14282.4845,1,1,0,1,1-1.00012-1l.82641-1.43146a10.035,10.035,0,0,1-1.89746-1.59808l-1.28662,1.07971a.94244.94244,0,0,1,.03223.15937,1,1,0,1,1-1-1,.98261.98261,0,0,1,.33423.06744l1.27759-1.07214a9.97657,9.97657,0,0,1-1.25257-2.14374l-1.56653.57013a.986.986,0,0,1-.96338.81872,1,1,0,1,1,0-2,.98269.98269,0,0,1,.62793.23951l1.56092-.56812A9.99251,9.99251,0,0,1,17,22.5l-12,3v10.5163a63.10037,63.10037,0,0,1,11.58447,1.36829,47.54561,47.54561,0,0,0,9.416,1.11523,22.44282,22.44282,0,0,0,7.624-1.32373c.06836-.02478.13989-.03741.20972-.056A5.99775,5.99775,0,0,0,28,32.5Z" transform="translate(0.00071 0)"/><path class="cls-3" d="M17,22.5V19.78078a.99994.99994,0,0,0-1.24243-.97015l-10,2.5A1.00023,1.00023,0,0,0,5,22.28078V25.5Z" transform="translate(0.00071 0)"/><path class="cls-3" d="M35.88228,39.01983a1.50028,1.50028,0,0,0-1.91894-.90283,23.44074,23.44074,0,0,1-7.96289,1.38281A48.33243,48.33243,0,0,1,16.39791,38.367,60.6,60.6,0,0,0,4.00045,36.99981L4,36.99987,4.00008,42.5h11V41.15631c.27991.05267.56055.10522.83826.15795a50.71445,50.71445,0,0,0,10.16211,1.18555A26.41349,26.41349,0,0,0,34.979,40.93926,1.49879,1.49879,0,0,0,35.88228,39.01983Z" transform="translate(0.00071 0)"/><path class="cls-3" d="M20.74984,32.32531H20.75a.9872.9872,0,0,1,.85718.5155l.83545-1.447a9.98885,9.98885,0,0,1-.86634-.49994Zm-2.99121-2.723a.98063.98063,0,0,1,.63354.77319l1.28662-1.07971q-.3402-.36648-.64257-.76562Zm7.01587,2.6405-.28858,1.63666a.92851.92851,0,0,1,.98364.17841l.28968-1.64283A9.96082,9.96082,0,0,1,24.7745,32.24279Zm-6.99085-5.85638a9.93027,9.93027,0,0,1-.34106-.93976l-1.56092.56812a.98308.98308,0,0,1,.37207.76049.94053.94053,0,0,1-.03662.18128Z" transform="translate(0.00071 0)"/><path class="cls-4" d="M24.82943,33.81011a1,1,0,1,0,1,1A1,1,0,0,0,24.82943,33.81011Zm-7.405-4.27526a1,1,0,1,0,1,1A1,1,0,0,0,17.4244,29.53485Zm-2.17066-3.75959a1,1,0,1,0,1,1A1,1,0,0,0,15.25374,25.77526ZM20.75,32.32531a1,1,0,1,0,1,1A1.00005,1.00005,0,0,0,20.75,32.32531Z" transform="translate(0.00071 0)"/><path class="cls-5" d="M35.63924,30.26849a4.44988,4.44988,0,0,0-3.14184-.49036,4.93671,4.93671,0,0,0,5.1372,2.96558A4.44975,4.44975,0,0,0,35.63924,30.26849Zm2.87891-4.98627a4.45153,4.45153,0,0,0,3.14111.4906,4.93694,4.93694,0,0,0-5.13672-2.96612A4.45046,4.45046,0,0,0,38.51815,25.28222ZM41.974,26.78491a5.47052,5.47052,0,0,1-6.48535-3.74482,4.93593,4.93593,0,0,0-3.30615,5.72583,5.47078,5.47078,0,0,1,6.48632,3.74427A4.93623,4.93623,0,0,0,41.974,26.78491Z" transform="translate(0.00071 0)"/><path class="cls-5" d="M30.46749,11.92443l-1.368,3.75879,4.69848,1.71009,1.368-3.75873Zm12.21606,4.44629-6.57788-2.39416-1.368,3.75879,6.57788,2.39416a2,2,0,0,0,1.368-3.75879Zm-15.035-5.47229a1.99148,1.99148,0,0,0-1.96082.35047V11.249l-.687,1.85925a1.99118,1.99118,0,0,0,1.27967,1.54895l1.87939.684,1.36816-3.75873Z" transform="translate(0.00071 0)"/><path class="cls-6" d="M6.54684,7.47479,5.86275,9.35412a3,3,0,0,0,5.63819,2.05212l.684-1.87939a2.96935,2.96935,0,0,0,.16943-1.00244L24.99447,13.125l.69323-1.876L10.39193,5.68176A2.99992,2.99992,0,0,0,6.54684,7.47479Zm2.349.85516-.68408,1.87891a.49985.49985,0,1,1-.93945-.3418l.68408-1.87891a.49985.49985,0,0,1,.93945.3418Zm1.75147-.42676a.4993.4993,0,0,1,.29883.64063L9.92025,11.36315a.49985.49985,0,1,1-.93945-.34179L10.00667,8.202A.50225.50225,0,0,1,10.6473,7.90319Zm17.51245,7.43805.9397.342,1.36816-3.75873-.9397-.342ZM35.166,13.63458l-1.368,3.75879.9397.342,1.368-3.75873Z" transform="translate(0.00071 0)"/></g></svg>