<svg  viewBox="0 0 128 128" fill="none" xmlns="http://www.w3.org/2000/svg">
<g clip-path="url(#clip0)">
<path d="M96.9175 25.4912C101.195 25.4912 104.663 22.0234 104.663 17.7456C104.663 13.4678 101.195 10 96.9175 10C92.6397 10 89.1719 13.4678 89.1719 17.7456C89.1719 22.0234 92.6397 25.4912 96.9175 25.4912Z" fill="#F2CD38"/>
<path d="M21.1831 52.457C25.4609 52.457 28.9287 48.9892 28.9287 44.7114C28.9287 40.4336 25.4609 36.9658 21.1831 36.9658C16.9053 36.9658 13.4375 40.4336 13.4375 44.7114C13.4375 48.9892 16.9053 52.457 21.1831 52.457Z" fill="#F2CD38"/>
<path d="M107.818 89.1765C112.096 89.1765 115.563 85.7087 115.563 81.4309C115.563 77.1531 112.096 73.6853 107.818 73.6853C103.54 73.6853 100.072 77.1531 100.072 81.4309C100.072 85.7087 103.54 89.1765 107.818 89.1765Z" fill="#F2CD38"/>
<path d="M107.818 89.1767C107.762 89.1767 107.711 89.1612 107.654 89.1599C108.536 94.9236 107.672 99.6516 104.724 102.6C98.4004 108.924 83.9537 105.762 68.443 96.0132C74.1436 91.8954 79.5013 87.3228 84.4638 82.3402C89.4444 77.3717 94.0131 72.0068 98.1249 66.2986C99.9614 69.2058 101.625 72.2186 103.107 75.3215C104.269 74.4251 105.664 73.8814 107.126 73.7551C105.283 69.838 103.162 66.0578 100.78 62.4434C112.593 44.426 115.906 27.4167 107.749 19.2599C106.808 18.3301 105.74 17.5387 104.576 16.9095C104.62 17.1864 104.648 17.4655 104.66 17.7455C104.652 19.0487 104.311 20.3283 103.67 21.4631C104.039 21.7129 104.391 21.9879 104.722 22.2863C111.05 28.6146 107.882 43.0711 98.1233 58.5882C94.0113 52.8799 89.4426 47.515 84.4622 42.5463C79.4961 37.5683 74.134 33.0017 68.4289 28.8914C74.8527 24.6362 81.9602 21.517 89.4409 19.67C89.033 18.2359 89.089 16.7096 89.6009 15.3092C80.6196 17.2694 72.1126 20.9804 64.5662 26.23C46.5513 14.4186 29.5457 11.1058 21.3857 19.2602C17.1724 23.4735 16.0417 30.0602 17.5401 37.9162C18.6566 37.3012 19.9089 36.9748 21.1836 36.9663C21.3553 36.9663 21.5161 37.0058 21.6849 37.0167C20.4582 30.661 21.2441 25.4546 24.4121 22.2866C25.6832 21.1407 27.1703 20.2602 28.7862 19.6967C30.4021 19.1331 32.1142 18.8979 33.8222 19.0047C41.0582 19.0047 50.6601 22.5764 60.7044 28.8914C49.284 37.141 39.2592 47.1671 31.011 58.5884C29.3378 55.9369 27.8061 53.1986 26.4222 50.3852C25.3453 51.3859 24.0042 52.0568 22.5577 52.3186C24.2755 55.8118 26.2115 59.1934 28.3542 62.4434C16.5411 80.4612 13.2276 97.47 21.3857 105.627C23.0578 107.175 25.0235 108.371 27.1664 109.145C29.3094 109.919 31.5859 110.255 33.8612 110.133C42.4212 110.133 53.2977 106.077 64.5686 98.6863C75.8398 106.077 86.715 110.133 95.2758 110.133C97.551 110.255 99.8275 109.919 101.97 109.145C104.113 108.371 106.079 107.174 107.751 105.627C111.772 101.606 112.994 95.4284 111.796 88.045C110.599 88.7795 109.223 89.1709 107.818 89.1767ZM24.411 102.6C18.0833 96.2719 21.2523 81.8159 31.01 66.2988C35.1218 72.0071 39.6905 77.3719 44.671 82.3404C49.6339 87.3232 54.9918 91.8961 60.6924 96.0146C45.1841 105.764 30.7374 108.928 24.411 102.6ZM47.6974 79.314C42.4874 74.1237 37.7522 68.4777 33.5486 62.4434C41.9888 50.369 52.4885 39.8746 64.567 31.4404C70.6011 35.6385 76.2471 40.3685 81.4374 45.5738C86.6474 50.7637 91.3825 56.4094 95.5862 62.4434C91.3826 68.4776 86.6474 74.1236 81.4374 79.3138C76.2475 84.5233 70.602 89.2582 64.5684 93.4618C58.5341 89.2584 52.8879 84.5236 47.6974 79.314V79.314Z" fill="#EB5A76"/>
<path d="M74.6052 56.1766V63.8006C74.6052 66.1353 75.5042 67.426 77.301 67.426C78.2013 67.4036 79.0871 67.1947 79.9026 66.8126V75.4182C78.4075 76.1169 76.7757 76.4742 75.1255 76.4641C69.2138 76.4641 66.4706 72.0996 66.4706 65.2748V56.1766H61.978V76.0332H53.8447V56.1766H49.209L50.1546 47.571H79.9026V56.1766H74.6052Z" fill="#3254C7"/>
</g>
<defs>
<clipPath id="clip0">
<path d="M0 16C0 7.16344 7.16344 0 16 0H112C120.837 0 128 7.16344 128 16V112C128 120.837 120.837 128 112 128H16C7.16344 128 0 120.837 0 112V16Z" fill="white"/>
</clipPath>
</defs>
</svg>
