<svg id="Layer_1" data-name="Layer 1" xmlns="http://www.w3.org/2000/svg" viewBox="0 0 48 48"><defs><style>.cls-1{fill:none;}.cls-2{fill:#f2cd38;}.cls-3{fill:#eb5a76;}.cls-4{fill:#3254c7;}</style></defs><rect class="cls-1" /><g id="SD_STEM" data-name="SD STEM"><circle class="cls-2" cx="32.14878" cy="15.41432" r="2.85714"/><path class="cls-3" d="M43.9658,13.33054c-.29382-1.66651-2.43664-2.81061-5.49768-3.22248.12452-3.08282-.62683-5.39172-2.21582-5.97a2.3237,2.3237,0,0,0-.8-.138c-1.44764.00006-3.15418,1.23364-4.7378,3.28442a9.02278,9.02278,0,0,0-4.49353-1.64166,2.70287,2.70287,0,0,0-1.78638.579c-1.29577,1.08734-1.21154,3.51532-.03894,6.37091-2.73388,1.43384-4.35888,3.23963-4.06518,4.9054.2937,1.6665,2.43652,2.81054,5.49768,3.22247-.12463,3.08283.62671,5.39179,2.2157,5.97009a2.32371,2.32371,0,0,0,.8.138c1.44751,0,3.15417-1.23358,4.73779-3.28448a9.02278,9.02278,0,0,0,4.49353,1.64166,2.70287,2.70287,0,0,0,1.78638-.579c1.29577-1.08728,1.21154-3.51526.03894-6.37085C42.63438,16.80215,44.25951,14.99637,43.9658,13.33054ZM35.45238,5a1.316,1.316,0,0,1,.45788.0777c1.05847.38525,1.65113,2.26782,1.55567,4.92169q-.79487-.062-1.65064-.06317c-.54,0-1.10937.038-1.67822.07678a22.90081,22.90081,0,0,0-2.59692-2.176C32.96214,6.00961,34.39964,5.00009,35.45238,5Zm2.01367,10.70062a20.73112,20.73112,0,0,1,1.12939,2.0539,21.0721,21.0721,0,0,1-2.18652.852c.19934-.46607.3927-.941.5719-1.43323C37.16087,16.67862,37.31859,16.1882,37.46605,15.70065Zm-1.42493,1.13062c-.27734.76208-.57739,1.47876-.8916,2.15515-.72534.19574-1.48706.36761-2.2821.50781-.77893.13739-1.55042.23572-2.31165.30213-.54053-.53858-1.07178-1.11176-1.58142-1.71906-.51868-.61822-.99158-1.23932-1.42139-1.85541.19727-.73462.43079-1.47882.70215-2.22448.27771-.76319.57825-1.48078.893-2.158.73584-.19684,1.498-.36707,2.28064-.50507.77893-.13733,1.55041-.23572,2.31152-.30212.54065.53857,1.0719,1.11175,1.58154,1.719.51.60779.98389,1.22724,1.42053,1.85C36.54918,15.32736,36.31725,16.07278,36.04112,16.83127Zm-1.478,3.33069a20.98927,20.98927,0,0,1-1.21142,2.01861,21.52761,21.52761,0,0,1-1.85706-1.49548c.51233-.061,1.02112-.1134,1.54651-.20606C33.561,20.38736,34.0659,20.27841,34.56309,20.162ZM29.222,19.85812c-.2456.00788-.499.03431-.74121.03431-.562,0-1.0918-.022-1.592-.06134a20.71493,20.71493,0,0,1,.36011-2.32874c.30517.40765.62109.81445.95947,1.21771C28.54063,19.11612,28.88,19.49277,29.222,19.85812ZM26.83214,15.121a21.11474,21.11474,0,0,1-1.12744-2.05823,20.747,20.747,0,0,1,2.18554-.84741c-.20044.4682-.39477.94532-.57483,1.44C27.13622,14.14767,26.97911,14.63577,26.83214,15.121ZM29.733,10.6666a21.01971,21.01971,0,0,1,1.21142-2.01844,21.494,21.494,0,0,1,1.85694,1.49543c-.51221.061-1.021.11334-1.54639.206C30.73521,10.44125,30.23033,10.55014,29.733,10.6666Zm6.35473,1.44195c-.33227-.396-.67163-.77264-1.01367-1.138.24585-.00787.49927-.0343.7417-.0343.55847,0,1.08569.02148,1.583.06036a21.06448,21.06448,0,0,1-.35571,2.32379C36.73912,12.91476,36.42442,12.50986,36.08775,12.10855ZM25.07726,6.98782a1.73527,1.73527,0,0,1,1.14367-.345,7.96524,7.96524,0,0,1,3.901,1.45246,22.94518,22.94518,0,0,0-1.67749,2.90783,22.84681,22.84681,0,0,0-3.14331,1.14728C24.30162,9.68668,24.21373,7.71243,25.07726,6.98782ZM21.31517,17.32443c-.15991-.907.7345-2.09619,2.39258-3.18115.33923-.22192.71008-.432,1.09411-.63605a22.86054,22.86054,0,0,0,1.67457,2.90729,22.84421,22.84421,0,0,0-.57862,3.29919C23.10045,19.32285,21.49132,18.32352,21.31517,17.32443Zm7.52869,8.50421a1.31651,1.31651,0,0,1-.458-.07769c-.86548-.315-1.44812-1.68421-1.55872-3.6626-.02258-.403-.019-.82709-.0039-1.25983q.79815.06254,1.65759.06391c.54,0,1.10937-.038,1.67834-.07679a22.89226,22.89226,0,0,0,2.59681,2.176C31.33409,24.81912,29.89659,25.82864,28.84386,25.82864Zm10.58691-5.9627c.57275,1.897.49353,3.38287-.212,3.97485a1.7347,1.7347,0,0,1-1.14355.345,7.96327,7.96327,0,0,1-3.901-1.45239,22.94493,22.94493,0,0,0,1.67773-2.9079,22.83422,22.83422,0,0,0,3.14942-1.15015C39.16454,19.07864,39.31358,19.47787,39.43077,19.86594Zm.0603-2.551a22.83541,22.83541,0,0,0-1.67138-2.90069A22.82817,22.82817,0,0,0,38.3983,11.115c2.79724.39093,4.40649,1.3902,4.58264,2.38922C43.17662,14.61429,41.84044,16.07016,39.49107,17.315Z" transform="translate(0.00071 0)"/><path class="cls-2" d="M4.00011,18.88742l.78137,4.43164,1.9696-.34735.17359.98486-1.96949.34729.34717,1.96961,1.96973-.34729.17358.9848-1.9696.34729.34729,1.9696,1.9696-.34729.17371.98481-1.96973.34729.34741,1.9696L8.31383,31.835l.1737.9848-1.9696.34729.34741,1.96967,1.96948-.34729.17359.9848-1.96948.34729.34729,1.96961,1.9696-.34729.17358.9848L7.55992,39.076l.34717,1.9696,1.96973-.34729.17358.9848-1.9696.34729L8.42809,44l26.58984-4.68848Zm6.24475,9.49945,12.845,8.45807L12.0786,38.78653Z" transform="translate(0.00071 0)"/><path class="cls-4" d="M9.8768,40.69828l-1.96972.34729.1737.9848,1.96961-.34729Zm-.521-2.95441-1.96973.34729.17371.9848,1.9696-.34729Zm-.521-2.95447-1.9696.34735.1737.98481,1.96949-.34729Zm-.521-2.9544-1.96949.34729.17359.9848,1.9696-.34729Zm-.52088-2.95441-1.9696.34729.17358.9848,1.96973-.34729Zm-.52087-2.95441-1.96973.34729.17371.9848,1.9696-.34729Zm-.521-2.95447-1.9696.34729.1737.98487,1.96948-.34735Z" transform="translate(0.00071 0)"/><path class="cls-4" d="M18.6,8h-5.3999a.89979.89979,0,0,0-.8728.68164L11.05382,13.774l-1.582-2.63715A.8994.8994,0,0,0,8.70006,10.7H6.9a.9.9,0,0,0,0,1.8H8.19029l2.438,4.06323A.90115.90115,0,0,0,11.4,17a.91022.91022,0,0,0,.13281-.00964.89989.89989,0,0,0,.74-.67194L13.90318,9.8H18.6a.9.9,0,1,0,0-1.8Zm-.887,3.72833a.90039.90039,0,0,0-1.23487.30853l-.30835.514-.30859-.514a.9.9,0,1,0-1.54333.92634L15.12,14.3l-.80212,1.33679a.9.9,0,0,0,1.54333.92639l.30859-.5141.30835.5141a.90006.90006,0,0,0,1.54346-.92639L17.21934,14.3l.80225-1.33685A.9.9,0,0,0,17.713,11.7283Z" transform="translate(0.00071 0)"/><path class="cls-4" d="M40.50035,30.5a.5.5,0,0,0,.5-.49994V30a.5.5,0,0,0-.5-.5h-.50024v-.00018a1.9999,1.9999,0,0,0-2-2v-.5a.5.5,0,1,0-1,0v.5h-.5v-.5a.5.5,0,1,0-1,0v.5h-.5v-.5a.5.5,0,1,0-1,0v.5a2.00005,2.00005,0,0,0-2,2V29.5h-.50025a.5.5,0,0,0-.5.5V30a.5.5,0,0,0,.5.49994h.50025V31h-.50025a.5.5,0,0,0-.5.5V31.5a.5.5,0,0,0,.5.49994h.50025v.5h-.50025a.5.5,0,0,0-.5.5V33a.5.5,0,0,0,.5.49994h.50025a1.9999,1.9999,0,0,0,2,1.99982v.50042a.5.5,0,0,0,1,0v-.50042h.5v.50042a.5.5,0,0,0,1,0v-.50042h.5v.50042a.5.5,0,0,0,1,0v-.50042a2,2,0,0,0,2-1.99982h.50024a.5.5,0,0,0,.5-.49994V33a.5.5,0,0,0-.5-.5h-.50024V32h.50024a.5.5,0,0,0,.5-.49994V31.5a.5.5,0,0,0-.5-.5h-.50024v-.5Zm-1.50024,3a1.001,1.001,0,0,1-1,1h-4a1.001,1.001,0,0,1-1-1v-4a1.001,1.001,0,0,1,1-1h4a1.001,1.001,0,0,1,1,1Zm-5,.00006h4v-4h-4Z" transform="translate(0.00071 0)"/></g></svg>