<svg  viewBox="0 0 128 128" fill="none" xmlns="http://www.w3.org/2000/svg">
<path d="M61.4107 28.7267H68.3152V12.1414H20.7064C18.7392 12.1414 16.8526 12.9228 15.4615 14.3138C14.0705 15.7049 13.2891 17.5915 13.2891 19.5587V49.3134C13.2891 51.2806 14.0705 53.1672 15.4615 54.5582C16.1503 55.247 16.968 55.7933 17.8679 56.1661C18.7678 56.5388 19.7323 56.7307 20.7064 56.7307H61.4107V28.7267Z" fill="#3254C7"/>
<path d="M36.9574 40.2668L36.3707 44.3983H25.1787V25.741H36.1062L36.6928 29.8724H29.8142V32.857H35.3843V36.9884H29.8142V40.2668H36.9574Z" fill="white"/>
<path d="M56.4209 25.741V44.3972H52.0225L44.0795 33.7098V44.3972H39.4443V25.741H43.8662L51.783 36.3468V25.741H56.4209Z" fill="white"/>
<path d="M74.9275 83.673C74.6547 83.9455 74.3073 84.131 73.9291 84.2061C73.5508 84.2812 73.1589 84.2425 72.8026 84.0948C72.4464 83.9471 72.142 83.6971 71.9279 83.3765C71.7137 83.0558 71.5995 82.6788 71.5995 82.2932V73.3162H61.4129V61.7842C59.3098 60.9612 57.0125 60.769 54.802 61.2312C52.5915 61.6934 50.5636 62.7899 48.9665 64.3866L48.3974 64.9554L47.8283 64.3866C45.6627 62.221 42.7297 60.998 39.6671 60.9833C36.6045 60.9686 33.66 62.1635 31.4737 64.3082L8.94434 86.4076L14.967 99.5396C17.3504 104.737 21.1754 109.141 25.9877 112.228C30.8001 115.315 36.3974 116.956 42.115 116.956H54.675C60.3926 116.956 65.99 115.315 70.8024 112.228C75.6148 109.141 79.4399 104.737 81.8233 99.5396L87.8454 86.4076L79.9443 78.6559L74.9275 83.673Z" fill="#EB5A76"/>
<path d="M58.5356 77.8713C57.2703 77.2063 55.8456 76.9047 54.4194 77C52.9932 77.0953 51.6212 77.5836 50.4556 78.411L50.4514 78.4139C49.8504 78.8404 49.1317 79.0695 48.3948 79.0695C47.6579 79.0695 46.9393 78.8404 46.3383 78.4139L46.334 78.4107C45.1684 77.5834 43.7964 77.0951 42.3702 76.9999C40.944 76.9046 39.5193 77.2063 38.254 77.8713L19.501 87.7254L22.8815 92.1462C24.9766 94.8859 27.6748 97.1059 30.7668 98.6339C33.8588 100.162 37.2614 100.957 40.7103 100.957H56.0799C59.5289 100.957 62.9315 100.162 66.0235 98.6339C69.1156 97.1059 71.8139 94.8859 73.909 92.1462L77.2906 87.7254L58.5356 77.8713Z" fill="#3254C7"/>
<path d="M58.307 81.6961V77.7891C57.063 77.1786 55.6776 76.9142 54.2962 77.0236C52.9149 77.133 51.5884 77.6123 50.456 78.411C50.0103 78.7125 49.501 78.9072 48.9678 78.9798V81.6961C48.9677 81.9031 49.0085 82.1081 49.0877 82.2993C49.1669 82.4906 49.283 82.6644 49.4294 82.8107C49.5757 82.9571 49.7495 83.0732 49.9408 83.1524C50.132 83.2316 50.337 83.2724 50.544 83.2723H56.7307C57.1488 83.2723 57.5497 83.1063 57.8453 82.8107C58.1409 82.5151 58.307 82.1141 58.307 81.6961V81.6961Z" fill="white"/>
<path d="M59.4326 78.3425V81.6961C59.4326 82.1142 59.5987 82.5151 59.8943 82.8107C60.1899 83.1063 60.5908 83.2724 61.0089 83.2724H67.1956C67.543 83.2658 67.8779 83.142 68.1462 82.9212L59.4326 78.3425Z" fill="white"/>
<path d="M37.3774 81.696V78.3325L28.6553 82.9154C28.9248 83.14 29.2629 83.2658 29.6137 83.2722H35.8003C36.0074 83.2724 36.2125 83.2317 36.4038 83.1525C36.5951 83.0733 36.769 82.9572 36.9154 82.8109C37.0619 82.6645 37.1781 82.4907 37.2573 82.2994C37.3366 82.1081 37.3774 81.903 37.3774 81.696V81.696Z" fill="white"/>
<path d="M46.3347 78.411C45.205 77.6146 43.8822 77.1361 42.5043 77.0255C41.1265 76.9149 39.7443 77.1762 38.502 77.7822V81.6961C38.5021 82.1142 38.6683 82.5151 38.964 82.8107C39.2597 83.1063 39.6607 83.2724 40.0788 83.2724H46.2654C46.6835 83.2724 47.0844 83.1063 47.38 82.8107C47.6756 82.5151 47.8417 82.1142 47.8417 81.6961V78.9828C47.3017 78.912 46.7857 78.7163 46.3347 78.411V78.411Z" fill="white"/>
<path d="M48.4679 90.2773C44.9552 90.1396 41.4536 90.7539 38.1975 92.0791C34.9415 93.4043 32.0061 95.4098 29.5879 97.9613C32.993 99.9231 36.8536 100.956 40.7834 100.957H56.154C60.0838 100.956 63.9444 99.9231 67.3495 97.9613C64.9311 95.4096 61.9955 93.4039 58.7391 92.0787C55.4828 90.7536 51.9809 90.1394 48.4679 90.2773V90.2773Z" fill="#F2CD38"/>
<path d="M109.02 28.7266H61.4111V73.3162H71.5978V82.2932C71.5978 82.6789 71.7121 83.0559 71.9264 83.3766C72.1407 83.6973 72.4452 83.9472 72.8016 84.0948C73.1579 84.2424 73.55 84.2809 73.9282 84.2057C74.3065 84.1304 74.6539 83.9446 74.9266 83.6719L85.2831 73.3151H109.019C109.993 73.3151 110.957 73.1232 111.857 72.7504C112.757 72.3776 113.575 71.8313 114.263 71.1425C114.952 70.4537 115.498 69.6361 115.871 68.7362C116.244 67.8363 116.436 66.8718 116.436 65.8978V36.1439C116.436 34.1769 115.655 32.2905 114.264 30.8995C112.873 29.5085 110.987 28.7268 109.02 28.7266V28.7266Z" fill="#F2CD38"/>
<path d="M80.3635 49.8424H85.5875V54.1066H80.3635V60.9832H75.6475V42.3269H86.2541L86.8675 46.5912H80.3635V49.8424Z" fill="#3254C7"/>
<path d="M97.8034 60.9832L93.832 53.6266V60.9821H89.168V42.3269H95.4024C99.9074 42.3269 102.361 44.832 102.361 48.2162C102.387 49.369 102.048 50.5007 101.392 51.4488C100.735 52.3969 99.7956 53.1127 98.7072 53.4936L103.345 60.9832H97.8034ZM93.832 51.0949H94.7096C96.5762 51.0949 97.6162 50.0549 97.6162 48.5898C97.6162 47.1498 96.5762 46.1098 94.7096 46.1098H93.832V51.0949Z" fill="#3254C7"/>
</svg>
