<svg id="Layer_1" data-name="Layer 1" xmlns="http://www.w3.org/2000/svg" viewBox="0 0 48 48"><defs><style>.cls-1{fill:none;}.cls-2{fill:#3254c7;}.cls-3{fill:#eb5a76;}.cls-4{fill:#f2cd38;}</style></defs><rect class="cls-1" /><g id="SD_Voeding_en_horeca" data-name="SD Voeding en horeca"><path class="cls-2" d="M4,24.45829a4,4,0,0,0,4,4H40a4.00013,4.00013,0,0,0,4-4ZM25.7207,7.54508A1.97879,1.97879,0,0,0,26,6.54172a2,2,0,1,0-4,0,1.97972,1.97972,0,0,0,.27966,1.00433Z" transform="translate(0.00071 0)"/><path class="cls-3" d="M25.72888,7.54508l-3.46716.001A17.00214,17.00214,0,0,0,7,24.45829H41A17.00226,17.00226,0,0,0,25.72888,7.54508Zm-1.72912,3.41327A13.57329,13.57329,0,0,0,10.8103,21.56479a.49975.49975,0,0,1-.48779.39356.472.472,0,0,1-.10693-.01172.49924.49924,0,0,1-.38184-.59473,14.5778,14.5778,0,0,1,14.166-11.39355.5.5,0,0,1,0,1Z" transform="translate(0.00071 0)"/><path class="cls-4" d="M31.81287,28.72562c-.53443-.36224-1.74109-.66852-3.86121,1.29291-3.63989,3.36767-7.66724,4.95739-8.64893,5.06707-.98144.10962-2.21508-.79016-.2644-2.79,1.42847-1.46442,1.49146-2.795,1.00317-3.60694a.47977.47977,0,0,0-.75671-.08227,53.02247,53.02247,0,0,1-5.35754,4.92c-2.82984,2.17523-3.1698,3.6789-3.1698,3.6789l-3.349,1.2713a1.82437,1.82437,0,0,0-1.06678,2.32946l.5282,1.4513a1.82444,1.82444,0,0,0,2.35938,1.08252l11.56982-4.373a11.787,11.787,0,0,0,3.92005-2.44775c2.14611-2.022,5.6969-5.424,7.17859-7.16675A.423.423,0,0,0,31.81287,28.72562Z" transform="translate(0.00071 0)"/><path class="cls-3" d="M23.43506,30.01047a4.13041,4.13041,0,0,0-1.28662.76337A10.41976,10.41976,0,0,0,20.704,33.35068c-.2489.54834-.48425,1.09735-.67517,1.55426a17.82576,17.82576,0,0,0,2.91064-1.29925c.07984-.21894.16748-.46167.2583-.71692.27527-.77277.57959-1.65992.78394-2.35089A.42786.42786,0,0,0,23.43506,30.01047ZM27.34619,28.471a4.43673,4.43673,0,0,0-1.56079.8,18.21138,18.21138,0,0,0-2.38354,4.077,25.31331,25.31331,0,0,0,3.835-2.69513c.228-.57453.44738-1.14747.61218-1.62543A.42763.42763,0,0,0,27.34619,28.471Z" transform="translate(0.00071 0)"/></g></svg>