<svg  viewBox="0 0 128 128" fill="none" xmlns="http://www.w3.org/2000/svg">
<path d="M89.221 22.4116C91.4994 22.4116 93.3464 20.5646 93.3464 18.2862C93.3464 16.0079 91.4994 14.1609 89.221 14.1609C86.9427 14.1609 85.0957 16.0079 85.0957 18.2862C85.0957 20.5646 86.9427 22.4116 89.221 22.4116Z" fill="#EB5A76"/>
<path d="M99.8938 85.6036C94.3564 87.0753 88.4796 86.5757 83.2701 84.1903C79.1576 82.0442 74.691 80.6593 70.0858 80.1023L56.6047 103.452C55.9411 104.601 55.5918 105.905 55.5918 107.232C55.5918 108.56 55.9412 109.863 56.6048 111.013C57.2685 112.162 58.223 113.117 59.3724 113.78C60.5219 114.444 61.8257 114.793 63.153 114.793H103.65C104.978 114.793 106.281 114.444 107.431 113.78C108.58 113.117 109.535 112.162 110.198 111.013C110.862 109.863 111.211 108.559 111.211 107.232C111.211 105.905 110.862 104.601 110.198 103.452L99.8938 85.6036Z" fill="#EB5A76"/>
<path d="M64.4414 43.4539L62.4147 44.6867C62.1153 44.8711 61.763 44.9505 61.4134 44.9124C61.0639 44.8743 60.7369 44.7209 60.4843 44.4763C58.827 42.846 56.9404 41.4665 54.8843 40.3817C54.574 40.2154 54.328 39.9505 54.1852 39.6287C54.0424 39.3069 54.011 38.9467 54.096 38.6051L54.656 36.3038C54.7481 35.9191 54.6952 35.514 54.5074 35.1659C54.3196 34.8177 54.0102 34.551 53.6382 34.4166C51.585 33.6644 49.4537 33.1456 47.2846 32.8699C46.8924 32.8184 46.495 32.9131 46.1683 33.1361C45.8416 33.359 45.6085 33.6945 45.5136 34.0785L44.9536 36.3798C44.872 36.7222 44.6786 37.0277 44.404 37.2479C44.1293 37.4681 43.7891 37.5904 43.4371 37.5955C41.1121 37.614 38.8022 37.9722 36.5808 38.6587C36.2441 38.7599 35.8832 38.746 35.5552 38.6192C35.2273 38.4924 34.9508 38.2601 34.7696 37.9587L33.5368 35.9321C33.3305 35.5953 33.0073 35.3463 32.6291 35.2326C32.2508 35.1189 31.844 35.1486 31.4862 35.3158C29.498 36.2334 27.6215 37.3755 25.8931 38.7198C25.5801 38.9607 25.3668 39.3085 25.2939 39.6967C25.2211 40.0849 25.2938 40.4863 25.4982 40.8243L26.731 42.851C26.9154 43.1504 26.9948 43.5027 26.9566 43.8522C26.9185 44.2017 26.765 44.5286 26.5203 44.7811C24.8901 46.4385 23.5107 48.3251 22.4259 50.3811C22.2595 50.6914 21.9945 50.9374 21.6728 51.0802C21.351 51.223 20.9908 51.2545 20.6491 51.1697L18.348 50.6097C17.9634 50.5175 17.5582 50.5703 17.2101 50.758C16.8619 50.9458 16.5952 51.2552 16.4608 51.6273C15.7085 53.6804 15.1897 55.8117 14.9142 57.9809C14.8625 58.373 14.9572 58.7704 15.1802 59.0971C15.4032 59.4238 15.7387 59.6569 16.1227 59.7518L18.424 60.3118C18.7664 60.3934 19.0719 60.5868 19.292 60.8615C19.5121 61.1361 19.6344 61.4764 19.6395 61.8283C19.6581 64.1533 20.0163 66.4632 20.7027 68.6846C20.8039 69.0214 20.7901 69.3822 20.6633 69.7102C20.5365 70.0382 20.3041 70.3147 20.0027 70.4958L17.976 71.7286C17.6392 71.9349 17.3902 72.258 17.2765 72.6363C17.1628 73.0146 17.1924 73.4215 17.3598 73.7793C18.2767 75.7671 19.4185 77.6434 20.7627 79.3713C21.0036 79.6843 21.3515 79.8976 21.7397 79.9705C22.128 80.0433 22.5294 79.9706 22.8675 79.7662L24.8942 78.5334C25.1935 78.349 25.5458 78.2696 25.8953 78.3077C26.2449 78.3459 26.5718 78.4994 26.8243 78.7441C28.4822 80.3748 30.3695 81.7546 32.4264 82.8395C32.7367 83.0058 32.9827 83.2708 33.1254 83.5925C33.2682 83.9143 33.2996 84.2745 33.2147 84.6161L32.6547 86.9174C32.5626 87.302 32.6154 87.7071 32.8031 88.0552C32.9909 88.4033 33.3003 88.67 33.6723 88.8043C35.7254 89.5568 37.8567 90.0756 40.0259 90.351C40.418 90.4026 40.8155 90.308 41.1422 90.0851C41.4689 89.8622 41.7021 89.5267 41.7971 89.1427L42.3571 86.8414C42.4387 86.499 42.6321 86.1935 42.9067 85.9733C43.1814 85.7531 43.5216 85.6308 43.8736 85.6257C46.1986 85.607 48.5084 85.2489 50.7299 84.5625C51.0666 84.4613 51.4274 84.4751 51.7554 84.6019C52.0834 84.7287 52.3597 84.9611 52.5408 85.2625L53.7736 87.2891C53.98 87.626 54.3031 87.875 54.6814 87.9888C55.0597 88.1025 55.4667 88.0729 55.8246 87.9057C57.8123 86.9883 59.6885 85.8465 61.4166 84.5025C61.7295 84.2615 61.9428 83.9137 62.0156 83.5254C62.0885 83.1372 62.0158 82.7357 61.8115 82.3977L60.5787 80.371C60.3943 80.0717 60.3148 79.7194 60.3529 79.3699C60.391 79.0203 60.5445 78.6935 60.7891 78.4409C62.4196 76.7832 63.7991 74.8962 64.8837 72.8395C65.0501 72.5293 65.3151 72.2834 65.6368 72.1406C65.9585 71.9979 66.3187 71.9664 66.6603 72.0513L68.9616 72.6113C69.3463 72.7035 69.7514 72.6506 70.0996 72.4629C70.4477 72.2752 70.7145 71.9657 70.8488 71.5937C71.6011 69.5405 72.12 67.4093 72.3955 65.2401C72.4471 64.8479 72.3524 64.4505 72.1294 64.1238C71.9065 63.7971 71.5709 63.564 71.187 63.4691L68.8856 62.9091C68.5432 62.8276 68.2377 62.6342 68.0175 62.3596C67.7974 62.085 67.675 61.7448 67.6699 61.3929C67.6515 59.0678 67.2934 56.7579 66.607 54.5363C66.5057 54.1996 66.5196 53.8388 66.6464 53.5108C66.7731 53.1829 67.0056 52.9065 67.307 52.7254L69.3331 51.4931C69.6699 51.2867 69.9189 50.9636 70.0326 50.5853C70.1462 50.207 70.1166 49.8 69.9494 49.4422C69.032 47.4545 67.8901 45.5783 66.5462 43.8502C66.3054 43.537 65.9577 43.3234 65.5694 43.2503C65.1811 43.1772 64.7795 43.2497 64.4414 43.4539ZM53.2054 74.2006C50.6054 76.1725 47.4588 77.2912 44.1976 77.4031C40.9364 77.5149 37.7206 76.6145 34.9916 74.8254C32.2627 73.0363 30.1545 70.4463 28.9566 67.411C27.7587 64.3757 27.5297 61.044 28.3012 57.8734C29.0727 54.7028 30.8068 51.8488 33.2654 49.7033C35.724 47.5577 38.7864 46.2259 42.0323 45.8906C45.2781 45.5554 48.5482 46.2331 51.3934 47.8309C54.2386 49.4286 56.5194 51.868 57.9227 54.8139C59.485 58.0953 59.8688 61.8148 59.0096 65.346C58.1504 68.8773 56.1006 72.0046 53.2054 74.2014V74.2006Z" fill="#3254C7"/>
<path d="M52.3122 63.7148C53.4699 58.9508 50.5326 54.147 45.7515 52.9851C40.9705 51.8233 36.1562 54.7435 34.9985 59.5075C33.8408 64.2715 36.7782 69.0754 41.5592 70.2372C46.3403 71.399 51.1546 68.4789 52.3122 63.7148Z" fill="#3254C7"/>
<path d="M95.0507 36.2898H71.7539V42.169H95.0507V36.2898Z" fill="#F2CD38"/>
<path d="M70.0859 80.1012C74.6911 80.6582 79.1577 82.0431 83.2702 84.1892C88.4797 86.5745 94.3565 87.0742 99.8939 85.6025L92.019 71.9625V42.1692H74.7841V71.9636L70.0859 80.1012Z" fill="#F2CD38"/>
<path d="M79.8976 31.3585C83.0912 31.3585 85.68 28.7696 85.68 25.5761C85.68 22.3826 83.0912 19.7937 79.8976 19.7937C76.7041 19.7937 74.1152 22.3826 74.1152 25.5761C74.1152 28.7696 76.7041 31.3585 79.8976 31.3585Z" fill="#EB5A76"/>
<path d="M87.8592 42.4441H78.9453V45.7609H87.8592V42.4441Z" fill="white"/>
<path d="M87.8592 51.3582H78.9453V54.675H87.8592V51.3582Z" fill="white"/>
<path d="M87.8592 60.2722H78.9453V63.589H87.8592V60.2722Z" fill="white"/>
<path d="M87.8592 69.1855H78.9453V72.5023H87.8592V69.1855Z" fill="white"/>
<path d="M87.8592 78.0996H78.9453V81.4164H87.8592V78.0996Z" fill="white"/>
<path d="M87.8592 87.0137H78.9453V90.3305H87.8592V87.0137Z" fill="white"/>
<path d="M87.8592 95.9277H78.9453V99.2445H87.8592V95.9277Z" fill="white"/>
</svg>
