<svg  viewBox="0 0 128 128" fill="none" xmlns="http://www.w3.org/2000/svg">
<path d="M40.9863 23.9414H32.9756V37.3174H19.5996V45.3254H32.9756V58.7014H40.9863V45.3254H54.3596V37.3174H40.9863V23.9414Z" fill="#EB5A76"/>
<path d="M46.4371 74.3333L36.9784 83.7893L27.5224 74.3333L21.8584 79.9973L31.3171 89.4532L21.8584 98.9119L27.5224 104.573L36.9784 95.1172L46.4371 104.573L52.1011 98.9119L42.6424 89.4532L52.1011 79.9973L46.4371 74.3333Z" fill="#3254C7"/>
<path d="M108.912 37.3164H74.1523V45.3263H108.912V37.3164Z" fill="#3254C7"/>
<path d="M92.5133 73.0773C91.52 72.846 90.4841 72.8716 89.5035 73.1518C88.5228 73.4319 87.6297 73.9573 86.9085 74.6785C86.1872 75.3996 85.6617 76.2927 85.3814 77.2733C85.1012 78.254 85.0754 79.2899 85.3067 80.2832C85.5562 81.3717 86.1075 82.3678 86.8974 83.1573C87.6873 83.9468 88.6836 84.4976 89.7723 84.7467C90.7653 84.9776 91.8009 84.9518 92.7812 84.6715C93.7615 84.3913 94.6542 83.8659 95.3752 83.145C96.0962 82.4241 96.6216 81.5313 96.9018 80.551C97.1821 79.5708 97.208 78.5352 96.9771 77.5421C96.7279 76.4536 96.177 75.4573 95.3875 74.6676C94.5979 73.8779 93.6018 73.3268 92.5133 73.0773V73.0773Z" fill="#EB5A76"/>
<path d="M92.512 91.9752C91.5189 91.7441 90.4832 91.7699 89.5027 92.0501C88.5223 92.3304 87.6294 92.8558 86.9084 93.5768C86.1873 94.2978 85.6619 95.1906 85.3816 96.171C85.1013 97.1514 85.0754 98.1871 85.3064 99.1803C85.5556 100.269 86.1067 101.266 86.8965 102.056C87.6864 102.845 88.6829 103.396 89.7718 103.646C90.7649 103.877 91.8006 103.851 92.7811 103.571C93.7616 103.291 94.6545 102.765 95.3755 102.044C96.0966 101.323 96.622 100.43 96.9022 99.4496C97.1824 98.4692 97.2082 97.4335 96.9771 96.4403C96.7278 95.3516 96.1766 94.3552 95.3869 93.5654C94.5971 92.7757 93.6007 92.2245 92.512 91.9752V91.9752Z" fill="#EB5A76"/>
</svg>
