<svg  viewBox="0 0 128 128" fill="none" xmlns="http://www.w3.org/2000/svg">
<g clip-path="url(#clip0)">
<path d="M81.2207 16.655C76.3655 16.6541 71.5819 17.8256 67.2766 20.0699C62.9713 22.3143 59.2716 25.5651 56.4922 29.546C59.115 31.701 60.8341 34.7614 61.3098 38.1225C61.4975 39.1789 61.6287 40.2444 61.7031 41.3148C62.1477 43.9359 62.1643 46.6118 61.7525 49.2382C63.1761 49.6013 64.4385 50.4276 65.341 51.5869C66.2435 52.7462 66.7348 54.1728 66.7375 55.642V57.3836C66.7349 58.9769 66.1578 60.5159 65.1119 61.718C64.0661 62.9201 62.6219 63.7047 61.0442 63.9278C60.7062 65.3014 60.2064 66.6301 59.5554 67.886C63.0276 71.4638 67.3316 74.1263 72.0833 75.6359C76.8349 77.1455 81.8864 77.4551 86.7869 76.5372C91.6874 75.6193 96.2843 73.5024 100.168 70.3754C104.051 67.2485 107.099 63.2087 109.041 58.6168C110.983 54.0248 111.758 49.0235 111.297 44.0592C110.835 39.0949 109.152 34.3221 106.397 30.1667C103.642 26.0113 99.9008 22.6027 95.5078 20.245C91.1148 17.8874 86.2064 16.654 81.2207 16.655V16.655Z" fill="white"/>
<path d="M100.464 70.1411C100.133 69.3174 99.6318 68.5731 98.9927 67.9572C98.3535 67.3413 97.5911 66.8678 96.7557 66.5678L88.5957 63.6611C88.0189 65.9297 84.8184 67.6678 80.944 67.6678C79.4771 67.8221 77.9962 67.5653 76.6669 66.926C75.3377 66.2866 74.2125 65.2901 73.4173 64.0478L65.384 66.5342C64.5593 66.7906 63.7962 67.2142 63.1424 67.7785C62.4886 68.3428 61.9581 69.0358 61.584 69.8142C66.9783 74.4599 73.8453 77.0422 80.9641 77.102C88.083 77.1618 94.9923 74.6953 100.464 70.1409V70.1411Z" fill="#EB5A76"/>
<path d="M93.9484 40.4006C93.914 40.7385 93.8716 41.0539 93.8273 41.3622V41.3006C93.6475 42.7315 93.3034 44.137 92.802 45.4891L92.8017 45.3438L92.7991 45.1201C92.7967 44.9675 92.794 44.7803 92.7887 44.5441C92.7863 44.4419 92.7822 44.335 92.7796 44.2188C92.7745 44.0292 92.7678 43.8254 92.7606 43.6027C92.7542 43.4161 92.7476 43.2401 92.7393 43.0342C92.7268 42.7369 92.7126 42.4209 92.695 42.0886C92.6846 41.8974 92.6743 41.7105 92.6617 41.5105C92.6383 41.1235 92.6124 40.7267 92.5804 40.3166C92.4654 38.5416 92.2275 36.7766 91.8684 35.0345C90.4068 31.3563 86.1385 33.6038 86.1385 33.6038C83.9851 34.0287 81.767 34.003 79.6239 33.5284C77.4809 33.0537 75.4594 32.1404 73.6868 30.8459C71.1962 34.6165 69.9312 39.0643 70.0647 43.5811L69.7399 45.0795C69.7399 45.0795 69.7172 44.9329 69.6364 44.455L69.6287 44.4105C69.5881 44.1686 69.5316 43.8377 69.4567 43.4014L69.4092 43.1249L69.3492 42.7761C69.3025 42.5038 69.2497 42.1971 69.1911 41.8595L69.1703 41.7435L69.1369 41.5494C69.0764 41.2014 69.014 40.8398 68.9412 40.4217C68.0285 40.6733 67.2235 41.2171 66.6492 41.9698C66.075 42.7226 65.7633 43.6427 65.7617 44.5894V45.7289C65.7635 46.7744 66.1436 47.7839 66.8316 48.5711C67.5197 49.3583 68.4693 49.8699 69.5052 50.0115C69.9369 51.7775 70.772 53.4194 71.9449 54.8084C73.1178 56.1973 74.5967 57.2956 76.2655 58.0169V61.5049C76.2655 61.9587 76.1237 62.4011 75.8599 62.7704C75.5961 63.1397 75.2235 63.4173 74.7942 63.5643L73.0729 64.1545L73.418 64.0478C74.2132 65.2901 75.3383 66.2867 76.6676 66.926C77.9968 67.5653 79.4777 67.8221 80.9447 67.6678C84.77 67.6678 87.9284 65.9705 88.5625 63.7438L88.0396 63.5643C87.6103 63.4172 87.2378 63.1396 86.9741 62.7704C86.7104 62.4011 86.5688 61.9586 86.5689 61.5049V58.0699C88.2682 57.3601 89.7771 56.2611 90.974 54.8614C92.1708 53.4617 93.0222 51.8005 93.4596 50.0115C94.4957 49.8702 95.4456 49.3587 96.134 48.5715C96.8223 47.7843 97.2025 46.7746 97.2044 45.7289V44.5894C97.2026 43.6291 96.8818 42.6966 96.2924 41.9384C95.7031 41.1802 94.8785 40.6393 93.9484 40.4006V40.4006Z" fill="#F2CD38"/>
<path d="M70.0643 43.5811C69.9303 39.064 71.1952 34.6158 73.6859 30.8451C75.4586 32.1395 77.4802 33.0527 79.6232 33.5273C81.7663 34.0019 83.9844 34.0276 86.1379 33.6027C86.1379 33.6027 90.4059 31.3552 91.868 35.0333C92.4803 38.4849 92.7925 41.9829 92.8013 45.4883C94.2043 41.5216 94.4983 37.2473 93.6515 33.1259C92.3254 25.7699 85.6606 25.1843 81.3083 24.6768C76.956 24.1693 73.9635 25.6635 72.8414 28.3568C69.8491 27.9165 67.6598 33.0928 68.6355 38.6781C69.6112 44.2635 69.7384 45.0805 69.7384 45.0805L70.0643 43.5811Z" fill="#3254C7"/>
<path d="M81.2127 14C75.919 14.0035 70.7047 15.2871 66.0143 17.7413C61.3239 20.1955 57.2965 23.7474 54.2754 28.0944C55.0632 28.511 55.8099 29.0009 56.5058 29.5576C60.0685 24.4597 65.1184 20.5862 70.9653 18.4662C76.8123 16.3462 83.1712 16.0831 89.1734 17.7129C95.1755 19.3427 100.528 22.7859 104.5 27.5721C108.471 32.3582 110.868 38.2539 111.363 44.4537C111.858 50.6534 110.427 56.8547 107.265 62.2105C104.103 67.5662 99.3651 71.8151 93.6976 74.3767C88.0302 76.9382 81.7101 77.6875 75.6008 76.5221C69.4915 75.3567 63.891 72.3336 59.5645 67.8656C59.1392 68.6791 58.6523 69.4588 58.1079 70.1979C61.9425 73.995 66.6533 76.789 71.8241 78.3331C76.9949 79.8772 82.4665 80.1238 87.7553 79.051C93.044 77.9783 97.987 75.6193 102.148 72.1825C106.308 68.7457 109.558 64.3369 111.61 59.3458C113.662 54.3547 114.453 48.935 113.913 43.5657C113.373 38.1963 111.518 33.0427 108.514 28.5602C105.509 24.0777 101.446 20.4044 96.6846 17.865C91.923 15.3255 86.6092 13.9981 81.2127 14V14Z" fill="#2D5CDA"/>
<path d="M53.1477 84.8589C50.4877 89.1912 32.017 88.484 30.8045 85.428L19.5162 88.9213C17.4677 89.5556 15.6761 90.8291 14.4037 92.5554C13.1313 94.2816 12.445 96.3699 12.4453 98.5144V106.723H71.3253V98.4162C71.3253 96.3439 70.6841 94.3223 69.4897 92.6288C68.2952 90.9354 66.606 89.653 64.6539 88.9576L53.1477 84.8589Z" fill="#EB5A76"/>
<path d="M61.7043 41.3144C61.63 40.2441 61.4987 39.1785 61.311 38.1222C59.2844 26.8787 49.0977 25.9835 42.4452 25.2078C35.7926 24.432 31.2185 26.715 29.5038 30.831C25.6105 30.2579 22.6172 35.9136 22.7305 42.8747L22.7188 42.9014L22.731 42.979C22.7533 44.1948 22.8682 45.4072 23.0748 46.6056C24.5657 55.1424 24.7604 56.3923 24.7604 56.3923L24.7974 56.2211L26.319 65.9731C26.319 65.9731 28.6772 73.4787 41.3977 72.5598C56.4012 71.476 50.7708 62.9784 61.3425 52.3747C62.1331 48.7404 62.2557 44.9926 61.7043 41.3144V41.3144Z" fill="#3254C7"/>
<path d="M61.7525 49.2383C61.649 50.1956 61.5221 51.2156 61.3418 52.3761C50.7701 62.9799 56.4005 71.4775 41.397 72.5612C28.677 73.4796 26.3184 65.9745 26.3184 65.9745L24.7968 56.2212L24.7597 56.3924C24.7597 56.3924 24.616 55.4705 23.6557 49.9457C22.6473 50.5173 21.8077 51.345 21.2217 52.345C20.6357 53.3451 20.3241 54.4821 20.3184 55.6412V57.3828C20.3195 58.662 20.6907 59.9136 21.3872 60.9866C22.0836 62.0596 23.0755 62.9083 24.2434 63.4303C24.8597 66.2831 26.1607 68.9433 28.0342 71.1813C29.9077 73.4193 32.2974 75.168 34.9973 76.2767V81.6852C34.9972 82.3531 34.7885 83.0043 34.4003 83.5477C34.012 84.0912 33.4637 84.4998 32.832 84.7164L30.3026 85.5836L30.8053 85.4281C32.0072 88.4575 50.144 89.1713 53.0533 84.9649L52.3288 84.7164C51.6969 84.4999 51.1485 84.0913 50.7603 83.5478C50.3721 83.0044 50.1634 82.3531 50.1634 81.6852V76.3697C52.8399 75.317 55.2248 73.6376 57.1179 71.4725C59.011 69.3074 60.3572 66.7198 61.0434 63.9268C62.6209 63.7037 64.0651 62.9193 65.1108 61.7174C66.1566 60.5155 66.7339 58.9768 66.7368 57.3836V55.642C66.734 54.1729 66.2429 52.7465 65.3405 51.5872C64.4382 50.4279 63.176 49.6015 61.7525 49.2383V49.2383Z" fill="#F2CD38"/>
</g>
<defs>
<clipPath id="clip0">
<path d="M0 16C0 7.16344 7.16344 0 16 0H112C120.837 0 128 7.16344 128 16V112C128 120.837 120.837 128 112 128H16C7.16344 128 0 120.837 0 112V16Z" fill="white"/>
</clipPath>
</defs>
</svg>
