<svg id="Layer_1" data-name="Layer 1" xmlns="http://www.w3.org/2000/svg" viewBox="0 0 48 48"><defs><style>.cls-1{fill:none;}.cls-2{fill:#3254c7;}.cls-3{fill:#f2cd38;}.cls-4{fill:#eb5a76;}</style></defs><rect class="cls-1" /><g id="SD_Zorg_en_welzijn" data-name="SD Zorg en welzijn"><path class="cls-2" d="M36.24226,34.52125c.85785-.94354,1.80017-2.00558,2.47854-2.84256a.60775.60775,0,0,0-.40107-.98752,6.30519,6.30519,0,0,0-2.47289.30979c-1.13463.35973-4.44406,3.5574-6.03548,5.14156A36.07767,36.07767,0,0,0,36.24226,34.52125Z" transform="translate(0.00071 0)"/><path class="cls-2" d="M30.357,35.333c.74307-.89816,1.58064-1.935,2.18942-2.75828a.60815.60815,0,0,0-.47373-.97005,5.8695,5.8695,0,0,0-2.089.39406,14.80285,14.80285,0,0,0-3.18131,2.739c-.59885.6113-1.18014,1.23-1.65715,1.74734a25.32739,25.32739,0,0,0,4.51827-.32032C29.8765,35.91116,30.11154,35.62968,30.357,35.333Z" transform="translate(0.00071 0)"/><path class="cls-3" d="M11.64669,35.05073s1.116-1.65333,5.952-3.18267a75.33735,75.33735,0,0,0,9.54539-3.966.68178.68178,0,0,1,.97052.47765c.25751,1.32157-.47337,3.06772-3.09258,4.329-3.57685,1.7224-2.298,3.33411-.934,3.66477s7.51462.16525,14.012-2.56267c3.78436-1.58885,5.24684-.59336,5.78442.15017a.601.601,0,0,1-.1913.87819c-2.8257,1.60707-9.22074,4.424-13.06922,6.08111a16.75139,16.75139,0,0,1-6.42421,1.36338L6.62432,42.4998A2.59242,2.59242,0,0,1,4,39.90757V37.71291a2.59244,2.59244,0,0,1,2.55679-2.59219Z" transform="translate(0.00071 0)"/><path class="cls-4" d="M31.22837,20.07975c-.36133,1.15576-.73536,2.35107-1.72754,2.35107-1.02149,0-1.28711-1.76514-1.7461-5.438a25.20615,25.20615,0,0,0-.77734-4.41064,27.52456,27.52456,0,0,0-.98047,5.41064c-.584,4.67237-.90723,6.438-1.99609,6.438s-1.41211-1.76562-1.9961-6.438a27.52307,27.52307,0,0,0-.98047-5.41064,25.20709,25.20709,0,0,0-.77734,4.41064c-.459,3.67285-.72461,5.438-1.74609,5.438-.99219,0-1.36621-1.19531-1.72754-2.35107-.167-.53516-.51465-1.64893-.77246-1.64893H10.15537C12.48276,22.79245,17.81284,27.74576,21.139,30.588c2.55469-1.021,4.86585-2.12464,6.00513-2.686a.68172.68172,0,0,1,.97046.47766,2.75968,2.75968,0,0,1-.0337,1.14783c3.29322-2.91388,7.70435-7.23694,9.76417-11.09668H32.00083C31.743,18.43082,31.39536,19.54459,31.22837,20.07975Zm7.772-6.59363a7.98663,7.98663,0,0,0-15-3.82037,7.98663,7.98663,0,0,0-15,3.82037c0,.22327.01514.44269.0332.66125-.00952.16925-.0332.31873-.0332.50165a7.16582,7.16582,0,0,0,.6665,2.7818h6.334c.99218,0,1.36621,1.19531,1.72754,2.35108a5.09878,5.09878,0,0,0,.68945,1.61474,21.07982,21.07982,0,0,0,.83691-4.52783c.459-3.67285.72461-5.438,1.7461-5.438,1.08886,0,1.41211,1.76563,1.99609,6.438.23926,1.91357.59082,4.72852,1.00391,5.45361.41308-.72509.76465-3.54,1.0039-5.45361.584-4.67236.90723-6.438,1.9961-6.438,1.02148,0,1.28711,1.76514,1.74609,5.438a21.08045,21.08045,0,0,0,.83691,4.52783,5.099,5.099,0,0,0,.68946-1.61474c.36133-1.15577.73535-2.35108,1.72754-2.35108h6.33252a7.16274,7.16274,0,0,0,.667-2.7818c0-.18292-.02393-.3324-.03345-.50165C38.985,13.92881,39.00034,13.70939,39.00034,13.48612Z" transform="translate(0.00071 0)"/></g></svg>